<svg xmlns="http://www.w3.org/2000/svg" width="1200" height="820" viewBox="0 0 1200 820">
<rect width="1200" height="820" fill="white"/>
<rect x="70" y="45" width="1060" height="700" rx="22" fill="#ffffff" stroke="#94a3b8" stroke-width="2.2"/>
<rect x="120" y="85" width="960" height="110" rx="18" fill="#f8fbff" stroke="#5e7fa3" stroke-width="2.6"/>
<text x="600" y="128" text-anchor="middle" font-family="Arial,Helvetica,sans-serif" font-size="33" font-weight="700" fill="#1f2933">Review Findings</text>
<text x="600" y="166" text-anchor="middle" font-family="Arial,Helvetica,sans-serif" font-size="25" font-weight="400" fill="#1f2933">Mixed Routing • Authority Concerns • Evidence Gaps • Documentation Claims</text>

<line x1="600" y1="195" x2="600" y2="227" stroke="#334155" stroke-width="4" stroke-linecap="round"/>
<polygon points="600,245 587,225 613,225" fill="#334155"/>

<rect x="170" y="250" width="860" height="135" rx="18" fill="#fbf8ff" stroke="#7b6897" stroke-width="3"/>
<text x="600" y="297" text-anchor="middle" font-family="Arial,Helvetica,sans-serif" font-size="35" font-weight="700" fill="#1f2933">Verification Obligation</text>
<text x="600" y="338" text-anchor="middle" font-family="Arial,Helvetica,sans-serif" font-size="25" font-weight="400" fill="#1f2933">Something must be demonstrated, corrected,</text>
<text x="600" y="360" text-anchor="middle" font-family="Arial,Helvetica,sans-serif" font-size="25" font-weight="400" fill="#1f2933">documented, or risk accepted.</text>

<line x1="600" y1="375" x2="600" y2="407" stroke="#334155" stroke-width="4" stroke-linecap="round"/>
<polygon points="600,425 587,405 613,405" fill="#334155"/>

<rect x="120" y="430" width="960" height="110" rx="18" fill="#f7fcf9" stroke="#5d846b" stroke-width="2.6"/>
<text x="600" y="473" text-anchor="middle" font-family="Arial,Helvetica,sans-serif" font-size="33" font-weight="700" fill="#1f2933">Resolution Paths</text>
<text x="600" y="512" text-anchor="middle" font-family="Arial,Helvetica,sans-serif" font-size="25" font-weight="400" fill="#1f2933">Test Case • Defect Fix • ADR Update • Risk Acceptance</text>

<line x1="600" y1="540" x2="600" y2="572" stroke="#334155" stroke-width="4" stroke-linecap="round"/>
<polygon points="600,590 587,570 613,570" fill="#334155"/>

<rect x="170" y="595" width="860" height="105" rx="18" fill="#fffaf0" stroke="#92733c" stroke-width="2.6"/>
<text x="600" y="637" text-anchor="middle" font-family="Arial,Helvetica,sans-serif" font-size="31" font-weight="700" fill="#1f2933">Repository Evidence Preservation</text>
<text x="600" y="675" text-anchor="middle" font-family="Arial,Helvetica,sans-serif" font-size="24" font-weight="400" fill="#1f2933">Issues • Test Plan • Scenario Tests • Review Records</text>
<text x="600" y="790" text-anchor="middle" font-family="Arial,Helvetica,sans-serif" font-size="30" font-weight="700" fill="#475569">Review produces questions. Verification produces evidence.</text>
</svg>