
<svg xmlns="http://www.w3.org/2000/svg" width="2000" height="1300" viewBox="0 0 2000 1300">
<defs>
<marker id="arrow" markerWidth="12" markerHeight="12" refX="10" refY="6" orient="auto">
<path d="M0,0 L12,6 L0,12 z" fill="#25313b"/>
</marker>
</defs>

<rect width="2000" height="1300" fill="white"/>

<!-- Center repository -->
<text x="1000" y="392" text-anchor="middle" font-family="Arial" font-size="29" font-weight="700" fill="#586672">preserved as shared memory</text>
<rect x="700" y="420" width="600" height="220" rx="12" fill="#f8fafb" stroke="#33424f" stroke-width="3"/>
<text x="1000" y="505" text-anchor="middle" font-family="Arial" font-size="36" font-weight="700">Shared Engineering Memory</text>
<text x="1000" y="565" text-anchor="middle" font-family="Arial" font-size="34" font-weight="600">Repository</text>

<!-- Left artifacts -->
<rect x="120" y="120" width="280" height="80" rx="8" fill="white" stroke="#4a5864" stroke-width="2"/>
<text x="260" y="170" text-anchor="middle" font-family="Arial" font-size="29">Requirements</text>

<rect x="120" y="260" width="280" height="80" rx="8" fill="white" stroke="#4a5864" stroke-width="2"/>
<text x="260" y="310" text-anchor="middle" font-family="Arial" font-size="29">Issues</text>

<rect x="120" y="400" width="280" height="80" rx="8" fill="white" stroke="#4a5864" stroke-width="2"/>
<text x="260" y="450" text-anchor="middle" font-family="Arial" font-size="29">Pull Requests</text>

<rect x="120" y="540" width="280" height="80" rx="8" fill="white" stroke="#4a5864" stroke-width="2"/>
<text x="260" y="590" text-anchor="middle" font-family="Arial" font-size="29">Reviews</text>

<rect x="120" y="680" width="280" height="80" rx="8" fill="white" stroke="#4a5864" stroke-width="2"/>
<text x="260" y="730" text-anchor="middle" font-family="Arial" font-size="29">ADRs</text>

<!-- Right artifacts -->
<rect x="1600" y="120" width="280" height="80" rx="8" fill="white" stroke="#4a5864" stroke-width="2"/>
<text x="1740" y="170" text-anchor="middle" font-family="Arial" font-size="29">AI-Use Logs</text>

<rect x="1600" y="260" width="280" height="80" rx="8" fill="white" stroke="#4a5864" stroke-width="2"/>
<text x="1740" y="310" text-anchor="middle" font-family="Arial" font-size="29">Risks</text>

<rect x="1600" y="400" width="280" height="80" rx="8" fill="white" stroke="#4a5864" stroke-width="2"/>
<text x="1740" y="450" text-anchor="middle" font-family="Arial" font-size="29">Release Notes</text>

<rect x="1600" y="540" width="280" height="80" rx="8" fill="white" stroke="#4a5864" stroke-width="2"/>
<text x="1740" y="590" text-anchor="middle" font-family="Arial" font-size="29">Limitations</text>

<rect x="1600" y="680" width="280" height="80" rx="8" fill="white" stroke="#4a5864" stroke-width="2"/>
<text x="1740" y="730" text-anchor="middle" font-family="Arial" font-size="29">Postmortems</text>

<!-- connectors -->
<line x1="400" y1="160" x2="700" y2="530" stroke="#25313b" stroke-width="2"/><line x1="400" y1="300" x2="700" y2="530" stroke="#25313b" stroke-width="2"/><line x1="400" y1="440" x2="700" y2="530" stroke="#25313b" stroke-width="2"/><line x1="400" y1="580" x2="700" y2="530" stroke="#25313b" stroke-width="2"/><line x1="400" y1="720" x2="700" y2="530" stroke="#25313b" stroke-width="2"/><line x1="1600" y1="160" x2="1300" y2="530" stroke="#25313b" stroke-width="2"/><line x1="1600" y1="300" x2="1300" y2="530" stroke="#25313b" stroke-width="2"/><line x1="1600" y1="440" x2="1300" y2="530" stroke="#25313b" stroke-width="2"/><line x1="1600" y1="580" x2="1300" y2="530" stroke="#25313b" stroke-width="2"/><line x1="1600" y1="720" x2="1300" y2="530" stroke="#25313b" stroke-width="2"/>
<!-- Output -->
<line x1="1000" y1="640" x2="1000" y2="760" stroke="#25313b" stroke-width="3" marker-end="url(#arrow)"/>
<rect x="600" y="780" width="800" height="100" rx="10" fill="#f8fafb" stroke="#4a5864" stroke-width="2"/>
<text x="1000" y="840" text-anchor="middle" font-family="Arial" font-size="32" font-weight="700">Inspectable Team Knowledge</text>

<rect x="320" y="920" width="1360" height="100" rx="10" fill="white" stroke="#9aa6b1" stroke-width="2"/>
<text x="1000" y="980" text-anchor="middle" font-family="Arial" font-size="27" font-weight="600">
What was built • Why it changed • Who reviewed it • What evidence supports it • What risk remains
</text>

<rect x="400" y="1065" width="1200" height="165" rx="12" fill="white" stroke="#2d4052" stroke-width="2.5"/>
<text x="475" y="1112" font-family="Arial" font-size="24" font-weight="700" fill="#2d4052">GOVERNANCE PRINCIPLE</text>
<line x1="475" y1="1128" x2="1525" y2="1128" stroke="#9aa6b1"/>
<text x="1000" y="1170" text-anchor="middle" font-family="Arial" font-size="28" font-weight="600" fill="#1f2933">Trustworthy teams do not rely on private memory.</text>
<text x="1000" y="1207" text-anchor="middle" font-family="Arial" font-size="28" font-weight="600" fill="#1f2933">They preserve engineering memory as evidence.</text>

</svg>
