
<svg xmlns="http://www.w3.org/2000/svg" width="1900" height="1320" viewBox="0 0 1900 1320">
<defs>
  <marker id="arrow" markerWidth="12" markerHeight="12" refX="10" refY="6" orient="auto">
    <path d="M0,0 L12,6 L0,12 z" fill="#25313b"/>
  </marker>
</defs>
<rect width="1900" height="1320" fill="white"/>

<!-- Column headers -->
<text x="475" y="85" text-anchor="middle" font-family="Arial, Helvetica, sans-serif" font-size="36" font-weight="700" fill="#1f2933">Accountability Fog</text>
<text x="1425" y="85" text-anchor="middle" font-family="Arial, Helvetica, sans-serif" font-size="36" font-weight="700" fill="#1f2933">Explicit Ownership</text>

<!-- Divider -->
<line x1="950" y1="120" x2="950" y2="870" stroke="#9aa6b1" stroke-width="2"/>

<!-- Left path -->
<rect x="305" y="135" width="340" height="85" rx="10" fill="#f8fafb" stroke="#4a5864" stroke-width="2"/>
<text x="475" y="188" text-anchor="middle" font-family="Arial, Helvetica, sans-serif" font-size="32" font-weight="700" fill="#1f2933">"We"</text>

<line x1="475" y1="220" x2="475" y2="270" stroke="#25313b" stroke-width="2.5" marker-end="url(#arrow)"/>

<rect x="305" y="285" width="340" height="85" rx="10" fill="#f8fafb" stroke="#4a5864" stroke-width="2"/>
<text x="475" y="338" text-anchor="middle" font-family="Arial, Helvetica, sans-serif" font-size="30" font-weight="600" fill="#1f2933">No Owner</text>

<line x1="475" y1="370" x2="475" y2="420" stroke="#25313b" stroke-width="2.5" marker-end="url(#arrow)"/>

<rect x="275" y="435" width="400" height="90" rx="10" fill="#f8fafb" stroke="#4a5864" stroke-width="2"/>
<text x="475" y="489" text-anchor="middle" font-family="Arial, Helvetica, sans-serif" font-size="29" font-weight="600" fill="#1f2933">No Evidence Owner</text>

<line x1="475" y1="525" x2="475" y2="575" stroke="#25313b" stroke-width="2.5" marker-end="url(#arrow)"/>

<rect x="285" y="590" width="380" height="90" rx="10" fill="#f8fafb" stroke="#4a5864" stroke-width="2"/>
<text x="475" y="644" text-anchor="middle" font-family="Arial, Helvetica, sans-serif" font-size="29" font-weight="600" fill="#1f2933">Risk Untracked</text>

<line x1="475" y1="680" x2="475" y2="730" stroke="#25313b" stroke-width="2.5" marker-end="url(#arrow)"/>

<rect x="285" y="745" width="380" height="90" rx="10" fill="#fbf7e8" stroke="#4a5864" stroke-width="2"/>
<text x="475" y="799" text-anchor="middle" font-family="Arial, Helvetica, sans-serif" font-size="29" font-weight="700" fill="#1f2933">Release Surprise</text>

<!-- Right path -->
<rect x="1255" y="135" width="340" height="85" rx="10" fill="#f8fafb" stroke="#4a5864" stroke-width="2"/>
<text x="1425" y="188" text-anchor="middle" font-family="Arial, Helvetica, sans-serif" font-size="30" font-weight="600" fill="#1f2933">Role Owner</text>

<line x1="1425" y1="220" x2="1425" y2="265" stroke="#25313b" stroke-width="2.5" marker-end="url(#arrow)"/>

<rect x="1255" y="280" width="340" height="85" rx="10" fill="#f8fafb" stroke="#4a5864" stroke-width="2"/>
<text x="1425" y="333" text-anchor="middle" font-family="Arial, Helvetica, sans-serif" font-size="30" font-weight="600" fill="#1f2933">Backup Owner</text>

<line x1="1425" y1="365" x2="1425" y2="410" stroke="#25313b" stroke-width="2.5" marker-end="url(#arrow)"/>

<rect x="1215" y="425" width="420" height="85" rx="10" fill="#f8fafb" stroke="#4a5864" stroke-width="2"/>
<text x="1425" y="478" text-anchor="middle" font-family="Arial, Helvetica, sans-serif" font-size="29" font-weight="600" fill="#1f2933">Evidence Location</text>

<line x1="1425" y1="510" x2="1425" y2="555" stroke="#25313b" stroke-width="2.5" marker-end="url(#arrow)"/>

<rect x="1195" y="570" width="460" height="85" rx="10" fill="#f8fafb" stroke="#4a5864" stroke-width="2"/>
<text x="1425" y="623" text-anchor="middle" font-family="Arial, Helvetica, sans-serif" font-size="29" font-weight="600" fill="#1f2933">Review Responsibility</text>

<line x1="1425" y1="655" x2="1425" y2="700" stroke="#25313b" stroke-width="2.5" marker-end="url(#arrow)"/>

<rect x="1215" y="715" width="420" height="85" rx="10" fill="#f8fafb" stroke="#4a5864" stroke-width="2"/>
<text x="1425" y="768" text-anchor="middle" font-family="Arial, Helvetica, sans-serif" font-size="29" font-weight="600" fill="#1f2933">Risk Disposition</text>

<line x1="1425" y1="800" x2="1425" y2="845" stroke="#25313b" stroke-width="2.5" marker-end="url(#arrow)"/>

<rect x="1195" y="860" width="460" height="90" rx="10" fill="#f8fafb" stroke="#4a5864" stroke-width="2"/>
<text x="1425" y="914" text-anchor="middle" font-family="Arial, Helvetica, sans-serif" font-size="29" font-weight="700" fill="#1f2933">Accountable Outcome</text>

<!-- Observation box -->
<rect x="430" y="990" width="1040" height="115" rx="10" fill="white" stroke="#9aa6b1" stroke-width="2"/>
<text x="950" y="1036" text-anchor="middle" font-family="Arial, Helvetica, sans-serif" font-size="31" font-weight="700" fill="#1f2933">Awareness is not ownership.</text>
<text x="950" y="1076" text-anchor="middle" font-family="Arial, Helvetica, sans-serif" font-size="31" font-weight="700" fill="#1f2933">Ownership must be visible.</text>

<!-- Governance principle -->
<rect x="410" y="1150" width="1080" height="135" rx="12" fill="white" stroke="#2d4052" stroke-width="2.5"/>
<text x="480" y="1193" font-family="Arial, Helvetica, sans-serif" font-size="24" font-weight="700" fill="#2d4052">GOVERNANCE PRINCIPLE</text>
<line x1="480" y1="1208" x2="1420" y2="1208" stroke="#9aa6b1"/>
<text x="950" y="1247" text-anchor="middle" font-family="Arial, Helvetica, sans-serif" font-size="29" font-weight="600" fill="#1f2933">Trustworthy teams make responsibility explicit before failure occurs.</text>

</svg>
