<svg xmlns="http://www.w3.org/2000/svg" width="1200" height="760" viewBox="0 0 1200 760">
  <defs>
    <marker id="arrow" markerWidth="10" markerHeight="10" refX="8.5" refY="5" orient="auto" markerUnits="strokeWidth">
      <path d="M 0 0 L 10 5 L 0 10 z" fill="#334155"/>
    </marker>
    <style>
      .bg { fill: #ffffff; }
      .main { fill: #eaf2f8; stroke: #254b63; stroke-width: 3; }
      .ai { fill: #f1eef7; stroke: #5f4b8b; stroke-width: 3; }
      .claim { fill: #f7f9fb; stroke: #334155; stroke-width: 3; }
      .control { fill: #fff7e6; stroke: #7a5b12; stroke-width: 3; }
      .baseline { fill: #eef6ee; stroke: #2f5d3a; stroke-width: 3; }
      text { font-family: Arial, Helvetica, sans-serif; fill: #172033; text-anchor: middle; dominant-baseline: middle; }
      .label { font-weight: 700; font-size: 40px; }
      .label2 { font-weight: 700; font-size: 36px; }
      .sub { font-weight: 600; font-size: 31px; fill: #334155; }
      .sub2 { font-weight: 600; font-size: 30px; fill: #334155; }
      .arrow { stroke: #334155; stroke-width: 4; fill: none; marker-end: url(#arrow); }
      .thin { stroke: #64748b; stroke-width: 3; fill: none; marker-end: url(#arrow); }
    </style>
  </defs>
  <rect class="bg" x="0" y="0" width="1200" height="760"/>

  <rect class="ai" x="70" y="86" rx="18" ry="18" width="305" height="132"/>
  <text class="label" x="222.5" y="128">AI Draft</text>
  <text class="sub2" x="222.5" y="169">proposed</text>
  <text class="sub2" x="222.5" y="199">material</text>

  <rect class="main" x="485" y="72" rx="20" ry="20" width="445" height="158"/>
  <text class="label" x="707.5" y="132">Plan Claim</text>
  <text class="sub" x="707.5" y="182">not yet a promise</text>
  <path class="arrow" d="M 388 152 L 462 152"/>

  <rect class="claim" x="70" y="338" rx="18" ry="18" width="205" height="115"/>
  <text class="label2" x="172.5" y="395.5">Evidence</text>

  <rect class="claim" x="300" y="338" rx="18" ry="18" width="260" height="115"/>
  <text class="label2" x="430" y="395.5">Assumptions</text>

  <rect class="claim" x="585" y="338" rx="18" ry="18" width="185" height="115"/>
  <text class="label2" x="677.5" y="395.5">Owners</text>

  <rect class="claim" x="795" y="338" rx="18" ry="18" width="160" height="115"/>
  <text class="label2" x="875" y="395.5">Risks</text>

  <rect class="control" x="980" y="338" rx="18" ry="18" width="155" height="115"/>
  <text class="label2" x="1057.5" y="395.5">Review</text>

  <path class="thin" d="M 707.5 242 L 707.5 270 L 172.5 270 L 172.5 326"/>
  <path class="thin" d="M 707.5 242 L 707.5 270 L 430 270 L 430 326"/>
  <path class="thin" d="M 707.5 242 L 707.5 270 L 677.5 270 L 677.5 326"/>
  <path class="thin" d="M 707.5 242 L 707.5 270 L 875 270 L 875 326"/>
  <path class="thin" d="M 707.5 242 L 707.5 270 L 1057.5 270 L 1057.5 326"/>

  <rect class="baseline" x="245" y="585" rx="22" ry="22" width="710" height="122"/>
  <text class="label" x="600" y="632">Execution Baseline</text>
  <text class="sub" x="600" y="675">reviewable commitments under uncertainty</text>

  <path class="thin" d="M 172.5 466 L 172.5 522 L 600 522 L 600 562"/>
  <path class="thin" d="M 430 466 L 430 522 L 600 522 L 600 562"/>
  <path class="thin" d="M 677.5 466 L 677.5 522 L 600 522 L 600 562"/>
  <path class="thin" d="M 875 466 L 875 522 L 600 522 L 600 562"/>
  <path class="thin" d="M 1057.5 466 L 1057.5 522 L 600 522 L 600 562"/>
</svg>
