<svg xmlns="http://www.w3.org/2000/svg" width="1500" height="1020" viewBox="0 0 1500 1020">
<defs>
<marker id="arrow" markerWidth="12" markerHeight="12" refX="10" refY="6" orient="auto" markerUnits="strokeWidth"><path d="M2,2 L10,6 L2,10 Z" fill="#222"/></marker>
<marker id="arrow_red" markerWidth="12" markerHeight="12" refX="10" refY="6" orient="auto" markerUnits="strokeWidth"><path d="M2,2 L10,6 L2,10 Z" fill="#a32222"/></marker>
</defs>
<rect width="1500" height="1020" fill="#fff"/>
<rect x="40" y="35" width="1420" height="245" rx="10" fill="#fafcfd" stroke="#2f4a5c" stroke-width="2"/>
<rect x="40" y="35" width="1420" height="42" rx="10" fill="#edf4f7" stroke="none"/>
<line x1="40" y1="77" x2="1460" y2="77" stroke="#2f4a5c" stroke-width="1.2"/>
<text id="repo_sources_title" x="750.0" y="61.2" font-family="DejaVu Sans, Arial, sans-serif" font-size="21" font-weight="700" fill="#2f4a5c" text-anchor="middle">
<tspan x="750.0" dy="0.0">REPOSITORY EVIDENCE SOURCES</tspan>
</text>
<rect x="70.0" y="106" width="211.66666666666666" height="134" rx="10" fill="#fbfdff" stroke="#1f4e8c" stroke-width="2"/>
<rect x="70.0" y="106" width="211.66666666666666" height="48" rx="10" fill="#edf4ff" stroke="none"/>
<line x1="70.0" y1="154" x2="281.66666666666663" y2="154" stroke="#1f4e8c" stroke-width="1.2"/>
<text id="runbooks_title" x="175.8" y="134.0" font-family="DejaVu Sans, Arial, sans-serif" font-size="16" font-weight="700" fill="#1f4e8c" text-anchor="middle">
<tspan x="175.8" dy="0.0">RUNBOOKS</tspan>
</text>
<text id="runbooks_body" x="175.8" y="191.6" font-family="DejaVu Sans, Arial, sans-serif" font-size="17" font-weight="400" fill="#111" text-anchor="middle">
<tspan x="175.8" dy="0.0">/docs/operations/</tspan>
<tspan x="175.8" dy="19.4">runbooks/</tspan>
</text>
<rect x="299.66666666666663" y="106" width="211.66666666666666" height="134" rx="10" fill="#fbfdff" stroke="#1f4e8c" stroke-width="2"/>
<rect x="299.66666666666663" y="106" width="211.66666666666666" height="48" rx="10" fill="#edf4ff" stroke="none"/>
<line x1="299.66666666666663" y1="154" x2="511.33333333333326" y2="154" stroke="#1f4e8c" stroke-width="1.2"/>
<text id="incidents_title" x="405.5" y="134.0" font-family="DejaVu Sans, Arial, sans-serif" font-size="16" font-weight="700" fill="#1f4e8c" text-anchor="middle">
<tspan x="405.5" dy="0.0">INCIDENT RECORDS</tspan>
</text>
<text id="incidents_body" x="405.5" y="191.6" font-family="DejaVu Sans, Arial, sans-serif" font-size="17" font-weight="400" fill="#111" text-anchor="middle">
<tspan x="405.5" dy="0.0">/docs/operations/</tspan>
<tspan x="405.5" dy="19.4">incidents/</tspan>
</text>
<rect x="529.3333333333333" y="106" width="211.66666666666666" height="134" rx="10" fill="#fdfbff" stroke="#5a3d8a" stroke-width="2"/>
<rect x="529.3333333333333" y="106" width="211.66666666666666" height="48" rx="10" fill="#f3ecfb" stroke="none"/>
<line x1="529.3333333333333" y1="154" x2="740.9999999999999" y2="154" stroke="#5a3d8a" stroke-width="1.2"/>
<text id="adrs_title" x="635.2" y="134.0" font-family="DejaVu Sans, Arial, sans-serif" font-size="16" font-weight="700" fill="#5a3d8a" text-anchor="middle">
<tspan x="635.2" dy="0.0">ADRs</tspan>
</text>
<text id="adrs_body" x="635.2" y="191.6" font-family="DejaVu Sans, Arial, sans-serif" font-size="17" font-weight="400" fill="#111" text-anchor="middle">
<tspan x="635.2" dy="0.0">Architecture</tspan>
<tspan x="635.2" dy="19.4">decisions</tspan>
</text>
<rect x="759.0" y="106" width="211.66666666666666" height="134" rx="10" fill="#fffdf7" stroke="#9a5b00" stroke-width="2"/>
<rect x="759.0" y="106" width="211.66666666666666" height="48" rx="10" fill="#fbf0d8" stroke="none"/>
<line x1="759.0" y1="154" x2="970.6666666666666" y2="154" stroke="#9a5b00" stroke-width="1.2"/>
<text id="release_title" x="864.8" y="134.0" font-family="DejaVu Sans, Arial, sans-serif" font-size="16" font-weight="700" fill="#9a5b00" text-anchor="middle">
<tspan x="864.8" dy="0.0">RELEASE EVIDENCE</tspan>
</text>
<text id="release_body" x="864.8" y="191.6" font-family="DejaVu Sans, Arial, sans-serif" font-size="17" font-weight="400" fill="#111" text-anchor="middle">
<tspan x="864.8" dy="0.0">Known limitations</tspan>
<tspan x="864.8" dy="19.4">release approvals</tspan>
</text>
<rect x="988.6666666666666" y="106" width="211.66666666666666" height="134" rx="10" fill="#fbfefb" stroke="#2f6b3f" stroke-width="2"/>
<rect x="988.6666666666666" y="106" width="211.66666666666666" height="48" rx="10" fill="#eef8ee" stroke="none"/>
<line x1="988.6666666666666" y1="154" x2="1200.3333333333333" y2="154" stroke="#2f6b3f" stroke-width="1.2"/>
<text id="ai_context_title" x="1094.5" y="134.0" font-family="DejaVu Sans, Arial, sans-serif" font-size="16" font-weight="700" fill="#2f6b3f" text-anchor="middle">
<tspan x="1094.5" dy="0.0">AI GOV + CONTEXT</tspan>
</text>
<text id="ai_context_body" x="1094.5" y="191.6" font-family="DejaVu Sans, Arial, sans-serif" font-size="17" font-weight="400" fill="#111" text-anchor="middle">
<tspan x="1094.5" dy="0.0">Delegation matrix</tspan>
<tspan x="1094.5" dy="19.4">source inventory</tspan>
</text>
<rect x="1218.3333333333333" y="106" width="211.66666666666666" height="134" rx="10" fill="#fdfbff" stroke="#5a3d8a" stroke-width="2"/>
<rect x="1218.3333333333333" y="106" width="211.66666666666666" height="48" rx="10" fill="#f3ecfb" stroke="none"/>
<line x1="1218.3333333333333" y1="154" x2="1430.0" y2="154" stroke="#5a3d8a" stroke-width="1.2"/>
<text id="trust_title" x="1324.2" y="124.9" font-family="DejaVu Sans, Arial, sans-serif" font-size="16" font-weight="700" fill="#5a3d8a" text-anchor="middle">
<tspan x="1324.2" dy="0.0">TRUST +</tspan>
<tspan x="1324.2" dy="18.2">TRANSPARENCY</tspan>
</text>
<text id="trust_body" x="1324.2" y="191.6" font-family="DejaVu Sans, Arial, sans-serif" font-size="17" font-weight="400" fill="#111" text-anchor="middle">
<tspan x="1324.2" dy="0.0">Trust evidence</tspan>
<tspan x="1324.2" dy="19.4">limitations</tspan>
</text>
<rect x="360" y="300" width="780" height="66" rx="10" fill="#fbfbfb" stroke="#555555" stroke-width="2"/>
<text id="intake_body" x="750.0" y="326.6" font-family="DejaVu Sans, Arial, sans-serif" font-size="20" font-weight="700" fill="#111" text-anchor="middle">
<tspan x="750.0" dy="0.0">Repository artifacts are classified before they become usable</tspan>
<tspan x="750.0" dy="22.8">context.</tspan>
</text>
<rect x="110" y="410" width="890" height="326" rx="10" fill="#fbfefb" stroke="#2f6b3f" stroke-width="2"/>
<rect x="110" y="410" width="890" height="48" rx="10" fill="#eef8ee" stroke="none"/>
<line x1="110" y1="458" x2="1000" y2="458" stroke="#2f6b3f" stroke-width="1.2"/>
<text id="substrate_title" x="555.0" y="440.0" font-family="DejaVu Sans, Arial, sans-serif" font-size="24" font-weight="700" fill="#2f6b3f" text-anchor="middle">
<tspan x="555.0" dy="0.0">GOVERNED CONTEXT SUBSTRATE</tspan>
</text>
<rect x="155" y="522" width="250" height="94" rx="10" fill="#fbfdff" stroke="#1f4e8c" stroke-width="2"/>
<rect x="155" y="522" width="250" height="31" rx="10" fill="#edf4ff" stroke="none"/>
<line x1="155" y1="553" x2="405" y2="553" stroke="#1f4e8c" stroke-width="1.2"/>
<text id="own_title" x="280.0" y="541.5" font-family="DejaVu Sans, Arial, sans-serif" font-size="16" font-weight="700" fill="#1f4e8c" text-anchor="middle">
<tspan x="280.0" dy="0.0">SOURCE OWNERSHIP</tspan>
</text>
<text id="own_body" x="280.0" y="588.5" font-family="DejaVu Sans, Arial, sans-serif" font-size="16" font-weight="400" fill="#111" text-anchor="middle">
<tspan x="280.0" dy="0.0">Owner identified</tspan>
</text>
<rect x="425" y="522" width="250" height="94" rx="10" fill="#fdfbff" stroke="#5a3d8a" stroke-width="2"/>
<rect x="425" y="522" width="250" height="31" rx="10" fill="#f3ecfb" stroke="none"/>
<line x1="425" y1="553" x2="675" y2="553" stroke="#5a3d8a" stroke-width="1.2"/>
<text id="review_title" x="550.0" y="541.5" font-family="DejaVu Sans, Arial, sans-serif" font-size="16" font-weight="700" fill="#5a3d8a" text-anchor="middle">
<tspan x="550.0" dy="0.0">REVIEW STATUS</tspan>
</text>
<text id="review_body" x="550.0" y="579.4" font-family="DejaVu Sans, Arial, sans-serif" font-size="16" font-weight="400" fill="#111" text-anchor="middle">
<tspan x="550.0" dy="0.0">Approved / pending /</tspan>
<tspan x="550.0" dy="18.2">retired</tspan>
</text>
<rect x="695" y="522" width="250" height="94" rx="10" fill="#fffdf7" stroke="#9a5b00" stroke-width="2"/>
<rect x="695" y="522" width="250" height="31" rx="10" fill="#fbf0d8" stroke="none"/>
<line x1="695" y1="553" x2="945" y2="553" stroke="#9a5b00" stroke-width="1.2"/>
<text id="fresh_title" x="820.0" y="541.5" font-family="DejaVu Sans, Arial, sans-serif" font-size="16" font-weight="700" fill="#9a5b00" text-anchor="middle">
<tspan x="820.0" dy="0.0">FRESHNESS RULES</tspan>
</text>
<text id="fresh_body" x="820.0" y="579.4" font-family="DejaVu Sans, Arial, sans-serif" font-size="16" font-weight="400" fill="#111" text-anchor="middle">
<tspan x="820.0" dy="0.0">Current version and</tspan>
<tspan x="820.0" dy="18.2">cadence</tspan>
</text>
<rect x="250" y="632" width="320" height="94" rx="10" fill="#fbfdff" stroke="#1f4e8c" stroke-width="2"/>
<rect x="250" y="632" width="320" height="31" rx="10" fill="#edf4ff" stroke="none"/>
<line x1="250" y1="663" x2="570" y2="663" stroke="#1f4e8c" stroke-width="1.2"/>
<text id="authority_title" x="410.0" y="651.5" font-family="DejaVu Sans, Arial, sans-serif" font-size="16" font-weight="700" fill="#1f4e8c" text-anchor="middle">
<tspan x="410.0" dy="0.0">AUTHORITY CLASSIFICATION</tspan>
</text>
<text id="authority_body" x="410.0" y="689.4" font-family="DejaVu Sans, Arial, sans-serif" font-size="16" font-weight="400" fill="#111" text-anchor="middle">
<tspan x="410.0" dy="0.0">Authoritative / advisory /</tspan>
<tspan x="410.0" dy="18.2">historical / prohibited</tspan>
</text>
<rect x="595" y="632" width="320" height="94" rx="10" fill="#fbfefb" stroke="#2f6b3f" stroke-width="2"/>
<rect x="595" y="632" width="320" height="31" rx="10" fill="#eef8ee" stroke="none"/>
<line x1="595" y1="663" x2="915" y2="663" stroke="#2f6b3f" stroke-width="1.2"/>
<text id="permitted_title" x="755.0" y="651.5" font-family="DejaVu Sans, Arial, sans-serif" font-size="16" font-weight="700" fill="#2f6b3f" text-anchor="middle">
<tspan x="755.0" dy="0.0">PERMITTED AI USE</tspan>
</text>
<text id="permitted_body" x="755.0" y="689.4" font-family="DejaVu Sans, Arial, sans-serif" font-size="16" font-weight="400" fill="#111" text-anchor="middle">
<tspan x="755.0" dy="0.0">Allowed, restricted, or blocked</tspan>
<tspan x="755.0" dy="18.2">workflows</tspan>
</text>
<rect x="1060" y="410" width="330" height="326" rx="10" fill="#fdfbff" stroke="#5a3d8a" stroke-width="2"/>
<rect x="1060" y="410" width="330" height="48" rx="10" fill="#f3ecfb" stroke="none"/>
<line x1="1060" y1="458" x2="1390" y2="458" stroke="#5a3d8a" stroke-width="1.2"/>
<text id="evidence_map_title" x="1225.0" y="439.5" font-family="DejaVu Sans, Arial, sans-serif" font-size="22" font-weight="700" fill="#5a3d8a" text-anchor="middle">
<tspan x="1225.0" dy="0.0">CONTEXT EVIDENCE MAP</tspan>
</text>
<text id="evidence_map_body" x="1225.0" y="566.3" font-family="DejaVu Sans, Arial, sans-serif" font-size="21" font-weight="400" fill="#111" text-anchor="middle">
<tspan x="1225.0" dy="0.0">Workflow mapping</tspan>
<tspan x="1225.0" dy="23.9">Authority mapping</tspan>
<tspan x="1225.0" dy="23.9">Source traceability</tspan>
<tspan x="1225.0" dy="23.9">Review records</tspan>
</text>
<rect x="105" y="772" width="360" height="110" rx="10" fill="#fdfbff" stroke="#5a3d8a" stroke-width="2"/>
<rect x="105" y="772" width="360" height="36" rx="10" fill="#f3ecfb" stroke="none"/>
<line x1="105" y1="808" x2="465" y2="808" stroke="#5a3d8a" stroke-width="1.2"/>
<text id="human_review_title" x="285.0" y="794.5" font-family="DejaVu Sans, Arial, sans-serif" font-size="18" font-weight="700" fill="#5a3d8a" text-anchor="middle">
<tspan x="285.0" dy="0.0">HUMAN REVIEW</tspan>
</text>
<text id="human_review_body" x="285.0" y="839.6" font-family="DejaVu Sans, Arial, sans-serif" font-size="17" font-weight="400" fill="#111" text-anchor="middle">
<tspan x="285.0" dy="0.0">Inspect evidence, challenge</tspan>
<tspan x="285.0" dy="19.4">context, approve or constrain use.</tspan>
</text>
<rect x="570" y="772" width="360" height="110" rx="10" fill="#fbfefb" stroke="#2f6b3f" stroke-width="2"/>
<rect x="570" y="772" width="360" height="36" rx="10" fill="#eef8ee" stroke="none"/>
<line x1="570" y1="808" x2="930" y2="808" stroke="#2f6b3f" stroke-width="1.2"/>
<text id="agentic_title" x="750.0" y="794.5" font-family="DejaVu Sans, Arial, sans-serif" font-size="18" font-weight="700" fill="#2f6b3f" text-anchor="middle">
<tspan x="750.0" dy="0.0">AGENTIC WORKFLOWS</tspan>
</text>
<text id="agentic_body" x="750.0" y="839.6" font-family="DejaVu Sans, Arial, sans-serif" font-size="17" font-weight="400" fill="#111" text-anchor="middle">
<tspan x="750.0" dy="0.0">Use only approved context for</tspan>
<tspan x="750.0" dy="19.4">scoped workflow participation.</tspan>
</text>
<rect x="1035" y="772" width="360" height="118" rx="10" fill="#fbfdff" stroke="#1f4e8c" stroke-width="2"/>
<rect x="1035" y="772" width="360" height="36" rx="10" fill="#edf4ff" stroke="none"/>
<line x1="1035" y1="808" x2="1395" y2="808" stroke="#1f4e8c" stroke-width="1.2"/>
<text id="ops_decisions_title" x="1215.0" y="794.5" font-family="DejaVu Sans, Arial, sans-serif" font-size="18" font-weight="700" fill="#1f4e8c" text-anchor="middle">
<tspan x="1215.0" dy="0.0">OPERATIONAL DECISIONS</tspan>
</text>
<text id="ops_decisions_body" x="1215.0" y="834.8" font-family="DejaVu Sans, Arial, sans-serif" font-size="16" font-weight="400" fill="#111" text-anchor="middle">
<tspan x="1215.0" dy="0.0">Routing, communication, escalation,</tspan>
<tspan x="1215.0" dy="18.2">and incident support remain</tspan>
<tspan x="1215.0" dy="18.2">accountable.</tspan>
</text>
<rect x="40" y="918" width="1420" height="72" rx="10" fill="#fbfbfb" stroke="#555555" stroke-width="2"/>
<text id="footer_body" x="750.0" y="958.8" font-family="DejaVu Sans, Arial, sans-serif" font-size="19" font-weight="700" fill="#111" text-anchor="middle">
<tspan x="750.0" dy="0.0">Repository memory becomes trustworthy AI context only through ownership, review, freshness, authority, and permitted use.</tspan>
</text>
<path id="runbooks_to_intake" d="M 175.8,240.0 L 175.8,278.0 L 175.8,300.0" fill="none" stroke="#222" stroke-width="2.3" stroke-linecap="round" stroke-linejoin="round" marker-end="url(#arrow)"/>
<path id="incidents_to_intake" d="M 405.5,240.0 L 405.5,278.0 L 405.5,300.0" fill="none" stroke="#222" stroke-width="2.3" stroke-linecap="round" stroke-linejoin="round" marker-end="url(#arrow)"/>
<path id="adrs_to_intake" d="M 635.2,240.0 L 635.2,278.0 L 635.2,300.0" fill="none" stroke="#222" stroke-width="2.3" stroke-linecap="round" stroke-linejoin="round" marker-end="url(#arrow)"/>
<path id="release_to_intake" d="M 864.8,240.0 L 864.8,278.0 L 864.8,300.0" fill="none" stroke="#222" stroke-width="2.3" stroke-linecap="round" stroke-linejoin="round" marker-end="url(#arrow)"/>
<path id="ai_context_to_intake" d="M 1094.5,240.0 L 1094.5,278.0 L 1094.5,300.0" fill="none" stroke="#222" stroke-width="2.3" stroke-linecap="round" stroke-linejoin="round" marker-end="url(#arrow)"/>
<path id="trust_to_intake" d="M 1324.2,240.0 L 1324.2,278.0 L 1324.2,300.0" fill="none" stroke="#222" stroke-width="2.3" stroke-linecap="round" stroke-linejoin="round" marker-end="url(#arrow)"/>
<path id="intake_to_substrate" d="M 750.0,366.0 L 750.0,388.0 L 750.0,410.0" fill="none" stroke="#222" stroke-width="3" stroke-linecap="round" stroke-linejoin="round" marker-end="url(#arrow)"/>
<path id="substrate_to_map" d="M 1000.0,568.0 L 1060.0,568.0" fill="none" stroke="#222" stroke-width="3" stroke-linecap="round" stroke-linejoin="round" marker-end="url(#arrow)"/>
<path id="substrate_to_human" d="M 285.0,736.0 L 285.0,772.0" fill="none" stroke="#222" stroke-width="2.6" stroke-linecap="round" stroke-linejoin="round" marker-end="url(#arrow)"/>
<path id="substrate_to_agentic" d="M 750.0,736.0 L 750.0,772.0" fill="none" stroke="#222" stroke-width="2.6" stroke-linecap="round" stroke-linejoin="round" marker-end="url(#arrow)"/>
<path id="map_to_ops" d="M 1225.0,736.0 L 1225.0,772.0" fill="none" stroke="#5a3d8a" stroke-width="2.6" stroke-linecap="round" stroke-linejoin="round" marker-end="url(#arrow)"/>
</svg>