<svg xmlns="http://www.w3.org/2000/svg" width="1600" height="960" viewBox="0 0 1600 960" role="img" aria-labelledby="title desc">
<title id="title">Stewardship Responsibility Model</title>
<desc id="desc">A simple responsibility architecture showing stewardship domains that keep repository memory aligned with operational trust over time.</desc>
<rect width="1600" height="960" fill="#ffffff"/>
<defs><marker id="arrow" markerWidth="9" markerHeight="9" refX="8" refY="4.5" orient="auto" markerUnits="userSpaceOnUse"><path d="M1.4,1.35 L8,4.5 L1.4,7.65 Z" fill="#6b7c86"/></marker></defs>
<text x="800.0" y="40" text-anchor="middle" font-family="Aptos, Arial, sans-serif" font-size="30" font-weight="700" fill="#1f2933">Stewardship turns repository memory into sustained responsibility</text>
<rect x="260" y="66" width="1080" height="116" rx="22" fill="#eef3f7" stroke="#617789" stroke-width="2.5"/>
<text x="800.0" y="112" text-anchor="middle" font-family="Aptos, Arial, sans-serif" font-size="34" font-weight="700" fill="#1f2933">Stewardship System</text>
<text x="800.0" y="148" text-anchor="middle" font-family="Aptos, Arial, sans-serif" font-size="24" font-weight="400" fill="#52616b">owned cadence • renewed evidence • reviewable decisions</text>
<line x1="800.0" y1="182" x2="800.0" y2="207" stroke="#6b7c86" stroke-width="3" marker-end="url(#arrow)"/>
<rect x="390" y="212" width="820" height="62" rx="16" fill="#fff8e6" stroke="#a9822a" stroke-width="2"/>
<text x="800.0" y="251" text-anchor="middle" font-family="Aptos, Arial, sans-serif" font-size="25" font-weight="600" fill="#1f2933">Evidence has a half-life unless someone stewards it.</text>
<line x1="800.0" y1="274" x2="800.0" y2="304" stroke="#6b7c86" stroke-width="3"/>
<line x1="200.0" y1="304" x2="1400.0" y2="304" stroke="#6b7c86" stroke-width="3"/>
<line x1="200.0" y1="304" x2="200.0" y2="334" stroke="#6b7c86" stroke-width="3" marker-end="url(#arrow)"/>
<rect x="60" y="342" width="280" height="288" rx="18" fill="#f7f9fb" stroke="#6f8290" stroke-width="2.2"/>
<text x="200.0" y="390" text-anchor="middle" font-family="Aptos, Arial, sans-serif" font-size="27" font-weight="700" fill="#1f2933">Ownership</text>
<line x1="88" y1="416" x2="312" y2="416" stroke="#d3dbe1" stroke-width="2"/>
<rect x="88" y="433" width="224" height="48" rx="12" fill="#ffffff" stroke="#c8d2d9" stroke-width="1.5"/>
<text x="200.0" y="463" text-anchor="middle" font-family="Aptos, Arial, sans-serif" font-size="21" font-weight="500" fill="#1f2933">Responsible owners</text>
<rect x="88" y="499" width="224" height="48" rx="12" fill="#ffffff" stroke="#c8d2d9" stroke-width="1.5"/>
<text x="200.0" y="529" text-anchor="middle" font-family="Aptos, Arial, sans-serif" font-size="21" font-weight="500" fill="#1f2933">Review cadence</text>
<rect x="88" y="565" width="224" height="48" rx="12" fill="#ffffff" stroke="#c8d2d9" stroke-width="1.5"/>
<text x="200.0" y="595" text-anchor="middle" font-family="Aptos, Arial, sans-serif" font-size="21" font-weight="500" fill="#1f2933">Escalation path</text>
<line x1="200.0" y1="630" x2="200.0" y2="717" stroke="#6b7c86" stroke-width="3" marker-end="url(#arrow)"/>
<line x1="500.0" y1="304" x2="500.0" y2="334" stroke="#6b7c86" stroke-width="3" marker-end="url(#arrow)"/>
<rect x="360" y="342" width="280" height="288" rx="18" fill="#f7f9fb" stroke="#6f8290" stroke-width="2.2"/>
<text x="500.0" y="390" text-anchor="middle" font-family="Aptos, Arial, sans-serif" font-size="25" font-weight="700" fill="#1f2933">Repository Evidence</text>
<line x1="388" y1="416" x2="612" y2="416" stroke="#d3dbe1" stroke-width="2"/>
<rect x="388" y="433" width="224" height="48" rx="12" fill="#ffffff" stroke="#c8d2d9" stroke-width="1.5"/>
<text x="500.0" y="463" text-anchor="middle" font-family="Aptos, Arial, sans-serif" font-size="21" font-weight="500" fill="#1f2933">Evidence inventory</text>
<rect x="388" y="499" width="224" height="48" rx="12" fill="#ffffff" stroke="#c8d2d9" stroke-width="1.5"/>
<text x="500.0" y="529" text-anchor="middle" font-family="Aptos, Arial, sans-serif" font-size="21" font-weight="500" fill="#1f2933">Health dashboard</text>
<rect x="388" y="565" width="224" height="48" rx="12" fill="#ffffff" stroke="#c8d2d9" stroke-width="1.5"/>
<text x="500.0" y="595" text-anchor="middle" font-family="Aptos, Arial, sans-serif" font-size="21" font-weight="500" fill="#1f2933">Continuity plan</text>
<line x1="500.0" y1="630" x2="500.0" y2="717" stroke="#6b7c86" stroke-width="3" marker-end="url(#arrow)"/>
<line x1="800.0" y1="304" x2="800.0" y2="334" stroke="#6b7c86" stroke-width="3" marker-end="url(#arrow)"/>
<rect x="660" y="342" width="280" height="288" rx="18" fill="#f7f9fb" stroke="#6f8290" stroke-width="2.2"/>
<text x="800.0" y="390" text-anchor="middle" font-family="Aptos, Arial, sans-serif" font-size="27" font-weight="700" fill="#1f2933">AI Capability</text>
<line x1="688" y1="416" x2="912" y2="416" stroke="#d3dbe1" stroke-width="2"/>
<rect x="688" y="433" width="224" height="48" rx="12" fill="#ffffff" stroke="#c8d2d9" stroke-width="1.5"/>
<text x="800.0" y="463" text-anchor="middle" font-family="Aptos, Arial, sans-serif" font-size="21" font-weight="500" fill="#1f2933">Capability reviews</text>
<rect x="688" y="499" width="224" height="48" rx="12" fill="#ffffff" stroke="#c8d2d9" stroke-width="1.5"/>
<text x="800.0" y="529" text-anchor="middle" font-family="Aptos, Arial, sans-serif" font-size="21" font-weight="500" fill="#1f2933">Context sources</text>
<rect x="688" y="565" width="224" height="48" rx="12" fill="#ffffff" stroke="#c8d2d9" stroke-width="1.5"/>
<text x="800.0" y="595" text-anchor="middle" font-family="Aptos, Arial, sans-serif" font-size="20" font-weight="500" fill="#1f2933">Delegation boundaries</text>
<line x1="800.0" y1="630" x2="800.0" y2="717" stroke="#6b7c86" stroke-width="3" marker-end="url(#arrow)"/>
<line x1="1100.0" y1="304" x2="1100.0" y2="334" stroke="#6b7c86" stroke-width="3" marker-end="url(#arrow)"/>
<rect x="960" y="342" width="280" height="288" rx="18" fill="#f7f9fb" stroke="#6f8290" stroke-width="2.2"/>
<text x="1100.0" y="390" text-anchor="middle" font-family="Aptos, Arial, sans-serif" font-size="27" font-weight="700" fill="#1f2933">Operations</text>
<line x1="988" y1="416" x2="1212" y2="416" stroke="#d3dbe1" stroke-width="2"/>
<rect x="988" y="433" width="224" height="48" rx="12" fill="#ffffff" stroke="#c8d2d9" stroke-width="1.5"/>
<text x="1100.0" y="463" text-anchor="middle" font-family="Aptos, Arial, sans-serif" font-size="21" font-weight="500" fill="#1f2933">Runbooks</text>
<rect x="988" y="499" width="224" height="48" rx="12" fill="#ffffff" stroke="#c8d2d9" stroke-width="1.5"/>
<text x="1100.0" y="529" text-anchor="middle" font-family="Aptos, Arial, sans-serif" font-size="21" font-weight="500" fill="#1f2933">Incidents</text>
<rect x="988" y="565" width="224" height="48" rx="12" fill="#ffffff" stroke="#c8d2d9" stroke-width="1.5"/>
<text x="1100.0" y="595" text-anchor="middle" font-family="Aptos, Arial, sans-serif" font-size="20" font-weight="500" fill="#1f2933">Release limitations</text>
<line x1="1100.0" y1="630" x2="1100.0" y2="717" stroke="#6b7c86" stroke-width="3" marker-end="url(#arrow)"/>
<line x1="1400.0" y1="304" x2="1400.0" y2="334" stroke="#6b7c86" stroke-width="3" marker-end="url(#arrow)"/>
<rect x="1260" y="342" width="280" height="288" rx="18" fill="#f7f9fb" stroke="#6f8290" stroke-width="2.2"/>
<text x="1400.0" y="390" text-anchor="middle" font-family="Aptos, Arial, sans-serif" font-size="27" font-weight="700" fill="#1f2933">Governance Review</text>
<line x1="1288" y1="416" x2="1512" y2="416" stroke="#d3dbe1" stroke-width="2"/>
<rect x="1288" y="433" width="224" height="48" rx="12" fill="#ffffff" stroke="#c8d2d9" stroke-width="1.5"/>
<text x="1400.0" y="463" text-anchor="middle" font-family="Aptos, Arial, sans-serif" font-size="21" font-weight="500" fill="#1f2933">Review board</text>
<rect x="1288" y="499" width="224" height="48" rx="12" fill="#ffffff" stroke="#c8d2d9" stroke-width="1.5"/>
<text x="1400.0" y="529" text-anchor="middle" font-family="Aptos, Arial, sans-serif" font-size="20" font-weight="500" fill="#1f2933">Stewardship decisions</text>
<rect x="1288" y="565" width="224" height="48" rx="12" fill="#ffffff" stroke="#c8d2d9" stroke-width="1.5"/>
<text x="1400.0" y="595" text-anchor="middle" font-family="Aptos, Arial, sans-serif" font-size="20" font-weight="500" fill="#1f2933">Follow-up conditions</text>
<line x1="1400.0" y1="630" x2="1400.0" y2="717" stroke="#6b7c86" stroke-width="3" marker-end="url(#arrow)"/>
<rect x="300" y="748" width="1000" height="112" rx="22" fill="#eef6f1" stroke="#5f7f6a" stroke-width="2.5"/>
<text x="800.0" y="796" text-anchor="middle" font-family="Aptos, Arial, sans-serif" font-size="33" font-weight="700" fill="#1f2933">Operational Trust</text>
<text x="800.0" y="832" text-anchor="middle" font-family="Aptos, Arial, sans-serif" font-size="23" font-weight="400" fill="#52616b">current enough • owned enough • evidenced enough • reviewed enough</text>
<rect x="390" y="886" width="820" height="44" rx="12" fill="#f6f7f8" stroke="#d7dde2" stroke-width="1.5"/>
<text x="800.0" y="915" text-anchor="middle" font-family="Aptos, Arial, sans-serif" font-size="22" font-weight="600" fill="#1f2933">A mature repository is not self-executing; stewardship keeps it true.</text>
</svg>