<svg xmlns="http://www.w3.org/2000/svg" width="1800" height="1200" viewBox="0 0 1800 1200">
<defs><marker id="arrow" markerWidth="8" markerHeight="8" refX="7" refY="4" orient="auto" markerUnits="strokeWidth"><path d="M0,0 L8,4 L0,8 Z" fill="#1d1d1f"/></marker><style>text{font-family:Arial, Helvetica, sans-serif; fill:#111;}</style></defs><rect width="1800" height="1200" fill="#fff"/>
<text x="900.0" y="65" font-size="34" font-weight="700" text-anchor="middle">
<tspan x="900.0" dy="0">Engineering Evidence Ecosystem</tspan>
</text>
<text x="900.0" y="106" font-size="22" font-weight="400" text-anchor="middle">
<tspan x="900.0" dy="0">Repository memory connects evidence domains so decisions can be reconstructed, reviewed, and stewarded.</tspan>
</text>
<rect x="50" y="130" width="1700" height="980" rx="4" fill="#fff" stroke="#777" stroke-width="1.5"/>
<rect x="110" y="170" width="280" height="170" rx="6" fill="#f8f9fa" stroke="#222" stroke-width="2"/>
<rect x="111" y="171" width="278" height="50" rx="5" fill="#edf3ed" stroke="none"/>
<line x1="110" y1="222" x2="390" y2="222" stroke="#1d1d1f" stroke-width="1.3"/>
<text x="250.0" y="187" font-size="22" font-weight="700" text-anchor="middle">
<tspan x="250.0" dy="0">Construction</tspan>
<tspan x="250.0" dy="25">Evidence</tspan>
</text>
<text x="134" y="250" font-size="18" font-weight="400" text-anchor="start">
<tspan x="134" dy="0">• requirements</tspan>
</text>
<text x="134" y="279" font-size="18" font-weight="400" text-anchor="start">
<tspan x="134" dy="0">• issues and PRs</tspan>
</text>
<text x="134" y="308" font-size="18" font-weight="400" text-anchor="start">
<tspan x="134" dy="0">• reviews and tests</tspan>
</text>
<rect x="430" y="170" width="280" height="170" rx="6" fill="#f8f9fa" stroke="#222" stroke-width="2"/>
<rect x="431" y="171" width="278" height="50" rx="5" fill="#edf3ed" stroke="none"/>
<line x1="430" y1="222" x2="710" y2="222" stroke="#1d1d1f" stroke-width="1.3"/>
<text x="570.0" y="187" font-size="22" font-weight="700" text-anchor="middle">
<tspan x="570.0" dy="0">Release</tspan>
<tspan x="570.0" dy="25">Evidence</tspan>
</text>
<text x="454" y="250" font-size="18" font-weight="400" text-anchor="start">
<tspan x="454" dy="0">• readiness records</tspan>
</text>
<text x="454" y="279" font-size="18" font-weight="400" text-anchor="start">
<tspan x="454" dy="0">• limitations</tspan>
</text>
<text x="454" y="308" font-size="18" font-weight="400" text-anchor="start">
<tspan x="454" dy="0">• rollback notes</tspan>
</text>
<rect x="750" y="170" width="280" height="170" rx="6" fill="#f8f9fa" stroke="#222" stroke-width="2"/>
<rect x="751" y="171" width="278" height="50" rx="5" fill="#edf3ed" stroke="none"/>
<line x1="750" y1="222" x2="1030" y2="222" stroke="#1d1d1f" stroke-width="1.3"/>
<text x="890.0" y="187" font-size="22" font-weight="700" text-anchor="middle">
<tspan x="890.0" dy="0">Runtime</tspan>
<tspan x="890.0" dy="25">Evidence</tspan>
</text>
<text x="774" y="250" font-size="18" font-weight="400" text-anchor="start">
<tspan x="774" dy="0">• logs and metrics</tspan>
</text>
<text x="774" y="279" font-size="18" font-weight="400" text-anchor="start">
<tspan x="774" dy="0">• traces and alerts</tspan>
</text>
<text x="774" y="308" font-size="18" font-weight="400" text-anchor="start">
<tspan x="774" dy="0">• diagnostic signals</tspan>
</text>
<rect x="1070" y="170" width="280" height="170" rx="6" fill="#f8f9fa" stroke="#222" stroke-width="2"/>
<rect x="1071" y="171" width="278" height="50" rx="5" fill="#edf3ed" stroke="none"/>
<line x1="1070" y1="222" x2="1350" y2="222" stroke="#1d1d1f" stroke-width="1.3"/>
<text x="1210.0" y="187" font-size="22" font-weight="700" text-anchor="middle">
<tspan x="1210.0" dy="0">Incident</tspan>
<tspan x="1210.0" dy="25">Evidence</tspan>
</text>
<text x="1094" y="250" font-size="18" font-weight="400" text-anchor="start">
<tspan x="1094" dy="0">• timelines</tspan>
</text>
<text x="1094" y="279" font-size="18" font-weight="400" text-anchor="start">
<tspan x="1094" dy="0">• impact records</tspan>
</text>
<text x="1094" y="308" font-size="18" font-weight="400" text-anchor="start">
<tspan x="1094" dy="0">• postmortems</tspan>
</text>
<rect x="1390" y="170" width="280" height="170" rx="6" fill="#f8f9fa" stroke="#222" stroke-width="2"/>
<rect x="1391" y="171" width="278" height="50" rx="5" fill="#edf3ed" stroke="none"/>
<line x1="1390" y1="222" x2="1670" y2="222" stroke="#1d1d1f" stroke-width="1.3"/>
<text x="1530.0" y="187" font-size="22" font-weight="700" text-anchor="middle">
<tspan x="1530.0" dy="0">Governance</tspan>
<tspan x="1530.0" dy="25">Evidence</tspan>
</text>
<text x="1414" y="250" font-size="18" font-weight="400" text-anchor="start">
<tspan x="1414" dy="0">• policies</tspan>
</text>
<text x="1414" y="279" font-size="18" font-weight="400" text-anchor="start">
<tspan x="1414" dy="0">• authority records</tspan>
</text>
<text x="1414" y="308" font-size="18" font-weight="400" text-anchor="start">
<tspan x="1414" dy="0">• review decisions</tspan>
</text>
<rect x="110" y="780" width="280" height="170" rx="6" fill="#f8f9fa" stroke="#222" stroke-width="2"/>
<rect x="111" y="781" width="278" height="50" rx="5" fill="#edf3ed" stroke="none"/>
<line x1="110" y1="832" x2="390" y2="832" stroke="#1d1d1f" stroke-width="1.3"/>
<text x="250.0" y="797" font-size="22" font-weight="700" text-anchor="middle">
<tspan x="250.0" dy="0">AI</tspan>
<tspan x="250.0" dy="25">Evidence</tspan>
</text>
<text x="134" y="860" font-size="18" font-weight="400" text-anchor="start">
<tspan x="134" dy="0">• AI-use logs</tspan>
</text>
<text x="134" y="889" font-size="18" font-weight="400" text-anchor="start">
<tspan x="134" dy="0">• evaluation notes</tspan>
</text>
<text x="134" y="918" font-size="18" font-weight="400" text-anchor="start">
<tspan x="134" dy="0">• verification traces</tspan>
</text>
<rect x="430" y="780" width="280" height="170" rx="6" fill="#f8f9fa" stroke="#222" stroke-width="2"/>
<rect x="431" y="781" width="278" height="50" rx="5" fill="#edf3ed" stroke="none"/>
<line x1="430" y1="832" x2="710" y2="832" stroke="#1d1d1f" stroke-width="1.3"/>
<text x="570.0" y="797" font-size="22" font-weight="700" text-anchor="middle">
<tspan x="570.0" dy="0">Oversight</tspan>
<tspan x="570.0" dy="25">Evidence</tspan>
</text>
<text x="454" y="860" font-size="18" font-weight="400" text-anchor="start">
<tspan x="454" dy="0">• exceptions</tspan>
</text>
<text x="454" y="889" font-size="18" font-weight="400" text-anchor="start">
<tspan x="454" dy="0">• interventions</tspan>
</text>
<text x="454" y="918" font-size="18" font-weight="400" text-anchor="start">
<tspan x="454" dy="0">• escalations</tspan>
</text>
<rect x="750" y="780" width="280" height="170" rx="6" fill="#f8f9fa" stroke="#222" stroke-width="2"/>
<rect x="751" y="781" width="278" height="50" rx="5" fill="#edf3ed" stroke="none"/>
<line x1="750" y1="832" x2="1030" y2="832" stroke="#1d1d1f" stroke-width="1.3"/>
<text x="890.0" y="797" font-size="22" font-weight="700" text-anchor="middle">
<tspan x="890.0" dy="0">Context</tspan>
<tspan x="890.0" dy="25">Evidence</tspan>
</text>
<text x="774" y="860" font-size="18" font-weight="400" text-anchor="start">
<tspan x="774" dy="0">• source registry</tspan>
</text>
<text x="774" y="889" font-size="18" font-weight="400" text-anchor="start">
<tspan x="774" dy="0">• freshness notes</tspan>
</text>
<text x="774" y="918" font-size="18" font-weight="400" text-anchor="start">
<tspan x="774" dy="0">• permitted use</tspan>
</text>
<rect x="1070" y="780" width="280" height="170" rx="6" fill="#f8f9fa" stroke="#222" stroke-width="2"/>
<rect x="1071" y="781" width="278" height="50" rx="5" fill="#edf3ed" stroke="none"/>
<line x1="1070" y1="832" x2="1350" y2="832" stroke="#1d1d1f" stroke-width="1.3"/>
<text x="1210.0" y="797" font-size="22" font-weight="700" text-anchor="middle">
<tspan x="1210.0" dy="0">Understandability</tspan>
<tspan x="1210.0" dy="25">Evidence</tspan>
</text>
<text x="1094" y="860" font-size="18" font-weight="400" text-anchor="start">
<tspan x="1094" dy="0">• reviewer packets</tspan>
</text>
<text x="1094" y="889" font-size="18" font-weight="400" text-anchor="start">
<tspan x="1094" dy="0">• decision surfaces</tspan>
</text>
<text x="1094" y="918" font-size="18" font-weight="400" text-anchor="start">
<tspan x="1094" dy="0">• navigation guides</tspan>
</text>
<rect x="1390" y="780" width="280" height="170" rx="6" fill="#f8f9fa" stroke="#222" stroke-width="2"/>
<rect x="1391" y="781" width="278" height="50" rx="5" fill="#edf3ed" stroke="none"/>
<line x1="1390" y1="832" x2="1670" y2="832" stroke="#1d1d1f" stroke-width="1.3"/>
<text x="1530.0" y="797" font-size="22" font-weight="700" text-anchor="middle">
<tspan x="1530.0" dy="0">Stewardship</tspan>
<tspan x="1530.0" dy="25">Evidence</tspan>
</text>
<text x="1414" y="860" font-size="18" font-weight="400" text-anchor="start">
<tspan x="1414" dy="0">• owners</tspan>
</text>
<text x="1414" y="889" font-size="18" font-weight="400" text-anchor="start">
<tspan x="1414" dy="0">• refresh records</tspan>
</text>
<text x="1414" y="918" font-size="18" font-weight="400" text-anchor="start">
<tspan x="1414" dy="0">• retirement notes</tspan>
</text>
<rect x="150" y="430" width="1500" height="250" rx="8" fill="#eef5fb" stroke="#111827" stroke-width="3"/>
<text x="900.0" y="482" font-size="30" font-weight="700" text-anchor="middle">
<tspan x="900.0" dy="0">Repository-Centered Operational Memory</tspan>
</text>
<text x="900.0" y="522" font-size="22" font-weight="700" text-anchor="middle">
<tspan x="900.0" dy="0">Durable • Connected • Traceable • Reviewable • Governed</tspan>
</text>
<text x="900.0" y="570" font-size="22" font-weight="400" text-anchor="middle">
<tspan x="900.0" dy="0">The repository does not merely store artifacts.</tspan>
</text>
<text x="900.0" y="606" font-size="22" font-weight="400" text-anchor="middle">
<tspan x="900.0" dy="0">It preserves relationships among claims, evidence, decisions, owners, and learning.</tspan>
</text>
<text x="355" y="645" font-size="19" font-weight="700" text-anchor="middle">
<tspan x="355" dy="0">Findable</tspan>
</text>
<line x1="505" y1="620" x2="505" y2="663" stroke="#777" stroke-width="1"/>
<text x="575" y="645" font-size="19" font-weight="700" text-anchor="middle">
<tspan x="575" dy="0">Current</tspan>
</text>
<line x1="725" y1="620" x2="725" y2="663" stroke="#777" stroke-width="1"/>
<text x="795" y="645" font-size="19" font-weight="700" text-anchor="middle">
<tspan x="795" dy="0">Owned</tspan>
</text>
<line x1="945" y1="620" x2="945" y2="663" stroke="#777" stroke-width="1"/>
<text x="1015" y="645" font-size="19" font-weight="700" text-anchor="middle">
<tspan x="1015" dy="0">Linked</tspan>
</text>
<line x1="1165" y1="620" x2="1165" y2="663" stroke="#777" stroke-width="1"/>
<text x="1235" y="645" font-size="19" font-weight="700" text-anchor="middle">
<tspan x="1235" dy="0">Challengeable</tspan>
</text>
<line x1="1385" y1="620" x2="1385" y2="663" stroke="#777" stroke-width="1"/>
<text x="1455" y="645" font-size="19" font-weight="700" text-anchor="middle">
<tspan x="1455" dy="0">Reusable</tspan>
</text>
<line x1="250.0" y1="340" x2="250.0" y2="422" stroke="#1d1d1f" stroke-width="2.1" marker-end="url(#arrow)"/>
<line x1="570.0" y1="340" x2="570.0" y2="422" stroke="#1d1d1f" stroke-width="2.1" marker-end="url(#arrow)"/>
<line x1="890.0" y1="340" x2="890.0" y2="422" stroke="#1d1d1f" stroke-width="2.1" marker-end="url(#arrow)"/>
<line x1="1210.0" y1="340" x2="1210.0" y2="422" stroke="#1d1d1f" stroke-width="2.1" marker-end="url(#arrow)"/>
<line x1="1530.0" y1="340" x2="1530.0" y2="422" stroke="#1d1d1f" stroke-width="2.1" marker-end="url(#arrow)"/>
<line x1="250.0" y1="680" x2="250.0" y2="772" stroke="#1d1d1f" stroke-width="2.1" marker-end="url(#arrow)"/>
<line x1="570.0" y1="680" x2="570.0" y2="772" stroke="#1d1d1f" stroke-width="2.1" marker-end="url(#arrow)"/>
<line x1="890.0" y1="680" x2="890.0" y2="772" stroke="#1d1d1f" stroke-width="2.1" marker-end="url(#arrow)"/>
<line x1="1210.0" y1="680" x2="1210.0" y2="772" stroke="#1d1d1f" stroke-width="2.1" marker-end="url(#arrow)"/>
<line x1="1530.0" y1="680" x2="1530.0" y2="772" stroke="#1d1d1f" stroke-width="2.1" marker-end="url(#arrow)"/>
<rect x="300" y="1010" width="1200" height="75" rx="6" fill="#fffaf0" stroke="#222" stroke-width="2"/>
<text x="900.0" y="1040" font-size="25" font-weight="700" text-anchor="middle">
<tspan x="900.0" dy="0">Trustworthy Engineering Decisions</tspan>
</text>
<text x="900.0" y="1070" font-size="20" font-weight="400" text-anchor="middle">
<tspan x="900.0" dy="0">Claims can be reconstructed, reviewed, governed, recovered, learned from, and stewarded over time.</tspan>
</text>
<line x1="730" y1="680" x2="730" y2="1002" stroke="#1d1d1f" stroke-width="2.4" marker-end="url(#arrow)"/>
<text x="900.0" y="1145" font-size="23" font-weight="700" text-anchor="middle">
<tspan x="900.0" dy="0">Repository memory is an ecosystem, not a pile of files.</tspan>
</text>
</svg>