<svg xmlns="http://www.w3.org/2000/svg" width="2600" height="1650" viewBox="0 0 2600 1650">
<rect width="100%" height="100%" fill="#FFFFFF"/>

<style>
  .centerTitle { font-family: Arial, Helvetica, sans-serif; font-size:64px; font-weight: 700; fill: #0B1F3A; }
  .pillar { font-family: Arial, Helvetica, sans-serif; font-size:38px; font-weight: 700; }
  .domain { font-family: Arial, Helvetica, sans-serif; font-size:36px; font-weight: 700; fill: #0B1F3A; }
  .domainSmall { font-family: Arial, Helvetica, sans-serif; font-size:28px; fill: #4B5563; }
</style>

<!-- Framework field -->
<ellipse cx="1300" cy="770" rx="910" ry="570" fill="#F8FAFC" stroke="#CBD5E1" stroke-width="3"/>
<ellipse cx="1300" cy="770" rx="690" ry="430" fill="#FFFFFF" stroke="#E2E8F0" stroke-width="3"/>

<!-- connecting lines -->
<line x1="1300" y1="770" x2="560" y2="260" stroke="#CBD5E1" stroke-width="3"/>
<line x1="1300" y1="770" x2="1010" y2="205" stroke="#CBD5E1" stroke-width="3"/>
<line x1="1300" y1="770" x2="1590" y2="205" stroke="#CBD5E1" stroke-width="3"/>
<line x1="1300" y1="770" x2="2040" y2="260" stroke="#CBD5E1" stroke-width="3"/>
<line x1="1300" y1="770" x2="2140" y2="720" stroke="#CBD5E1" stroke-width="3"/>
<line x1="1300" y1="770" x2="1850" y2="1190" stroke="#CBD5E1" stroke-width="3"/>
<line x1="1300" y1="770" x2="1300" y2="1320" stroke="#CBD5E1" stroke-width="3"/>
<line x1="1300" y1="770" x2="750" y2="1190" stroke="#CBD5E1" stroke-width="3"/>
<line x1="1300" y1="770" x2="460" y2="720" stroke="#CBD5E1" stroke-width="3"/>
<line x1="1300" y1="770" x2="1300" y2="420" stroke="#CBD5E1" stroke-width="3"/>

<circle cx="1300" cy="770" r="245" fill="#FFFFFF" stroke="#0B1F3A" stroke-width="5"/>
<text x="1300" y="690" text-anchor="middle" dominant-baseline="middle" class="centerTitle">Trustworthy</text>
<text x="1300" y="770" text-anchor="middle" dominant-baseline="middle" class="centerTitle">Intelligent</text>
<text x="1300" y="850" text-anchor="middle" dominant-baseline="middle" class="centerTitle">System</text>
<rect x="365.0" y="195.0" width="390" height="130" rx="22" fill="#FFFFFF" stroke="#1E3A8A" stroke-width="4"/>
<text x="560" y="249" text-anchor="middle" dominant-baseline="middle" class="pillar" fill="#1E3A8A">Correctness</text>
<rect x="815.0" y="140.0" width="390" height="130" rx="22" fill="#FFFFFF" stroke="#1E3A8A" stroke-width="4"/>
<text x="1010" y="194" text-anchor="middle" dominant-baseline="middle" class="pillar" fill="#1E3A8A">Traceability</text>
<rect x="1395.0" y="140.0" width="390" height="130" rx="22" fill="#FFFFFF" stroke="#1E3A8A" stroke-width="4"/>
<text x="1590" y="194" text-anchor="middle" dominant-baseline="middle" class="pillar" fill="#1E3A8A">Reviewability</text>
<rect x="1845.0" y="195.0" width="390" height="130" rx="22" fill="#FFFFFF" stroke="#1E3A8A" stroke-width="4"/>
<text x="2040" y="249" text-anchor="middle" dominant-baseline="middle" class="pillar" fill="#1E3A8A">Observability</text>
<rect x="1945.0" y="655.0" width="390" height="130" rx="22" fill="#FFFFFF" stroke="#92400E" stroke-width="4"/>
<text x="2140" y="709" text-anchor="middle" dominant-baseline="middle" class="pillar" fill="#92400E">Governability</text>
<rect x="1655.0" y="1125.0" width="390" height="130" rx="22" fill="#FFFFFF" stroke="#92400E" stroke-width="4"/>
<text x="1850" y="1179" text-anchor="middle" dominant-baseline="middle" class="pillar" fill="#92400E">Recoverability</text>
<rect x="1105.0" y="1255.0" width="390" height="130" rx="22" fill="#FFFFFF" stroke="#991B1B" stroke-width="4"/>
<text x="1300" y="1309" text-anchor="middle" dominant-baseline="middle" class="pillar" fill="#991B1B">Security</text>
<rect x="555.0" y="1125.0" width="390" height="130" rx="22" fill="#FFFFFF" stroke="#166534" stroke-width="4"/>
<text x="750" y="1179" text-anchor="middle" dominant-baseline="middle" class="pillar" fill="#166534">Accountability</text>
<rect x="265.0" y="655.0" width="390" height="130" rx="22" fill="#FFFFFF" stroke="#166534" stroke-width="4"/>
<text x="460" y="696" text-anchor="middle" dominant-baseline="middle" class="pillar" fill="#166534">Operational</text>
<text x="460" y="738" text-anchor="middle" dominant-baseline="middle" class="pillar" fill="#166534">Visibility</text>
<rect x="1105.0" y="355.0" width="390" height="130" rx="22" fill="#FFFFFF" stroke="#6B21A8" stroke-width="4"/>
<text x="1300" y="396" text-anchor="middle" dominant-baseline="middle" class="pillar" fill="#6B21A8">Human</text>
<text x="1300" y="438" text-anchor="middle" dominant-baseline="middle" class="pillar" fill="#6B21A8">Oversight</text>

<rect x="170" y="1490" width="2260" height="105" rx="20" fill="#F8FAFC" stroke="#94A3B8" stroke-width="3"/>

<text x="455" y="1530" text-anchor="middle" class="domain">Technical</text>
<text x="455" y="1566" text-anchor="middle" class="domainSmall">behavior and evidence</text>

<line x1="735" y1="1510" x2="735" y2="1578" stroke="#CBD5E1" stroke-width="3"/>

<text x="1025" y="1530" text-anchor="middle" class="domain">Operational</text>
<text x="1025" y="1566" text-anchor="middle" class="domainSmall">visibility and recovery</text>

<line x1="1300" y1="1510" x2="1300" y2="1578" stroke="#CBD5E1" stroke-width="3"/>

<text x="1585" y="1530" text-anchor="middle" class="domain">Governance</text>
<text x="1585" y="1566" text-anchor="middle" class="domainSmall">authority and control</text>

<line x1="1865" y1="1510" x2="1865" y2="1578" stroke="#CBD5E1" stroke-width="3"/>

<text x="2155" y="1530" text-anchor="middle" class="domain">Human</text>
<text x="2155" y="1566" text-anchor="middle" class="domainSmall">judgment and ownership</text>
</svg>
