<?xml version="1.0" encoding="UTF-8"?>
<svg xmlns="http://www.w3.org/2000/svg" width="1200" height="900" viewBox="0 0 1200 900">
<style>
.label{font-family:Arial,sans-serif;fill:#1f2933}
.top{fill:#eef3f7;stroke:#334e68;stroke-width:3}
.domain{fill:#ffffff;stroke:#52616b;stroke-width:2.2}
.account{fill:#f4f7f9;stroke:#3f4a54;stroke-width:2.6}
.outcome{fill:#e8f1ec;stroke:#355e4b;stroke-width:2.8}
</style>

<rect x="300" y="35" width="600" height="82" rx="14" ry="14" class="top"/>
<text x="600" y="88" text-anchor="middle" font-size="34" font-weight="700" class="label">Intelligent-System Activity</text>

<rect x="90" y="175" width="420" height="82" rx="14" ry="14" class="top"/>
<text x="300" y="228" text-anchor="middle" font-size="32" font-weight="700" class="label">Runtime Evidence</text>

<rect x="690" y="175" width="420" height="82" rx="14" ry="14" class="top"/>
<text x="900" y="228" text-anchor="middle" font-size="32" font-weight="700" class="label">Repository Evidence</text>

<rect x="90" y="300" width="420" height="76" rx="12" ry="12" class="domain"/>
<text x="300" y="348" text-anchor="middle" font-size="29" font-weight="700" class="label">Recommendations</text>

<rect x="690" y="300" width="420" height="76" rx="12" ry="12" class="domain"/>
<text x="900" y="348" text-anchor="middle" font-size="29" font-weight="700" class="label">Context Rules</text>

<rect x="90" y="410" width="420" height="76" rx="12" ry="12" class="domain"/>
<text x="300" y="458" text-anchor="middle" font-size="30" font-weight="700" class="label">Approvals</text>

<rect x="690" y="410" width="420" height="76" rx="12" ry="12" class="domain"/>
<text x="900" y="458" text-anchor="middle" font-size="25" font-weight="700" class="label">Authority Decisions</text>

<rect x="90" y="520" width="420" height="76" rx="12" ry="12" class="domain"/>
<text x="300" y="568" text-anchor="middle" font-size="30" font-weight="700" class="label">Overrides</text>

<rect x="690" y="520" width="420" height="76" rx="12" ry="12" class="domain"/>
<text x="900" y="568" text-anchor="middle" font-size="30" font-weight="700" class="label">ADRs</text>

<rect x="230" y="670" width="740" height="94" rx="14" ry="14" class="account"/>
<text x="600" y="730" text-anchor="middle" font-size="38" font-weight="700" class="label">Reviewable Accountability</text>

<rect x="330" y="805" width="540" height="76" rx="14" ry="14" class="outcome"/>
<text x="600" y="853" text-anchor="middle" font-size="32" font-weight="700" class="label">Trustworthy Operation</text>

</svg>
