<?xml version="1.0" encoding="UTF-8"?>
<svg xmlns="http://www.w3.org/2000/svg" width="1200" height="900" viewBox="0 0 1200 900">
<style>
.label{font-family:Arial,sans-serif;fill:#1f2933}
.boundary{fill:#eef3f7;stroke:#334e68;stroke-width:3}
.detail{fill:#ffffff;stroke:#52616b;stroke-width:2.2}
.control{fill:#f4f7f9;stroke:#3f4a54;stroke-width:2.6}
.level{fill:#eef3f7;stroke:#334e68;stroke-width:2.4}
.outcome{fill:#e8f1ec;stroke:#355e4b;stroke-width:2.8}
</style>

<rect x="90" y="35" width="450" height="82" rx="14" ry="14" class="boundary"/>
<text x="315" y="88" text-anchor="middle" font-size="34" font-weight="700" class="label">AI Boundary</text>

<rect x="660" y="35" width="450" height="82" rx="14" ry="14" class="boundary"/>
<text x="885" y="88" text-anchor="middle" font-size="34" font-weight="700" class="label">Authority Boundary</text>

<rect x="90" y="170" width="450" height="76" rx="12" ry="12" class="detail"/>
<text x="315" y="218" text-anchor="middle" font-size="30" font-weight="700" class="label">Input</text>

<rect x="660" y="170" width="450" height="76" rx="12" ry="12" class="detail"/>
<text x="885" y="218" text-anchor="middle" font-size="30" font-weight="700" class="label">Approval</text>

<rect x="90" y="280" width="450" height="76" rx="12" ry="12" class="detail"/>
<text x="315" y="328" text-anchor="middle" font-size="30" font-weight="700" class="label">Recommendation</text>

<rect x="660" y="280" width="450" height="76" rx="12" ry="12" class="detail"/>
<text x="885" y="328" text-anchor="middle" font-size="30" font-weight="700" class="label">Override</text>

<rect x="90" y="390" width="450" height="76" rx="12" ry="12" class="detail"/>
<text x="315" y="438" text-anchor="middle" font-size="30" font-weight="700" class="label">Rationale</text>

<rect x="660" y="390" width="450" height="76" rx="12" ry="12" class="detail"/>
<text x="885" y="438" text-anchor="middle" font-size="30" font-weight="700" class="label">Decision</text>

<rect x="260" y="540" width="680" height="92" rx="14" ry="14" class="control"/>
<text x="600" y="598" text-anchor="middle" font-size="38" font-weight="700" class="label">Risk-Based Delegation</text>

<rect x="20" y="700" width="270" height="82" rx="12" ry="12" class="level"/>
<text x="155" y="752" text-anchor="middle" font-size="28" font-weight="700" class="label">Assistive</text>

<rect x="310" y="700" width="270" height="82" rx="12" ry="12" class="level"/>
<text x="445" y="752" text-anchor="middle" font-size="26" font-weight="700" class="label">Recommendation</text>

<rect x="600" y="700" width="280" height="82" rx="12" ry="12" class="level"/>
<text x="740" y="752" text-anchor="middle" font-size="24" font-weight="700" class="label">Human Approved</text>

<rect x="900" y="700" width="280" height="82" rx="12" ry="12" class="level"/>
<text x="1040" y="752" text-anchor="middle" font-size="24" font-weight="700" class="label">Bounded Automation</text>

<rect x="330" y="820" width="540" height="70" rx="14" ry="14" class="outcome"/>
<text x="600" y="865" text-anchor="middle" font-size="32" font-weight="700" class="label">Accountable Outcome</text>

</svg>
