<?xml version="1.0" encoding="UTF-8"?>
<svg xmlns="http://www.w3.org/2000/svg" width="1200" height="840" viewBox="0 0 1200 840">
<style>
.label{font-family:Arial,sans-serif;fill:#1f2933}
.top{fill:#eef3f7;stroke:#334e68;stroke-width:3}
.domain{fill:#ffffff;stroke:#52616b;stroke-width:2.2}
.review{fill:#f4f7f9;stroke:#3f4a54;stroke-width:2.6}
.output{fill:#eef3f7;stroke:#334e68;stroke-width:2.4}
.outcome{fill:#e8f1ec;stroke:#355e4b;stroke-width:2.8}
</style>

<rect x="250" y="35" width="700" height="84" rx="14" ry="14" class="top"/>
<text x="600" y="89" text-anchor="middle" font-size="34" font-weight="700" class="label">Proposed Intelligent Capability</text>

<rect x="40" y="190" width="260" height="82" rx="12" ry="12" class="domain"/>
<text x="170" y="243" text-anchor="middle" font-size="30" font-weight="700" class="label">Capability</text>

<rect x="320" y="190" width="260" height="82" rx="12" ry="12" class="domain"/>
<text x="450" y="243" text-anchor="middle" font-size="30" font-weight="700" class="label">Control</text>

<rect x="600" y="190" width="260" height="82" rx="12" ry="12" class="domain"/>
<text x="730" y="243" text-anchor="middle" font-size="30" font-weight="700" class="label">Evidence</text>

<rect x="880" y="190" width="280" height="82" rx="12" ry="12" class="domain"/>
<text x="1020" y="243" text-anchor="middle" font-size="29" font-weight="700" class="label">Governance</text>

<rect x="190" y="355" width="820" height="100" rx="14" ry="14" class="review"/>
<text x="600" y="410" text-anchor="middle" font-size="34" font-weight="700" class="label">Intelligent Systems Architecture</text>
<text x="600" y="445" text-anchor="middle" font-size="34" font-weight="700" class="label">Readiness Review</text>

<rect x="70" y="550" width="300" height="84" rx="12" ry="12" class="output"/>
<text x="220" y="603" text-anchor="middle" font-size="28" font-weight="700" class="label">Constraints</text>

<rect x="450" y="550" width="300" height="84" rx="12" ry="12" class="output"/>
<text x="600" y="603" text-anchor="middle" font-size="30" font-weight="700" class="label">ADRs</text>

<rect x="830" y="550" width="300" height="84" rx="12" ry="12" class="output"/>
<text x="980" y="603" text-anchor="middle" font-size="27" font-weight="700" class="label">Risk Findings</text>

<rect x="330" y="710" width="540" height="86" rx="14" ry="14" class="outcome"/>
<text x="600" y="765" text-anchor="middle" font-size="34" font-weight="700" class="label">Proceed Decision</text>

</svg>
