<svg xmlns="http://www.w3.org/2000/svg" width="2280" height="1500" viewBox="60 205.429 2280 1289.14">
<defs>
  <marker id="arrow" markerWidth="12" markerHeight="12" refX="10" refY="6" orient="auto" markerUnits="strokeWidth">
    <path d="M2,2 L10,6 L2,10 Z" fill="#667085"/>
  </marker>
</defs>
<rect x="0" y="0" width="2500" height="1750" fill="#ffffff"/>

<rect x="790" y="470" width="760" height="390" rx="28" fill="#f8fafc" stroke="#17324d" stroke-width="4"/>
<text x="1170.0" y="560" text-anchor="middle" style="font-family:Arial, Helvetica, sans-serif;font-size:44px;font-weight:700;fill:#17324d;">
<tspan x="1170.0" dy="0">Pull Request</tspan>
</text>
<text x="1170.0" y="610" text-anchor="middle" style="font-family:Arial, Helvetica, sans-serif;font-size:40px;font-weight:700;fill:#17324d;">
<tspan x="1170.0" dy="0">Review Surface</tspan>
</text>
<line x1="880" y1="648" x2="1460" y2="648" stroke="#94a3b8" stroke-width="3"/>
<text x="1170.0" y="715" text-anchor="middle" style="font-family:Arial, Helvetica, sans-serif;font-size:35px;font-weight:700;fill:#172033;">
<tspan x="1170.0" dy="0">Presents a change as</tspan>
<tspan x="1170.0" dy="39.6px">a claim to inspect</tspan>
</text>
<text x="1170.0" y="815" text-anchor="middle" style="font-family:Arial, Helvetica, sans-serif;font-size:33px;font-weight:700;fill:#334155;">
<tspan x="1170.0" dy="0">Evidence, risk, and judgment</tspan>
<tspan x="1170.0" dy="37.199999999999996px">must be visible before merge</tspan>
</text>
<rect x="80" y="120" width="560" height="285" rx="22" fill="#f4f8fd" stroke="#1e3a5f" stroke-width="3"/>
<rect x="104" y="144" width="512" height="76" rx="14" fill="#f8fafc" stroke="#1e3a5f" stroke-width="2"/>
<text x="360.0" y="192" text-anchor="middle" style="font-family:Arial, Helvetica, sans-serif;font-size:33px;font-weight:700;fill:#1e3a5f;">
<tspan x="360.0" dy="0">Change Purpose</tspan>
</text>
<circle cx="138" cy="262" r="6.5" fill="#1e3a5f"/>
<text x="170" y="272" text-anchor="start" style="font-family:Arial, Helvetica, sans-serif;font-size:31px;font-weight:600;fill:#172033;">
<tspan x="170" dy="0">What changed</tspan>
</text>
<circle cx="138" cy="318" r="6.5" fill="#1e3a5f"/>
<text x="170" y="328" text-anchor="start" style="font-family:Arial, Helvetica, sans-serif;font-size:31px;font-weight:600;fill:#172033;">
<tspan x="170" dy="0">Why it changed</tspan>
</text>
<rect x="80" y="520" width="560" height="285" rx="22" fill="#f7f8fa" stroke="#3f4a5a" stroke-width="3"/>
<rect x="104" y="544" width="512" height="76" rx="14" fill="#f8fafc" stroke="#3f4a5a" stroke-width="2"/>
<text x="360.0" y="592" text-anchor="middle" style="font-family:Arial, Helvetica, sans-serif;font-size:33px;font-weight:700;fill:#3f4a5a;">
<tspan x="360.0" dy="0">Traceability</tspan>
</text>
<circle cx="138" cy="662" r="6.5" fill="#3f4a5a"/>
<text x="170" y="672" text-anchor="start" style="font-family:Arial, Helvetica, sans-serif;font-size:31px;font-weight:600;fill:#172033;">
<tspan x="170" dy="0">Issue</tspan>
</text>
<circle cx="138" cy="718" r="6.5" fill="#3f4a5a"/>
<text x="170" y="728" text-anchor="start" style="font-family:Arial, Helvetica, sans-serif;font-size:31px;font-weight:600;fill:#172033;">
<tspan x="170" dy="0">Requirement</tspan>
</text>
<rect x="80" y="920" width="560" height="285" rx="22" fill="#f5faf7" stroke="#2e5b46" stroke-width="3"/>
<rect x="104" y="944" width="512" height="76" rx="14" fill="#f8fafc" stroke="#2e5b46" stroke-width="2"/>
<text x="360.0" y="992" text-anchor="middle" style="font-family:Arial, Helvetica, sans-serif;font-size:33px;font-weight:700;fill:#2e5b46;">
<tspan x="360.0" dy="0">Verification</tspan>
</text>
<circle cx="138" cy="1062" r="6.5" fill="#2e5b46"/>
<text x="170" y="1072" text-anchor="start" style="font-family:Arial, Helvetica, sans-serif;font-size:31px;font-weight:600;fill:#172033;">
<tspan x="170" dy="0">Tests run</tspan>
</text>
<circle cx="138" cy="1118" r="6.5" fill="#2e5b46"/>
<text x="170" y="1128" text-anchor="start" style="font-family:Arial, Helvetica, sans-serif;font-size:31px;font-weight:600;fill:#172033;">
<tspan x="170" dy="0">Supporting evidence</tspan>
</text>
<rect x="1700" y="120" width="620" height="285" rx="22" fill="#fbfaf2" stroke="#66521f" stroke-width="3"/>
<rect x="1724" y="144" width="572" height="76" rx="14" fill="#f8fafc" stroke="#66521f" stroke-width="2"/>
<text x="2010.0" y="192" text-anchor="middle" style="font-family:Arial, Helvetica, sans-serif;font-size:33px;font-weight:700;fill:#66521f;">
<tspan x="2010.0" dy="0">AI Disclosure</tspan>
</text>
<circle cx="1758" cy="262" r="6.5" fill="#66521f"/>
<text x="1790" y="272" text-anchor="start" style="font-family:Arial, Helvetica, sans-serif;font-size:31px;font-weight:600;fill:#172033;">
<tspan x="1790" dy="0">AI assistance used</tspan>
</text>
<circle cx="1758" cy="318" r="6.5" fill="#66521f"/>
<text x="1790" y="328" text-anchor="start" style="font-family:Arial, Helvetica, sans-serif;font-size:31px;font-weight:600;fill:#172033;">
<tspan x="1790" dy="0">Human verification</tspan>
</text>
<rect x="1700" y="520" width="620" height="285" rx="22" fill="#fff7f7" stroke="#7a3e3e" stroke-width="3"/>
<rect x="1724" y="544" width="572" height="76" rx="14" fill="#f8fafc" stroke="#7a3e3e" stroke-width="2"/>
<text x="2010.0" y="592" text-anchor="middle" style="font-family:Arial, Helvetica, sans-serif;font-size:33px;font-weight:700;fill:#7a3e3e;">
<tspan x="2010.0" dy="0">Risk and Governance</tspan>
</text>
<circle cx="1758" cy="662" r="6.5" fill="#7a3e3e"/>
<text x="1790" y="672" text-anchor="start" style="font-family:Arial, Helvetica, sans-serif;font-size:31px;font-weight:600;fill:#172033;">
<tspan x="1790" dy="0">Remaining risks</tspan>
</text>
<circle cx="1758" cy="718" r="6.5" fill="#7a3e3e"/>
<text x="1790" y="728" text-anchor="start" style="font-family:Arial, Helvetica, sans-serif;font-size:31px;font-weight:600;fill:#172033;">
<tspan x="1790" dy="0">Governance concerns</tspan>
</text>
<rect x="1700" y="920" width="620" height="285" rx="22" fill="#f7f6fb" stroke="#473b71" stroke-width="3"/>
<rect x="1724" y="944" width="572" height="76" rx="14" fill="#f8fafc" stroke="#473b71" stroke-width="2"/>
<text x="2010.0" y="992" text-anchor="middle" style="font-family:Arial, Helvetica, sans-serif;font-size:33px;font-weight:700;fill:#473b71;">
<tspan x="2010.0" dy="0">Documentation and Limits</tspan>
</text>
<circle cx="1758" cy="1062" r="6.5" fill="#473b71"/>
<text x="1790" y="1072" text-anchor="start" style="font-family:Arial, Helvetica, sans-serif;font-size:31px;font-weight:600;fill:#172033;">
<tspan x="1790" dy="0">Documentation updates</tspan>
</text>
<circle cx="1758" cy="1118" r="6.5" fill="#473b71"/>
<text x="1790" y="1128" text-anchor="start" style="font-family:Arial, Helvetica, sans-serif;font-size:31px;font-weight:600;fill:#172033;">
<tspan x="1790" dy="0">Known limitations</tspan>
</text>
<line x1="640" y1="262" x2="790" y2="545" stroke="#667085" stroke-width="3" marker-end="url(#arrow)"/>
<line x1="640" y1="662" x2="790" y2="665" stroke="#667085" stroke-width="3" marker-end="url(#arrow)"/>
<line x1="640" y1="1062" x2="790" y2="785" stroke="#667085" stroke-width="3" marker-end="url(#arrow)"/>
<line x1="1700" y1="262" x2="1550" y2="545" stroke="#667085" stroke-width="3" marker-end="url(#arrow)"/>
<line x1="1700" y1="662" x2="1550" y2="665" stroke="#667085" stroke-width="3" marker-end="url(#arrow)"/>
<line x1="1700" y1="1062" x2="1550" y2="785" stroke="#667085" stroke-width="3" marker-end="url(#arrow)"/>
<rect x="940" y="930" width="460" height="240" rx="22" fill="#f5faf7" stroke="#2e5b46" stroke-width="3"/>
<text x="1170.0" y="998" text-anchor="middle" style="font-family:Arial, Helvetica, sans-serif;font-size:34px;font-weight:700;fill:#2e5b46;">
<tspan x="1170.0" dy="0">Reviewed Change</tspan>
</text>
<line x1="1000" y1="1026" x2="1340" y2="1026" stroke="#94a3b8" stroke-width="3"/>
<text x="1170.0" y="1075" text-anchor="middle" style="font-family:Arial, Helvetica, sans-serif;font-size:30px;font-weight:600;fill:#172033;">
<tspan x="1170.0" dy="0">Accepted</tspan>
</text>
<text x="1170.0" y="1112" text-anchor="middle" style="font-family:Arial, Helvetica, sans-serif;font-size:30px;font-weight:600;fill:#172033;">
<tspan x="1170.0" dy="0">Revised</tspan>
</text>
<text x="1170.0" y="1149" text-anchor="middle" style="font-family:Arial, Helvetica, sans-serif;font-size:30px;font-weight:600;fill:#172033;">
<tspan x="1170.0" dy="0">Rejected</tspan>
</text>
<line x1="1170.0" y1="860" x2="1170.0" y2="930" stroke="#667085" stroke-width="3" marker-end="url(#arrow)"/>
<rect x="270" y="1265" width="1960" height="130" rx="18" fill="#f8fafc" stroke="#17324d" stroke-width="3"/>
<text x="1250.0" y="1311" text-anchor="middle" style="font-family:Arial, Helvetica, sans-serif;font-size:35px;font-weight:700;fill:#17324d;">
<tspan x="1250.0" dy="0">Reviewer Questions</tspan>
</text>
<text x="1250.0" y="1357" text-anchor="middle" style="font-family:Arial, Helvetica, sans-serif;font-size:31px;font-weight:700;fill:#172033;">
<tspan x="1250.0" dy="0">Does this match the requirement?  Does evidence support the claim?  Did AI influence the work?</tspan>
</text>
<text x="1250.0" y="1389" text-anchor="middle" style="font-family:Arial, Helvetica, sans-serif;font-size:31px;font-weight:700;fill:#172033;">
<tspan x="1250.0" dy="0">What risk remains?  What should be documented?</tspan>
</text>
<rect x="270" y="1460" width="1960" height="120" rx="18" fill="#fffdf7" stroke="#17324d" stroke-width="3"/>
<text x="615" y="1534" text-anchor="middle" style="font-family:Arial, Helvetica, sans-serif;font-size:32px;font-weight:700;fill:#17324d;">
<tspan x="615" dy="0">GOVERNING PRINCIPLE:</tspan>
</text>
<line x1="910" y1="1488" x2="910" y2="1552" stroke="#667085" stroke-width="3"/>
<text x="1590" y="1534" text-anchor="middle" style="font-family:Arial, Helvetica, sans-serif;font-size:33px;font-weight:700;fill:#172033;">
<tspan x="1590" dy="0">Review protects engineering memory before change becomes part of the baseline.</tspan>
</text>
</svg>