<svg xmlns="http://www.w3.org/2000/svg" width="2940" height="1021" viewBox="30 309 2940 1021">
<defs>
<marker id="arrow" markerWidth="12" markerHeight="12" refX="10" refY="6" orient="auto" markerUnits="strokeWidth">
<path d="M2,2 L10,6 L2,10 Z" fill="#667085"/>
</marker>
</defs>
<rect width="100%" height="100%" fill="white"/>

<rect x="90" y="430" width="350" height="210" rx="22" fill="#f4f8fd" stroke="#1e3a5f" stroke-width="3"/>
<text x="265.0" y="494" text-anchor="middle" style="font-family:Arial, Helvetica, sans-serif;font-size:40px;font-weight:700;fill:#1e3a5f;">
<tspan x="265.0" dy="0">Engineering Need</tspan>
</text>
<line x1="145" y1="522" x2="385" y2="522" stroke="#94a3b8" stroke-width="3"/>
<text x="265.0" y="572" text-anchor="middle" style="font-family:Arial, Helvetica, sans-serif;font-size:30px;font-weight:600;fill:#172033;">
<tspan x="265.0" dy="0">Stakeholder need</tspan>
</text>
<text x="265.0" y="610" text-anchor="middle" style="font-family:Arial, Helvetica, sans-serif;font-size:30px;font-weight:600;fill:#172033;">
<tspan x="265.0" dy="0">Requirement</tspan>
</text>
<rect x="2560" y="430" width="350" height="230" rx="22" fill="#f5faf7" stroke="#2e5b46" stroke-width="3"/>
<text x="2735.0" y="494" text-anchor="middle" style="font-family:Arial, Helvetica, sans-serif;font-size:40px;font-weight:700;fill:#2e5b46;">
<tspan x="2735.0" dy="0">Engineering Claim</tspan>
</text>
<line x1="2615" y1="522" x2="2855" y2="522" stroke="#94a3b8" stroke-width="3"/>
<text x="2735.0" y="572" text-anchor="middle" style="font-family:Arial, Helvetica, sans-serif;font-size:29px;font-weight:600;fill:#172033;">
<tspan x="2735.0" dy="0">Feature implemented</tspan>
</text>
<text x="2735.0" y="608" text-anchor="middle" style="font-family:Arial, Helvetica, sans-serif;font-size:29px;font-weight:600;fill:#172033;">
<tspan x="2735.0" dy="0">Behavior verified</tspan>
</text>
<text x="2735.0" y="644" text-anchor="middle" style="font-family:Arial, Helvetica, sans-serif;font-size:29px;font-weight:600;fill:#172033;">
<tspan x="2735.0" dy="0">Release defended</tspan>
</text>
<rect x="540" y="430" width="155" height="100" rx="16" fill="#f8fafc" stroke="#17324d" stroke-width="3"/>
<text x="617.5" y="490.0" text-anchor="middle" style="font-family:Arial, Helvetica, sans-serif;font-size:36px;font-weight:700;fill:#17324d;">
<tspan x="617.5" dy="0">Issue</tspan>
</text>
<rect x="770" y="430" width="155" height="100" rx="16" fill="#f8fafc" stroke="#17324d" stroke-width="3"/>
<text x="847.5" y="490.0" text-anchor="middle" style="font-family:Arial, Helvetica, sans-serif;font-size:30px;font-weight:700;fill:#17324d;">
<tspan x="847.5" dy="0">Branch</tspan>
</text>
<rect x="1000" y="430" width="165" height="100" rx="16" fill="#f8fafc" stroke="#17324d" stroke-width="3"/>
<text x="1082.5" y="490.0" text-anchor="middle" style="font-family:Arial, Helvetica, sans-serif;font-size:30px;font-weight:700;fill:#17324d;">
<tspan x="1082.5" dy="0">Commits</tspan>
</text>
<rect x="1245" y="430" width="190" height="100" rx="16" fill="#f8fafc" stroke="#17324d" stroke-width="3"/>
<text x="1340.0" y="490.0" text-anchor="middle" style="font-family:Arial, Helvetica, sans-serif;font-size:30px;font-weight:700;fill:#17324d;">
<tspan x="1340.0" dy="0">Pull Request</tspan>
</text>
<rect x="1515" y="430" width="155" height="100" rx="16" fill="#f8fafc" stroke="#17324d" stroke-width="3"/>
<text x="1592.5" y="490.0" text-anchor="middle" style="font-family:Arial, Helvetica, sans-serif;font-size:30px;font-weight:700;fill:#17324d;">
<tspan x="1592.5" dy="0">Review</tspan>
</text>
<rect x="1745" y="430" width="155" height="100" rx="16" fill="#f8fafc" stroke="#17324d" stroke-width="3"/>
<text x="1822.5" y="490.0" text-anchor="middle" style="font-family:Arial, Helvetica, sans-serif;font-size:30px;font-weight:700;fill:#17324d;">
<tspan x="1822.5" dy="0">Tests</tspan>
</text>
<rect x="1975" y="430" width="200" height="100" rx="16" fill="#f8fafc" stroke="#17324d" stroke-width="3"/>
<text x="2075.0" y="490.0" text-anchor="middle" style="font-family:Arial, Helvetica, sans-serif;font-size:30px;font-weight:700;fill:#17324d;">
<tspan x="2075.0" dy="0">AI Disclosure</tspan>
</text>
<rect x="2255" y="430" width="190" height="100" rx="16" fill="#f8fafc" stroke="#17324d" stroke-width="3"/>
<text x="2350.0" y="490.0" text-anchor="middle" style="font-family:Arial, Helvetica, sans-serif;font-size:30px;font-weight:700;fill:#17324d;">
<tspan x="2350.0" dy="0">Risk Update</tspan>
</text>
<line x1="440" y1="535.0" x2="540" y2="480.0" stroke="#667085" stroke-width="3" marker-end="url(#arrow)"/>
<line x1="695" y1="480.0" x2="770" y2="480.0" stroke="#667085" stroke-width="3" marker-end="url(#arrow)"/>
<line x1="925" y1="480.0" x2="1000" y2="480.0" stroke="#667085" stroke-width="3" marker-end="url(#arrow)"/>
<line x1="1165" y1="480.0" x2="1245" y2="480.0" stroke="#667085" stroke-width="3" marker-end="url(#arrow)"/>
<line x1="1435" y1="480.0" x2="1515" y2="480.0" stroke="#667085" stroke-width="3" marker-end="url(#arrow)"/>
<line x1="1670" y1="480.0" x2="1745" y2="480.0" stroke="#667085" stroke-width="3" marker-end="url(#arrow)"/>
<line x1="1900" y1="480.0" x2="1975" y2="480.0" stroke="#667085" stroke-width="3" marker-end="url(#arrow)"/>
<line x1="2175" y1="480.0" x2="2255" y2="480.0" stroke="#667085" stroke-width="3" marker-end="url(#arrow)"/>
<line x1="2445" y1="480.0" x2="2560" y2="545.0" stroke="#667085" stroke-width="3" marker-end="url(#arrow)"/>
<rect x="2135" y="690" width="240" height="110" rx="16" fill="#f8fafc" stroke="#17324d" stroke-width="3"/>
<text x="2255.0" y="756" text-anchor="middle" style="font-family:Arial, Helvetica, sans-serif;font-size:30px;font-weight:700;fill:#17324d;">
<tspan x="2255.0" dy="0">Release Note</tspan>
</text>
<rect x="2440" y="690" width="300" height="110" rx="16" fill="#fff7f7" stroke="#7a3e3e" stroke-width="3"/>
<text x="2590.0" y="740" text-anchor="middle" style="font-family:Arial, Helvetica, sans-serif;font-size:35px;font-weight:700;fill:#7a3e3e;">
<tspan x="2590.0" dy="0">Operational</tspan>
</text>
<text x="2590.0" y="774" text-anchor="middle" style="font-family:Arial, Helvetica, sans-serif;font-size:35px;font-weight:700;fill:#7a3e3e;">
<tspan x="2590.0" dy="0">Evidence</tspan>
</text>
<line x1="2350" y1="530" x2="2255" y2="690" stroke="#667085" stroke-width="3" marker-end="url(#arrow)"/>
<line x1="2445" y1="745" x2="2375" y2="745" stroke="#667085" stroke-width="3" marker-end="url(#arrow)"/>
<text x="1500" y="360" text-anchor="middle" style="font-family:Arial, Helvetica, sans-serif;font-size:42px;font-weight:700;fill:#334155;">
<tspan x="1500" dy="0">Connected repository evidence chain</tspan>
</text>
<rect x="340" y="875" width="2320" height="120" rx="18" fill="#f8fafc" stroke="#17324d" stroke-width="3"/>
<text x="1500.0" y="923" text-anchor="middle" style="font-family:Arial, Helvetica, sans-serif;font-size:40px;font-weight:700;fill:#172033;">
<tspan x="1500.0" dy="0">Individual artifacts provide partial evidence.</tspan>
</text>
<text x="1500.0" y="963" text-anchor="middle" style="font-family:Arial, Helvetica, sans-serif;font-size:40px;font-weight:700;fill:#172033;">
<tspan x="1500.0" dy="0">Connected artifacts create reconstructable engineering history.</tspan>
</text>
<rect x="300" y="1075" width="2400" height="145" rx="18" fill="#fffdf7" stroke="#17324d" stroke-width="3"/>
<text x="680" y="1159" text-anchor="middle" style="font-family:Arial, Helvetica, sans-serif;font-size:36px;font-weight:700;fill:#17324d;">
<tspan x="680" dy="0">GOVERNING PRINCIPLE:</tspan>
</text>
<line x1="1000" y1="1107" x2="1000" y2="1187" stroke="#667085" stroke-width="3"/>
<text x="1870" y="1139" text-anchor="middle" style="font-family:Arial, Helvetica, sans-serif;font-size:40px;font-weight:700;fill:#172033;">
<tspan x="1870" dy="0">The repository must show not only that work happened,</tspan>
</text>
<text x="1870" y="1179" text-anchor="middle" style="font-family:Arial, Helvetica, sans-serif;font-size:40px;font-weight:700;fill:#172033;">
<tspan x="1870" dy="0">but why it happened and why the team believed it was ready.</tspan>
</text>
</svg>