<svg xmlns="http://www.w3.org/2000/svg" width="2210" height="1155" viewBox="70 387.763 2210 848.739">
<defs>
<marker id="arrow" markerWidth="12" markerHeight="12" refX="10" refY="6" orient="auto" markerUnits="strokeWidth">
<path d="M2,2 L10,6 L2,10 Z" fill="#667085"/>
</marker>
</defs>
<rect width="100%" height="100%" fill="white"/>

<rect x="90" y="360" width="470" height="340" rx="24" fill="#fbfaf2" stroke="#66521f" stroke-width="3"/>
<rect x="114" y="384" width="422" height="78" rx="14" fill="#f8fafc" stroke="#66521f" stroke-width="2"/>
<text x="325.0" y="434" text-anchor="middle" style="font-family:Arial, Helvetica, sans-serif;font-size:33px;font-weight:700;fill:#66521f;">
<tspan x="325.0" dy="0">AI-Assisted Work</tspan>
</text>
<circle cx="148" cy="508" r="6.5" fill="#66521f"/>
<text x="180" y="518" text-anchor="start" style="font-family:Arial, Helvetica, sans-serif;font-size:31px;font-weight:600;fill:#172033;">
<tspan x="180" dy="0">Tool / model used</tspan>
</text>
<circle cx="148" cy="566" r="6.5" fill="#66521f"/>
<text x="180" y="576" text-anchor="start" style="font-family:Arial, Helvetica, sans-serif;font-size:31px;font-weight:600;fill:#172033;">
<tspan x="180" dy="0">Task supported</tspan>
</text>
<circle cx="148" cy="624" r="6.5" fill="#66521f"/>
<text x="180" y="634" text-anchor="start" style="font-family:Arial, Helvetica, sans-serif;font-size:31px;font-weight:600;fill:#172033;">
<tspan x="180" dy="0">Output proposed</tspan>
</text>
<rect x="650" y="360" width="470" height="340" rx="24" fill="#f4f8fd" stroke="#1e3a5f" stroke-width="3"/>
<rect x="674" y="384" width="422" height="78" rx="14" fill="#f8fafc" stroke="#1e3a5f" stroke-width="2"/>
<text x="885.0" y="434" text-anchor="middle" style="font-family:Arial, Helvetica, sans-serif;font-size:33px;font-weight:700;fill:#1e3a5f;">
<tspan x="885.0" dy="0">AI-Use Log</tspan>
</text>
<circle cx="708" cy="508" r="6.5" fill="#1e3a5f"/>
<text x="740" y="518" text-anchor="start" style="font-family:Arial, Helvetica, sans-serif;font-size:31px;font-weight:600;fill:#172033;">
<tspan x="740" dy="0">Accepted output</tspan>
</text>
<circle cx="708" cy="566" r="6.5" fill="#1e3a5f"/>
<text x="740" y="576" text-anchor="start" style="font-family:Arial, Helvetica, sans-serif;font-size:31px;font-weight:600;fill:#172033;">
<tspan x="740" dy="0">Rejected output</tspan>
</text>
<circle cx="708" cy="624" r="6.5" fill="#1e3a5f"/>
<text x="740" y="634" text-anchor="start" style="font-family:Arial, Helvetica, sans-serif;font-size:31px;font-weight:600;fill:#172033;">
<tspan x="740" dy="0">Human modifications</tspan>
</text>
<rect x="1210" y="360" width="470" height="340" rx="24" fill="#f7f6fb" stroke="#473b71" stroke-width="3"/>
<rect x="1234" y="384" width="422" height="92" rx="14" fill="#f8fafc" stroke="#473b71" stroke-width="2"/>
<text x="1445.0" y="420" text-anchor="middle" style="font-family:Arial, Helvetica, sans-serif;font-size:33px;font-weight:700;fill:#473b71;">
<tspan x="1445.0" dy="0">Verification</tspan>
<tspan x="1445.0" dy="32.550000000000004px">and Review</tspan>
</text>
<circle cx="1268" cy="526" r="6.5" fill="#473b71"/>
<text x="1300" y="536" text-anchor="start" style="font-family:Arial, Helvetica, sans-serif;font-size:31px;font-weight:600;fill:#172033;">
<tspan x="1300" dy="0">Verification performed</tspan>
</text>
<circle cx="1268" cy="584" r="6.5" fill="#473b71"/>
<text x="1300" y="594" text-anchor="start" style="font-family:Arial, Helvetica, sans-serif;font-size:31px;font-weight:600;fill:#172033;">
<tspan x="1300" dy="0">Risks / limitations</tspan>
</text>
<circle cx="1268" cy="642" r="6.5" fill="#473b71"/>
<text x="1300" y="652" text-anchor="start" style="font-family:Arial, Helvetica, sans-serif;font-size:31px;font-weight:600;fill:#172033;">
<tspan x="1300" dy="0">Review notes</tspan>
</text>
<rect x="1770" y="360" width="470" height="340" rx="24" fill="#f5faf7" stroke="#2e5b46" stroke-width="3"/>
<rect x="1794" y="384" width="422" height="78" rx="14" fill="#f8fafc" stroke="#2e5b46" stroke-width="2"/>
<text x="2005.0" y="434" text-anchor="middle" style="font-family:Arial, Helvetica, sans-serif;font-size:33px;font-weight:700;fill:#2e5b46;">
<tspan x="2005.0" dy="0">Human-Owned Result</tspan>
</text>
<circle cx="1828" cy="508" r="6.5" fill="#2e5b46"/>
<text x="1860" y="518" text-anchor="start" style="font-family:Arial, Helvetica, sans-serif;font-size:31px;font-weight:600;fill:#172033;">
<tspan x="1860" dy="0">Owner named</tspan>
</text>
<circle cx="1828" cy="566" r="6.5" fill="#2e5b46"/>
<text x="1860" y="576" text-anchor="start" style="font-family:Arial, Helvetica, sans-serif;font-size:31px;font-weight:600;fill:#172033;">
<tspan x="1860" dy="0">Evidence preserved</tspan>
</text>
<circle cx="1828" cy="624" r="6.5" fill="#2e5b46"/>
<text x="1860" y="634" text-anchor="start" style="font-family:Arial, Helvetica, sans-serif;font-size:31px;font-weight:600;fill:#172033;">
<tspan x="1860" dy="0">Accepted result governed</tspan>
</text>
<line x1="560" y1="530.0" x2="650" y2="530.0" stroke="#667085" stroke-width="4" marker-end="url(#arrow)"/>
<line x1="1120" y1="530.0" x2="1210" y2="530.0" stroke="#667085" stroke-width="4" marker-end="url(#arrow)"/>
<line x1="1680" y1="530.0" x2="1770" y2="530.0" stroke="#667085" stroke-width="4" marker-end="url(#arrow)"/>
<text x="1250" y="280" text-anchor="middle" style="font-family:Arial, Helvetica, sans-serif;font-size:37px;font-weight:700;fill:#334155;">
<tspan x="1250" dy="0">AI-assisted work becomes engineering evidence only after verification and ownership.</tspan>
</text>
<rect x="240" y="815" width="2020" height="190" rx="18" fill="#f8fafc" stroke="#17324d" stroke-width="3"/>
<text x="1250.0" y="865" text-anchor="middle" style="font-family:Arial, Helvetica, sans-serif;font-size:34px;font-weight:700;fill:#17324d;">
<tspan x="1250.0" dy="0">Evidence may be preserved across repository locations</tspan>
</text>
<rect x="295" y="903" width="230" height="62" rx="12" fill="#ffffff" stroke="#64748b" stroke-width="2"/>
<text x="410" y="943" text-anchor="middle" style="font-family:Arial, Helvetica, sans-serif;font-size:30px;font-weight:700;fill:#172033;">
<tspan x="410" dy="0">AI-use log</tspan>
</text>
<rect x="630" y="903" width="230" height="62" rx="12" fill="#ffffff" stroke="#64748b" stroke-width="2"/>
<text x="745" y="943" text-anchor="middle" style="font-family:Arial, Helvetica, sans-serif;font-size:30px;font-weight:700;fill:#172033;">
<tspan x="745" dy="0">Pull request</tspan>
</text>
<rect x="965" y="903" width="230" height="62" rx="12" fill="#ffffff" stroke="#64748b" stroke-width="2"/>
<text x="1080" y="943" text-anchor="middle" style="font-family:Arial, Helvetica, sans-serif;font-size:30px;font-weight:700;fill:#172033;">
<tspan x="1080" dy="0">Issue comments</tspan>
</text>
<rect x="1300" y="903" width="230" height="62" rx="12" fill="#ffffff" stroke="#64748b" stroke-width="2"/>
<text x="1415" y="943" text-anchor="middle" style="font-family:Arial, Helvetica, sans-serif;font-size:30px;font-weight:700;fill:#172033;">
<tspan x="1415" dy="0">ADRs</tspan>
</text>
<rect x="1635" y="903" width="230" height="62" rx="12" fill="#ffffff" stroke="#64748b" stroke-width="2"/>
<text x="1750" y="943" text-anchor="middle" style="font-family:Arial, Helvetica, sans-serif;font-size:30px;font-weight:700;fill:#172033;">
<tspan x="1750" dy="0">Tests</tspan>
</text>
<rect x="1970" y="903" width="230" height="62" rx="12" fill="#ffffff" stroke="#64748b" stroke-width="2"/>
<text x="2085" y="943" text-anchor="middle" style="font-family:Arial, Helvetica, sans-serif;font-size:30px;font-weight:700;fill:#172033;">
<tspan x="2085" dy="0">Review notes</tspan>
</text>
<rect x="300" y="1060" width="1900" height="105" rx="18" fill="#f8fafc" stroke="#17324d" stroke-width="3"/>
<text x="1250.0" y="1103" text-anchor="middle" style="font-family:Arial, Helvetica, sans-serif;font-size:33px;font-weight:700;fill:#172033;">
<tspan x="1250.0" dy="0">The goal is accountability, not surveillance.</tspan>
</text>
<text x="1250.0" y="1142" text-anchor="middle" style="font-family:Arial, Helvetica, sans-serif;font-size:33px;font-weight:700;fill:#172033;">
<tspan x="1250.0" dy="0">Accepted AI-assisted work must have a human owner and an evidence trail.</tspan>
</text>
<rect x="270" y="1240" width="1960" height="130" rx="18" fill="#fffdf7" stroke="#17324d" stroke-width="3"/>
<text x="615" y="1318" text-anchor="middle" style="font-family:Arial, Helvetica, sans-serif;font-size:32px;font-weight:700;fill:#17324d;">
<tspan x="615" dy="0">GOVERNING PRINCIPLE:</tspan>
</text>
<line x1="910" y1="1270" x2="910" y2="1340" stroke="#667085" stroke-width="3"/>
<text x="1590" y="1302" text-anchor="middle" style="font-family:Arial, Helvetica, sans-serif;font-size:34px;font-weight:700;fill:#172033;">
<tspan x="1590" dy="0">AI proposes; engineers verify.</tspan>
</text>
<text x="1590" y="1343" text-anchor="middle" style="font-family:Arial, Helvetica, sans-serif;font-size:34px;font-weight:700;fill:#172033;">
<tspan x="1590" dy="0">Repository evidence shows whether that actually happened.</tspan>
</text>
</svg>