
<svg xmlns="http://www.w3.org/2000/svg" width="1500" height="930" viewBox="0 0 1500 930">
<rect x="0" y="0" width="1500" height="930" fill="white"/>

<rect x="580" y="310" width="340" height="160" rx="18" fill="#eef3f8" stroke="#3f5368" stroke-width="3"/>
<text x="750" y="380" text-anchor="middle" font-family="Arial" font-size="38" font-weight="700">Responsible</text>
<text x="750" y="425" text-anchor="middle" font-family="Arial" font-size="38" font-weight="700">Coordination</text>

<rect x="600" y="50" width="300" height="105" rx="14" fill="white" stroke="#56677d" stroke-width="2"/>
<text x="750" y="90" text-anchor="middle" font-family="Arial" font-size="31" font-weight="700">Waterfall</text>
<text x="750" y="126" text-anchor="middle" font-family="Arial" font-size="24">Predictability</text>
<line x1="750" y1="155" x2="750" y2="310" stroke="#9aa7b4" stroke-width="2"/>

<rect x="170" y="280" width="300" height="105" rx="14" fill="white" stroke="#56677d" stroke-width="2"/>
<text x="320" y="320" text-anchor="middle" font-family="Arial" font-size="31" font-weight="700">Incremental</text>
<text x="320" y="356" text-anchor="middle" font-family="Arial" font-size="24">Controlled Delivery</text>
<line x1="470" y1="332" x2="580" y2="390" stroke="#9aa7b4" stroke-width="2"/>

<rect x="1030" y="280" width="300" height="105" rx="14" fill="white" stroke="#56677d" stroke-width="2"/>
<text x="1180" y="320" text-anchor="middle" font-family="Arial" font-size="31" font-weight="700">Agile</text>
<text x="1180" y="356" text-anchor="middle" font-family="Arial" font-size="24">Adaptability</text>
<line x1="1030" y1="332" x2="920" y2="390" stroke="#9aa7b4" stroke-width="2"/>

<rect x="240" y="630" width="300" height="105" rx="14" fill="white" stroke="#56677d" stroke-width="2"/>
<text x="390" y="670" text-anchor="middle" font-family="Arial" font-size="31" font-weight="700">Spiral</text>
<text x="390" y="706" text-anchor="middle" font-family="Arial" font-size="24">Risk Reduction</text>
<line x1="540" y1="682" x2="620" y2="470" stroke="#9aa7b4" stroke-width="2"/>

<rect x="960" y="630" width="360" height="105" rx="14" fill="white" stroke="#56677d" stroke-width="2"/>
<text x="1140" y="670" text-anchor="middle" font-family="Arial" font-size="31" font-weight="700">DevOps</text>
<text x="1140" y="706" text-anchor="middle" font-family="Arial" font-size="24">Operational Feedback</text>
<line x1="960" y1="682" x2="880" y2="470" stroke="#9aa7b4" stroke-width="2"/>

<line x1="750" y1="470" x2="750" y2="770" stroke="#7a8795" stroke-width="3"/>

<rect x="360" y="770" width="780" height="110" rx="18" fill="#f4f6f8" stroke="#56677d" stroke-width="3"/>
<text x="750" y="835" text-anchor="middle" font-family="Arial" font-size="38" font-weight="700">Trustworthy System Delivery</text>
</svg>
