<svg xmlns="http://www.w3.org/2000/svg" width="1800" height="1240" viewBox="0 0 1800 1240">
<defs>
<marker id="arrow_0f2f5f" markerWidth="7" markerHeight="7" refX="6.2" refY="3.5" orient="auto" markerUnits="strokeWidth">
<path d="M 0 0 L 7 3.5 L 0 7 z" fill="#0f2f5f"/>
</marker>
<marker id="arrow_244f91" markerWidth="7" markerHeight="7" refX="6.2" refY="3.5" orient="auto" markerUnits="strokeWidth">
<path d="M 0 0 L 7 3.5 L 0 7 z" fill="#244f91"/>
</marker>
<marker id="arrow_23713a" markerWidth="7" markerHeight="7" refX="6.2" refY="3.5" orient="auto" markerUnits="strokeWidth">
<path d="M 0 0 L 7 3.5 L 0 7 z" fill="#23713a"/>
</marker>
<marker id="arrow_9a6a00" markerWidth="7" markerHeight="7" refX="6.2" refY="3.5" orient="auto" markerUnits="strokeWidth">
<path d="M 0 0 L 7 3.5 L 0 7 z" fill="#9a6a00"/>
</marker>
<marker id="arrow_5d2f84" markerWidth="7" markerHeight="7" refX="6.2" refY="3.5" orient="auto" markerUnits="strokeWidth">
<path d="M 0 0 L 7 3.5 L 0 7 z" fill="#5d2f84"/>
</marker>
<marker id="arrow_b31b1b" markerWidth="7" markerHeight="7" refX="6.2" refY="3.5" orient="auto" markerUnits="strokeWidth">
<path d="M 0 0 L 7 3.5 L 0 7 z" fill="#b31b1b"/>
</marker>
<marker id="arrow_555555" markerWidth="7" markerHeight="7" refX="6.2" refY="3.5" orient="auto" markerUnits="strokeWidth">
<path d="M 0 0 L 7 3.5 L 0 7 z" fill="#555555"/>
</marker>
</defs>
<rect x="0" y="0" width="1800" height="1240" fill="white"/>
<text x="900.0" y="42" text-anchor="middle" style="font-size:27px;font-family:Arial, Helvetica, sans-serif;font-weight:700;fill:#0f2f5f;font-style:italic;">
<tspan x="900.0" dy="0">Oversight is meaningful only when humans can intervene, escalate, override, revoke, and learn.</tspan>
</text>
<rect x="470" y="75" width="860" height="100" rx="10" fill="#f5f9ff" stroke="#244f91" stroke-width="2"/>
<text x="900.0" y="109" text-anchor="middle" style="font-size:25px;font-family:Arial, Helvetica, sans-serif;font-weight:700;fill:#244f91;">
<tspan x="900.0" dy="0">Bounded Intelligent Workflow</tspan>
</text>
<text x="900.0" y="151" text-anchor="middle" style="font-size:19px;font-family:Arial, Helvetica, sans-serif;font-weight:600;fill:#102040;">
<tspan x="900.0" dy="0">AI-assisted recommendation  /  context-supported preparation  /  proposed action</tspan>
</text>
<rect x="470" y="225" width="860" height="115" rx="10" fill="#ffffff" stroke="#0f2f5f" stroke-width="2"/>
<text x="900.0" y="261" text-anchor="middle" style="font-size:26px;font-family:Arial, Helvetica, sans-serif;font-weight:700;fill:#0f2f5f;">
<tspan x="900.0" dy="0">Routine Human Review</tspan>
</text>
<text x="900.0" y="305" text-anchor="middle" style="font-size:21px;font-family:Arial, Helvetica, sans-serif;font-weight:600;fill:#102040;">
<tspan x="900.0" dy="0">Evidence package  /  recommendation review  /  operational judgment</tspan>
</text>
<line x1="900" y1="175" x2="900" y2="225" stroke="#0f2f5f" stroke-width="3.2" marker-end="url(#arrow_0f2f5f)"/>
<rect x="220" y="385" width="410" height="105" rx="10" fill="#f5fff7" stroke="#23713a" stroke-width="2"/>
<text x="425.0" y="420" text-anchor="middle" style="font-size:25px;font-family:Arial, Helvetica, sans-serif;font-weight:700;fill:#23713a;">
<tspan x="425.0" dy="0">Approve</tspan>
</text>
<text x="425.0" y="463" text-anchor="middle" style="font-size:21px;font-family:Arial, Helvetica, sans-serif;font-weight:600;fill:#102040;">
<tspan x="425.0" dy="0">Proceed / record decision</tspan>
</text>
<rect x="665" y="385" width="410" height="105" rx="10" fill="#fff8e8" stroke="#9a6a00" stroke-width="2"/>
<text x="870.0" y="420" text-anchor="middle" style="font-size:25px;font-family:Arial, Helvetica, sans-serif;font-weight:700;fill:#9a6a00;">
<tspan x="870.0" dy="0">Require More Evidence</tspan>
</text>
<text x="870.0" y="463" text-anchor="middle" style="font-size:20px;font-family:Arial, Helvetica, sans-serif;font-weight:600;fill:#102040;">
<tspan x="870.0" dy="0">Request evidence / return for review</tspan>
</text>
<rect x="1110" y="385" width="410" height="105" rx="10" fill="#fff7f7" stroke="#b31b1b" stroke-width="2"/>
<text x="1315.0" y="420" text-anchor="middle" style="font-size:25px;font-family:Arial, Helvetica, sans-serif;font-weight:700;fill:#b31b1b;">
<tspan x="1315.0" dy="0">Exception Detected</tspan>
</text>
<text x="1315.0" y="463" text-anchor="middle" style="font-size:19px;font-family:Arial, Helvetica, sans-serif;font-weight:600;fill:#102040;">
<tspan x="1315.0" dy="0">Escalation required / intervention authority</tspan>
<tspan x="1315.0" dy="23.18">considered</tspan>
</text>
<line x1="900" y1="340" x2="900" y2="385" stroke="#0f2f5f" stroke-width="3.0" marker-end="url(#arrow_0f2f5f)"/>
<path d="M 900 340 L 900 365 L 425 365 L 425 385" fill="none" stroke="#23713a" stroke-width="2.8" marker-end="url(#arrow_23713a)"/>
<path d="M 900 340 L 900 365 L 1315 365 L 1315 385" fill="none" stroke="#b31b1b" stroke-width="2.8" marker-end="url(#arrow_b31b1b)"/>
<path d="M 835 385 L 835 355 L 760 355 L 760 340" fill="none" stroke="#9a6a00" stroke-width="2.6" stroke-dasharray="8 7" marker-end="url(#arrow_9a6a00)"/>
<rect x="105" y="535" width="1195" height="215" rx="14" fill="#fbfdff" stroke="#b31b1b" stroke-width="2.5"/>
<text x="702.5" y="571" text-anchor="middle" style="font-size:27px;font-family:Arial, Helvetica, sans-serif;font-weight:700;fill:#b31b1b;">
<tspan x="702.5" dy="0">Escalation Authority</tspan>
</text>
<rect x="150" y="610" width="260" height="118" rx="8" fill="#ffffff" stroke="#b87474" stroke-width="1.7"/>
<text x="280.0" y="642" text-anchor="middle" style="font-size:21px;font-family:Arial, Helvetica, sans-serif;font-weight:700;fill:#b31b1b;">
<tspan x="280.0" dy="0">Operational</tspan>
<tspan x="280.0" dy="24.779999999999998">Escalation</tspan>
</text>
<text x="280.0" y="690" text-anchor="middle" style="font-size:18px;font-family:Arial, Helvetica, sans-serif;font-weight:600;fill:#102040;">
<tspan x="280.0" dy="0">supervisor /</tspan>
<tspan x="280.0" dy="21.96">leadership</tspan>
</text>
<rect x="434" y="610" width="260" height="118" rx="8" fill="#ffffff" stroke="#b87474" stroke-width="1.7"/>
<text x="564.0" y="642" text-anchor="middle" style="font-size:21px;font-family:Arial, Helvetica, sans-serif;font-weight:700;fill:#b31b1b;">
<tspan x="564.0" dy="0">Privacy</tspan>
<tspan x="564.0" dy="24.779999999999998">Escalation</tspan>
</text>
<text x="564.0" y="690" text-anchor="middle" style="font-size:18px;font-family:Arial, Helvetica, sans-serif;font-weight:600;fill:#102040;">
<tspan x="564.0" dy="0">privacy</tspan>
<tspan x="564.0" dy="21.96">authority</tspan>
</text>
<rect x="718" y="610" width="260" height="118" rx="8" fill="#ffffff" stroke="#b87474" stroke-width="1.7"/>
<text x="848.0" y="642" text-anchor="middle" style="font-size:21px;font-family:Arial, Helvetica, sans-serif;font-weight:700;fill:#b31b1b;">
<tspan x="848.0" dy="0">Security</tspan>
<tspan x="848.0" dy="24.779999999999998">Escalation</tspan>
</text>
<text x="848.0" y="690" text-anchor="middle" style="font-size:18px;font-family:Arial, Helvetica, sans-serif;font-weight:600;fill:#102040;">
<tspan x="848.0" dy="0">public safety /</tspan>
<tspan x="848.0" dy="21.96">security</tspan>
</text>
<rect x="1002" y="610" width="260" height="118" rx="8" fill="#ffffff" stroke="#b87474" stroke-width="1.7"/>
<text x="1132.0" y="642" text-anchor="middle" style="font-size:21px;font-family:Arial, Helvetica, sans-serif;font-weight:700;fill:#b31b1b;">
<tspan x="1132.0" dy="0">Release Governance</tspan>
<tspan x="1132.0" dy="24.779999999999998">Escalation</tspan>
</text>
<text x="1132.0" y="690" text-anchor="middle" style="font-size:18px;font-family:Arial, Helvetica, sans-serif;font-weight:600;fill:#102040;">
<tspan x="1132.0" dy="0">governance board /</tspan>
<tspan x="1132.0" dy="21.96">release authority</tspan>
</text>
<line x1="1315" y1="490" x2="1315" y2="535" stroke="#b31b1b" stroke-width="3.2" marker-end="url(#arrow_b31b1b)"/>
<rect x="1325" y="545" width="415" height="180" rx="12" fill="#fff7f7" stroke="#b31b1b" stroke-width="2.4"/>
<text x="1532.5" y="582" text-anchor="middle" style="font-size:25px;font-family:Arial, Helvetica, sans-serif;font-weight:700;fill:#b31b1b;">
<tspan x="1532.5" dy="0">Accountability Theater</tspan>
</text>
<text x="1532.5" y="627" text-anchor="middle" style="font-size:21px;font-family:Arial, Helvetica, sans-serif;font-weight:600;fill:#b31b1b;">
<tspan x="1532.5" dy="0">Humans remain accountable</tspan>
<tspan x="1532.5" dy="26.25">only if they possess authority</tspan>
<tspan x="1532.5" dy="26.25">to intervene.</tspan>
</text>
<rect x="105" y="758" width="1610" height="165" rx="14" fill="#fbfdff" stroke="#9a6a00" stroke-width="2.4"/>
<text x="910" y="790" text-anchor="middle" style="font-size:27px;font-family:Arial, Helvetica, sans-serif;font-weight:700;fill:#9a6a00;">
<tspan x="910" dy="0">Intervention Options</tspan>
</text>
<rect x="155" y="810" width="350" height="102" rx="9" fill="#fff8e8" stroke="#9a6a00" stroke-width="2"/>
<text x="330.0" y="842" text-anchor="middle" style="font-size:23px;font-family:Arial, Helvetica, sans-serif;font-weight:700;fill:#9a6a00;">
<tspan x="330.0" dy="0">Pause Workflow</tspan>
</text>
<text x="330.0" y="888" text-anchor="middle" style="font-size:18px;font-family:Arial, Helvetica, sans-serif;font-weight:600;fill:#102040;">
<tspan x="330.0" dy="0">hold action /</tspan>
<tspan x="330.0" dy="21.96">stop notification</tspan>
</text>
<rect x="540" y="810" width="350" height="102" rx="9" fill="#fff8e8" stroke="#9a6a00" stroke-width="2"/>
<text x="715.0" y="842" text-anchor="middle" style="font-size:23px;font-family:Arial, Helvetica, sans-serif;font-weight:700;fill:#9a6a00;">
<tspan x="715.0" dy="0">Override</tspan>
<tspan x="715.0" dy="27.139999999999997">Recommendation</tspan>
</text>
<text x="715.0" y="888" text-anchor="middle" style="font-size:18px;font-family:Arial, Helvetica, sans-serif;font-weight:600;fill:#102040;">
<tspan x="715.0" dy="0">human path</tspan>
<tspan x="715.0" dy="21.96">replaces AI path</tspan>
</text>
<rect x="925" y="810" width="350" height="102" rx="9" fill="#fff8e8" stroke="#9a6a00" stroke-width="2"/>
<text x="1100.0" y="842" text-anchor="middle" style="font-size:23px;font-family:Arial, Helvetica, sans-serif;font-weight:700;fill:#9a6a00;">
<tspan x="1100.0" dy="0">Revoke</tspan>
<tspan x="1100.0" dy="27.139999999999997">Authority</tspan>
</text>
<text x="1100.0" y="888" text-anchor="middle" style="font-size:18px;font-family:Arial, Helvetica, sans-serif;font-weight:600;fill:#102040;">
<tspan x="1100.0" dy="0">case or class</tspan>
<tspan x="1100.0" dy="21.96">of cases</tspan>
</text>
<rect x="1310" y="810" width="350" height="102" rx="9" fill="#fff8e8" stroke="#9a6a00" stroke-width="2"/>
<text x="1485.0" y="842" text-anchor="middle" style="font-size:23px;font-family:Arial, Helvetica, sans-serif;font-weight:700;fill:#9a6a00;">
<tspan x="1485.0" dy="0">Emergency</tspan>
<tspan x="1485.0" dy="27.139999999999997">Intervention</tspan>
</text>
<text x="1485.0" y="888" text-anchor="middle" style="font-size:18px;font-family:Arial, Helvetica, sans-serif;font-weight:600;fill:#102040;">
<tspan x="1485.0" dy="0">immediate</tspan>
<tspan x="1485.0" dy="21.96">operational control</tspan>
</text>
<path d="M 280.0 732 L 280.0 770 L 330.0 770 L 330.0 810" fill="none" stroke="#9a6a00" stroke-width="2.8" marker-end="url(#arrow_9a6a00)"/>
<path d="M 564.0 732 L 564.0 770 L 715.0 770 L 715.0 810" fill="none" stroke="#9a6a00" stroke-width="2.8" marker-end="url(#arrow_9a6a00)"/>
<path d="M 848.0 732 L 848.0 770 L 1100.0 770 L 1100.0 810" fill="none" stroke="#9a6a00" stroke-width="2.8" marker-end="url(#arrow_9a6a00)"/>
<path d="M 1132.0 732 L 1132.0 770 L 1485.0 770 L 1485.0 810" fill="none" stroke="#9a6a00" stroke-width="2.8" marker-end="url(#arrow_9a6a00)"/>
<path d="M 1740 635.0 L 1760 635.0 L 1760 840 L 1715 840" fill="none" stroke="#b31b1b" stroke-width="2.5" stroke-dasharray="8 7" marker-end="url(#arrow_b31b1b)"/>
<rect x="105" y="975" width="555" height="145" rx="12" fill="#fbf7ff" stroke="#5d2f84" stroke-width="2.4"/>
<text x="382.5" y="1011" text-anchor="middle" style="font-size:25px;font-family:Arial, Helvetica, sans-serif;font-weight:700;fill:#5d2f84;">
<tspan x="382.5" dy="0">Oversight Evidence</tspan>
</text>
<text x="382.5" y="1057" text-anchor="middle" style="font-size:19px;font-family:Arial, Helvetica, sans-serif;font-weight:600;fill:#102040;">
<tspan x="382.5" dy="0">oversight review record / intervention record / override and</tspan>
<tspan x="382.5" dy="23.18">revocation log</tspan>
</text>
<rect x="705" y="975" width="505" height="145" rx="12" fill="#fbf7ff" stroke="#5d2f84" stroke-width="2.4"/>
<text x="957.5" y="1011" text-anchor="middle" style="font-size:25px;font-family:Arial, Helvetica, sans-serif;font-weight:700;fill:#5d2f84;">
<tspan x="957.5" dy="0">Repository Records</tspan>
</text>
<text x="957.5" y="1049" text-anchor="middle" style="font-size:18px;font-family:Arial, Helvetica, sans-serif;font-weight:600;fill:#102040;">
<tspan x="957.5" dy="0">intervention_playbook.md</tspan>
<tspan x="957.5" dy="21.96">/ override_and_revocation_log.md</tspan>
<tspan x="957.5" dy="21.96">/ escalation_authority_matrix.md</tspan>
</text>
<rect x="1255" y="975" width="460" height="145" rx="12" fill="#f7f9fc" stroke="#7a879a" stroke-width="2.2"/>
<text x="1485.0" y="1011" text-anchor="middle" style="font-size:25px;font-family:Arial, Helvetica, sans-serif;font-weight:700;fill:#0f2f5f;">
<tspan x="1485.0" dy="0">Governance Learning</tspan>
</text>
<text x="1485.0" y="1057" text-anchor="middle" style="font-size:19px;font-family:Arial, Helvetica, sans-serif;font-weight:600;fill:#102040;">
<tspan x="1485.0" dy="0">incident records / governance updates / oversight</tspan>
<tspan x="1485.0" dy="23.18">improvements</tspan>
</text>
<line x1="330" y1="912" x2="330" y2="975" stroke="#5d2f84" stroke-width="2.8" marker-end="url(#arrow_5d2f84)"/>
<line x1="715" y1="912" x2="715" y2="975" stroke="#5d2f84" stroke-width="2.8" marker-end="url(#arrow_5d2f84)"/>
<line x1="1100" y1="912" x2="1100" y2="975" stroke="#5d2f84" stroke-width="2.8" marker-end="url(#arrow_5d2f84)"/>
<line x1="1485" y1="912" x2="1485" y2="975" stroke="#5d2f84" stroke-width="2.8" marker-end="url(#arrow_5d2f84)"/>
<line x1="660" y1="1047.5" x2="705" y2="1047.5" stroke="#5d2f84" stroke-width="3.0" marker-end="url(#arrow_5d2f84)"/>
<line x1="1210" y1="1047.5" x2="1255" y2="1047.5" stroke="#555555" stroke-width="3.0" marker-end="url(#arrow_555555)"/>
<path d="M 425 490 L 425 935 L 125 935 L 125 975" fill="none" stroke="#23713a" stroke-width="2.5" stroke-dasharray="8 7" marker-end="url(#arrow_23713a)"/>
<rect x="105" y="1152" width="1610" height="62" rx="10" fill="#f7f9fc" stroke="#7a879a" stroke-width="2"/>
<text x="910" y="1191" text-anchor="middle" style="font-size:25px;font-family:Arial, Helvetica, sans-serif;font-weight:700;fill:#102040;">
<tspan x="910" dy="0">If humans remain accountable, they must have authority to intervene; anything less is accountability theater.</tspan>
</text>
</svg>