<svg xmlns="http://www.w3.org/2000/svg" width="1500" height="1020" viewBox="0 0 1500 1020">
<defs>
<marker id="arrow" markerWidth="9" markerHeight="9" refX="8" refY="4.5" orient="auto" markerUnits="strokeWidth"><path d="M1.5,1.5 L8,4.5 L1.5,7.5 Z" fill="#222"/></marker>
<marker id="arrow_red" markerWidth="9" markerHeight="9" refX="8" refY="4.5" orient="auto" markerUnits="strokeWidth"><path d="M1.5,1.5 L8,4.5 L1.5,7.5 Z" fill="#a32222"/></marker>
</defs>
<rect width="1500" height="1020" fill="#ffffff"/>
<rect x="50" y="28" width="1400" height="58" rx="12" fill="#fafcfd" stroke="#2f4a5c" stroke-width="2"/>
<text x="750" y="64" font-family="Arial, Helvetica, sans-serif" font-size="21" font-weight="700" fill="#2f4a5c" text-anchor="middle">
<tspan x="750" dy="0">Human oversight is not a final approval step; it is an operating architecture for accountable control.</tspan>
</text>
<text x="750" y="111" font-family="Arial, Helvetica, sans-serif" font-size="17" font-weight="700" fill="#2f4a5c" text-anchor="middle">
<tspan x="750" dy="0">INSTITUTIONAL GOVERNANCE</tspan>
</text>
<g id="connectors"><line x1="280" y1="225" x2="280" y2="286" stroke="#2f4a5c" stroke-width="2.2" marker-end="url(#arrow)" stroke-linecap="round"/>
<line x1="750" y1="225" x2="750" y2="286" stroke="#9a5b00" stroke-width="2.2" marker-end="url(#arrow)" stroke-linecap="round"/>
<line x1="1220" y1="225" x2="1045" y2="286" stroke="#5a3d8a" stroke-width="2.2" marker-end="url(#arrow)" stroke-linecap="round"/>
<line x1="525" y1="417" x2="586" y2="417" stroke="#2f6b3f" stroke-width="2.2" marker-end="url(#arrow)" stroke-linecap="round"/>
<line x1="800" y1="476" x2="800" y2="506" stroke="#a32222" stroke-width="2.2" marker-end="url(#arrow_red)" stroke-linecap="round"/>
<line x1="315" y1="476" x2="315" y2="506" stroke="#a32222" stroke-width="2.2" marker-end="url(#arrow_red)" stroke-linecap="round"/>
<line x1="525" y1="568" x2="586" y2="568" stroke="#9a5b00" stroke-width="2.2" marker-end="url(#arrow)" stroke-linecap="round"/>
<line x1="800" y1="628" x2="800" y2="676" stroke="#2f4a5c" stroke-width="2.2" marker-end="url(#arrow)" stroke-linecap="round"/>
<line x1="315" y1="628" x2="410" y2="676" stroke="#2f4a5c" stroke-width="2.2" marker-end="url(#arrow)" stroke-linecap="round"/>
<line x1="1012" y1="417" x2="1160" y2="417" stroke="#5a3d8a" stroke-width="2.2" marker-end="url(#arrow)" stroke-linecap="round"/>
<line x1="1012" y1="568" x2="1160" y2="568" stroke="#5a3d8a" stroke-width="2.2" marker-end="url(#arrow)" stroke-linecap="round"/>
<line x1="280" y1="816" x2="280" y2="826" stroke="#2f6b3f" stroke-width="2.2" marker-end="url(#arrow)" stroke-linecap="round"/>
<line x1="750" y1="816" x2="750" y2="826" stroke="#5a3d8a" stroke-width="2.2" marker-end="url(#arrow)" stroke-linecap="round"/>
<line x1="1310" y1="760" x2="1220" y2="826" stroke="#1f4e8c" stroke-width="2.2" marker-end="url(#arrow)" stroke-linecap="round"/></g>
<rect x="80" y="125" width="400" height="100" rx="12" fill="#fafcfd" stroke="#2f4a5c" stroke-width="2"/>
<rect x="80" y="125" width="400" height="34" rx="12" fill="#2f4a5c" stroke="none"/>
<rect x="80" y="147" width="400" height="12" fill="#2f4a5c" stroke="none"/>
<text x="280.0" y="148" font-family="Arial, Helvetica, sans-serif" font-size="18" font-weight="700" fill="#fff" text-anchor="middle">
<tspan x="280.0" dy="0">Policy</tspan>
</text>
<text x="280.0" y="194.0" font-family="Arial, Helvetica, sans-serif" font-size="16" font-weight="400" fill="#1f2933" text-anchor="middle">
<tspan x="280.0" dy="0">Oversight policy / delegation limits</tspan>
</text>
<rect x="550" y="125" width="400" height="100" rx="12" fill="#fffdf7" stroke="#9a5b00" stroke-width="2"/>
<rect x="550" y="125" width="400" height="34" rx="12" fill="#9a5b00" stroke="none"/>
<rect x="550" y="147" width="400" height="12" fill="#9a5b00" stroke="none"/>
<text x="750.0" y="148" font-family="Arial, Helvetica, sans-serif" font-size="18" font-weight="700" fill="#fff" text-anchor="middle">
<tspan x="750.0" dy="0">Authority</tspan>
</text>
<text x="750.0" y="194.0" font-family="Arial, Helvetica, sans-serif" font-size="16" font-weight="400" fill="#1f2933" text-anchor="middle">
<tspan x="750.0" dy="0">Decision rights / override rights</tspan>
</text>
<rect x="1020" y="125" width="400" height="100" rx="12" fill="#fdfbff" stroke="#5a3d8a" stroke-width="2"/>
<rect x="1020" y="125" width="400" height="34" rx="12" fill="#5a3d8a" stroke="none"/>
<rect x="1020" y="147" width="400" height="12" fill="#5a3d8a" stroke="none"/>
<text x="1220.0" y="148" font-family="Arial, Helvetica, sans-serif" font-size="18" font-weight="700" fill="#fff" text-anchor="middle">
<tspan x="1220.0" dy="0">Review Board</tspan>
</text>
<text x="1220.0" y="188.4" font-family="Arial, Helvetica, sans-serif" font-size="16" font-weight="400" fill="#1f2933" text-anchor="middle">
<tspan x="1220.0" dy="0">Governance review / readiness</tspan>
<tspan x="1220.0" dy="19.52">decisions</tspan>
</text>
<rect x="70" y="288" width="1060" height="488" rx="16" fill="#fbfdff" stroke="#1f4e8c" stroke-width="3"/>
<rect x="70" y="288" width="1060" height="44" rx="16" fill="#1f4e8c" stroke="none"/>
<rect x="70" y="320" width="1060" height="12" fill="#1f4e8c" stroke="none"/>
<text x="600.0" y="317" font-family="Arial, Helvetica, sans-serif" font-size="22" font-weight="700" fill="#fff" text-anchor="middle">
<tspan x="600.0" dy="0">HUMAN OVERSIGHT ARCHITECTURE</tspan>
</text>
<rect x="105" y="358" width="420" height="118" rx="12" fill="#edf4ff" stroke="#1f4e8c" stroke-width="2"/>
<text x="315.0" y="388" font-family="Arial, Helvetica, sans-serif" font-size="18" font-weight="700" fill="#1f4e8c" text-anchor="middle">
<tspan x="315.0" dy="0">Reviewer Context</tspan>
</text>
<text x="315.0" y="429.06" font-family="Arial, Helvetica, sans-serif" font-size="16" font-weight="400" fill="#1f2933" text-anchor="middle">
<tspan x="315.0" dy="0">Evidence package / uncertainty /</tspan>
<tspan x="315.0" dy="19.52">operational constraints</tspan>
</text>
<rect x="590" y="358" width="420" height="118" rx="12" fill="#fbfefb" stroke="#2f6b3f" stroke-width="2"/>
<text x="800.0" y="388" font-family="Arial, Helvetica, sans-serif" font-size="18" font-weight="700" fill="#2f6b3f" text-anchor="middle">
<tspan x="800.0" dy="0">Human Review</tspan>
</text>
<text x="800.0" y="429.06" font-family="Arial, Helvetica, sans-serif" font-size="16" font-weight="400" fill="#1f2933" text-anchor="middle">
<tspan x="800.0" dy="0">Challenge recommendation / decide / own</tspan>
<tspan x="800.0" dy="19.52">judgment</tspan>
</text>
<rect x="105" y="510" width="420" height="118" rx="12" fill="#fffafa" stroke="#a32222" stroke-width="2"/>
<text x="315.0" y="540" font-family="Arial, Helvetica, sans-serif" font-size="18" font-weight="700" fill="#a32222" text-anchor="middle">
<tspan x="315.0" dy="0">Intervention Authority</tspan>
</text>
<text x="315.0" y="590.5" font-family="Arial, Helvetica, sans-serif" font-size="16" font-weight="400" fill="#1f2933" text-anchor="middle">
<tspan x="315.0" dy="0">Pause / override / revoke authority</tspan>
</text>
<rect x="590" y="510" width="420" height="118" rx="12" fill="#fffdf7" stroke="#9a5b00" stroke-width="2"/>
<text x="800.0" y="540" font-family="Arial, Helvetica, sans-serif" font-size="18" font-weight="700" fill="#9a5b00" text-anchor="middle">
<tspan x="800.0" dy="0">Escalation Authority</tspan>
</text>
<text x="800.0" y="581.06" font-family="Arial, Helvetica, sans-serif" font-size="16" font-weight="400" fill="#1f2933" text-anchor="middle">
<tspan x="800.0" dy="0">Escalate uncertainty / require evidence</tspan>
<tspan x="800.0" dy="19.52">/ route to review</tspan>
</text>
<rect x="250" y="680" width="690" height="78" rx="12" fill="#fafcfd" stroke="#2f4a5c" stroke-width="2"/>
<rect x="250" y="680" width="690" height="34" rx="12" fill="#2f4a5c" stroke="none"/>
<rect x="250" y="702" width="690" height="12" fill="#2f4a5c" stroke="none"/>
<text x="595.0" y="703" font-family="Arial, Helvetica, sans-serif" font-size="17" font-weight="700" fill="#fff" text-anchor="middle">
<tspan x="595.0" dy="0">Bounded Intelligent Workflow</tspan>
</text>
<text x="595.0" y="732.5" font-family="Arial, Helvetica, sans-serif" font-size="15" font-weight="400" fill="#1f2933" text-anchor="middle">
<tspan x="595.0" dy="0">AI-assisted recommendation / agentic preparation /</tspan>
<tspan x="595.0" dy="18.3">context-supported update</tspan>
</text>
<rect x="1170" y="300" width="280" height="460" rx="16" fill="#fdfbff" stroke="#5a3d8a" stroke-width="3"/>
<rect x="1170" y="300" width="280" height="44" rx="16" fill="#5a3d8a" stroke="none"/>
<rect x="1170" y="332" width="280" height="12" fill="#5a3d8a" stroke="none"/>
<text x="1310.0" y="329" font-family="Arial, Helvetica, sans-serif" font-size="18" font-weight="700" fill="#fff" text-anchor="middle">
<tspan x="1310.0" dy="0">AUDIT AND RECONSTRUCTION</tspan>
</text>
<rect x="1194" y="365" width="232" height="66" rx="12" fill="#ffffff" stroke="#5a3d8a" stroke-width="2"/>
<text x="1310.0" y="395" font-family="Arial, Helvetica, sans-serif" font-size="15" font-weight="700" fill="#5a3d8a" text-anchor="middle">
<tspan x="1310.0" dy="0">Oversight Logs</tspan>
</text>
<text x="1310.0" y="410.33" font-family="Arial, Helvetica, sans-serif" font-size="13" font-weight="400" fill="#1f2933" text-anchor="middle">
<tspan x="1310.0" dy="0">who reviewed / what was</tspan>
<tspan x="1310.0" dy="15.86">visible</tspan>
</text>
<rect x="1194" y="453" width="232" height="66" rx="12" fill="#ffffff" stroke="#5a3d8a" stroke-width="2"/>
<text x="1310.0" y="483" font-family="Arial, Helvetica, sans-serif" font-size="15" font-weight="700" fill="#5a3d8a" text-anchor="middle">
<tspan x="1310.0" dy="0">Intervention Records</tspan>
</text>
<text x="1310.0" y="506.0" font-family="Arial, Helvetica, sans-serif" font-size="13" font-weight="400" fill="#1f2933" text-anchor="middle">
<tspan x="1310.0" dy="0">pause / override / revoke</tspan>
</text>
<rect x="1194" y="541" width="232" height="66" rx="12" fill="#ffffff" stroke="#5a3d8a" stroke-width="2"/>
<text x="1310.0" y="571" font-family="Arial, Helvetica, sans-serif" font-size="15" font-weight="700" fill="#5a3d8a" text-anchor="middle">
<tspan x="1310.0" dy="0">Escalation Records</tspan>
</text>
<text x="1310.0" y="586.33" font-family="Arial, Helvetica, sans-serif" font-size="13" font-weight="400" fill="#1f2933" text-anchor="middle">
<tspan x="1310.0" dy="0">threshold / owner /</tspan>
<tspan x="1310.0" dy="15.86">outcome</tspan>
</text>
<rect x="1194" y="629" width="232" height="66" rx="12" fill="#ffffff" stroke="#5a3d8a" stroke-width="2"/>
<text x="1310.0" y="659" font-family="Arial, Helvetica, sans-serif" font-size="15" font-weight="700" fill="#5a3d8a" text-anchor="middle">
<tspan x="1310.0" dy="0">Review Decisions</tspan>
</text>
<text x="1310.0" y="682.0" font-family="Arial, Helvetica, sans-serif" font-size="13" font-weight="400" fill="#1f2933" text-anchor="middle">
<tspan x="1310.0" dy="0">conditions / residual risk</tspan>
</text>
<text x="750" y="803" font-family="Arial, Helvetica, sans-serif" font-size="17" font-weight="700" fill="#2f4a5c" text-anchor="middle">
<tspan x="750" dy="0">LEARNING AND GOVERNANCE UPDATE</tspan>
</text>
<rect x="80" y="830" width="400" height="95" rx="12" fill="#fbfefb" stroke="#2f6b3f" stroke-width="2"/>
<text x="280.0" y="860" font-family="Arial, Helvetica, sans-serif" font-size="18" font-weight="700" fill="#2f6b3f" text-anchor="middle">
<tspan x="280.0" dy="0">Runbooks</tspan>
</text>
<text x="280.0" y="889.65" font-family="Arial, Helvetica, sans-serif" font-size="15" font-weight="400" fill="#1f2933" text-anchor="middle">
<tspan x="280.0" dy="0">operational procedures updated from</tspan>
<tspan x="280.0" dy="18.3">oversight evidence</tspan>
</text>
<rect x="550" y="830" width="400" height="95" rx="12" fill="#fdfbff" stroke="#5a3d8a" stroke-width="2"/>
<text x="750.0" y="860" font-family="Arial, Helvetica, sans-serif" font-size="18" font-weight="700" fill="#5a3d8a" text-anchor="middle">
<tspan x="750.0" dy="0">Governance Records</tspan>
</text>
<text x="750.0" y="889.65" font-family="Arial, Helvetica, sans-serif" font-size="15" font-weight="400" fill="#1f2933" text-anchor="middle">
<tspan x="750.0" dy="0">policy / authority / review artifacts</tspan>
<tspan x="750.0" dy="18.3">updated</tspan>
</text>
<rect x="1020" y="830" width="400" height="95" rx="12" fill="#edf4ff" stroke="#1f4e8c" stroke-width="2"/>
<text x="1220.0" y="860" font-family="Arial, Helvetica, sans-serif" font-size="18" font-weight="700" fill="#1f4e8c" text-anchor="middle">
<tspan x="1220.0" dy="0">Oversight Improvements</tspan>
</text>
<text x="1220.0" y="889.65" font-family="Arial, Helvetica, sans-serif" font-size="15" font-weight="400" fill="#1f2933" text-anchor="middle">
<tspan x="1220.0" dy="0">reviewer context / escalation / audit</tspan>
<tspan x="1220.0" dy="18.3">improved</tspan>
</text>
<rect x="60" y="955" width="1380" height="42" rx="10" fill="#fafcfd" stroke="#2f4a5c" stroke-width="2"/>
<text x="750" y="982" font-family="Arial, Helvetica, sans-serif" font-size="18" font-weight="700" fill="#2f4a5c" text-anchor="middle">
<tspan x="750" dy="0">Oversight is meaningful only when accountable humans can understand, challenge, intervene, audit, and learn.</tspan>
</text>
</svg>