
<svg xmlns="http://www.w3.org/2000/svg" width="1800" height="1200" viewBox="0 0 1800 1200">
<rect width="100%" height="100%" fill="white"/>

<rect x="180" y="10" width="1440" height="55" rx="16" fill="#dbe5ef" stroke="#5f6b7a" stroke-width="2"/>
<text x="900" y="47" text-anchor="middle" font-size="30" font-weight="700">
Failure that has not happened yet still deserves engineering attention.
</text>

<ellipse cx="900" cy="560" rx="260" ry="140" fill="#eef2f5" stroke="#5f6b7a" stroke-width="3"/>
<text x="900" y="545" text-anchor="middle" font-size="38" font-weight="700">COICP</text>
<text x="900" y="595" text-anchor="middle" font-size="30">Operational System</text>

<ellipse cx="420" cy="240" rx="180" ry="90" fill="white" stroke="#5f6b7a" stroke-width="2"/>
<text x="420" y="225" text-anchor="middle" font-size="28" font-weight="700">Intake</text>
<text x="420" y="260" text-anchor="middle" font-size="22">Volume Surge</text>

<ellipse cx="900" cy="170" rx="190" ry="90" fill="white" stroke="#5f6b7a" stroke-width="2"/>
<text x="900" y="155" text-anchor="middle" font-size="28" font-weight="700">Routing</text>
<text x="900" y="190" text-anchor="middle" font-size="22">Queue Growth • Latency</text>

<ellipse cx="1380" cy="240" rx="220" ry="90" fill="white" stroke="#5f6b7a" stroke-width="2"/>
<text x="1380" y="225" text-anchor="middle" font-size="28" font-weight="700">AI Summary</text>
<text x="1380" y="260" text-anchor="middle" font-size="22">Stale Context • Weak Recommendation</text>

<ellipse cx="1540" cy="560" rx="220" ry="90" fill="white" stroke="#5f6b7a" stroke-width="2"/>
<text x="1540" y="545" text-anchor="middle" font-size="28" font-weight="700">Human Approval</text>
<text x="1540" y="580" text-anchor="middle" font-size="22">Review Backlog • Batching</text>

<ellipse cx="1380" cy="900" rx="220" ry="90" fill="white" stroke="#5f6b7a" stroke-width="2"/>
<text x="1380" y="885" text-anchor="middle" font-size="28" font-weight="700">Notification</text>
<text x="1380" y="920" text-anchor="middle" font-size="22">Provider Delay • Slow Delivery</text>

<ellipse cx="900" cy="980" rx="220" ry="90" fill="white" stroke="#5f6b7a" stroke-width="2"/>
<text x="900" y="965" text-anchor="middle" font-size="28" font-weight="700">Department Queue</text>
<text x="900" y="1000" text-anchor="middle" font-size="22">Overload • Response Delay</text>

<ellipse cx="420" cy="900" rx="220" ry="90" fill="white" stroke="#5f6b7a" stroke-width="2"/>
<text x="420" y="885" text-anchor="middle" font-size="28" font-weight="700">Fallback</text>
<text x="420" y="920" text-anchor="middle" font-size="22">Untested Recovery • Knowledge Gap</text>

<ellipse cx="260" cy="560" rx="210" ry="90" fill="white" stroke="#5f6b7a" stroke-width="2"/>
<text x="260" y="545" text-anchor="middle" font-size="28" font-weight="700">Observability</text>
<text x="260" y="580" text-anchor="middle" font-size="22">Weak Signal • Missed Degradation</text>

<ellipse cx="900" cy="1140" rx="320" ry="55" fill="#f4f6f8" stroke="#5f6b7a" stroke-width="2"/>
<text x="900" y="1132" text-anchor="middle" font-size="24" font-weight="700">Stakeholder Impact</text>
<text x="900" y="1160" text-anchor="middle" font-size="20">Delayed Response • Conflicting Expectations</text>

<!-- adjusted connector endpoints -->
<line x1="575" y1="315" x2="720" y2="448" stroke="#7a8794" stroke-width="2"/>
<line x1="900" y1="260" x2="900" y2="420" stroke="#7a8794" stroke-width="2"/>
<line x1="1225" y1="315" x2="1080" y2="448" stroke="#7a8794" stroke-width="2"/>
<line x1="1320" y1="560" x2="1162" y2="560" stroke="#7a8794" stroke-width="2"/>
<line x1="1225" y1="825" x2="1080" y2="672" stroke="#7a8794" stroke-width="2"/>
<line x1="900" y1="890" x2="900" y2="702" stroke="#7a8794" stroke-width="2"/>
<line x1="575" y1="825" x2="720" y2="672" stroke="#7a8794" stroke-width="2"/>
<line x1="470" y1="560" x2="640" y2="560" stroke="#7a8794" stroke-width="2"/>
<line x1="900" y1="1070" x2="900" y2="1085" stroke="#7a8794" stroke-width="2"/>

</svg>
