<svg xmlns="http://www.w3.org/2000/svg" width="1900" height="1350" viewBox="0 0 1900 1350">
<rect width="1900" height="1350" fill="white"/>

<text x="475" y="90" text-anchor="middle" font-family="Arial, Helvetica, sans-serif" font-size="33" font-weight="700" fill="#1f2933">Oversight Theater</text>
<text x="1425" y="90" text-anchor="middle" font-family="Arial, Helvetica, sans-serif" font-size="33" font-weight="700" fill="#1f2933">Meaningful Oversight</text>

<line x1="950" y1="120" x2="950" y2="1030" stroke="#9aa6b1" stroke-width="2"/>

<!-- LEFT COLUMN FLOW -->
<rect x="345" y="150" width="260" height="90" rx="10" fill="#f8fafb" stroke="#4a5864" stroke-width="2"/>
<text x="475" y="205" text-anchor="middle" font-family="Arial, Helvetica, sans-serif" font-size="28" font-weight="600" fill="#1f2933">AI Output</text>

<line x1="475" y1="240" x2="475" y2="295" stroke="#25313b" stroke-width="2"/>
<polygon points="470,287 480,287 475,300" fill="#25313b"/>

<rect x="315" y="300" width="320" height="90" rx="10" fill="#f8fafb" stroke="#4a5864" stroke-width="2"/>
<text x="475" y="355" text-anchor="middle" font-family="Arial, Helvetica, sans-serif" font-size="27" font-weight="600" fill="#1f2933">Approval Checkbox</text>

<line x1="475" y1="390" x2="475" y2="445" stroke="#25313b" stroke-width="2"/>
<polygon points="470,437 480,437 475,450" fill="#25313b"/>

<rect x="345" y="450" width="260" height="90" rx="10" fill="#f8fafb" stroke="#4a5864" stroke-width="2"/>
<text x="475" y="505" text-anchor="middle" font-family="Arial, Helvetica, sans-serif" font-size="28" font-weight="600" fill="#1f2933">Action</text>

<!-- LIMITED BOX: centered using box center y=717.5 -->
<rect x="290" y="620" width="370" height="195" rx="10" fill="white" stroke="#4a5864" stroke-width="2"/>
<text x="475" y="668.2" text-anchor="middle" font-family="Arial, Helvetica, sans-serif" font-size="26" font-weight="600" fill="#1f2933">Limited Context</text>
<text x="475" y="706.2" text-anchor="middle" font-family="Arial, Helvetica, sans-serif" font-size="26" font-weight="600" fill="#1f2933">Limited Authority</text>
<text x="475" y="744.2" text-anchor="middle" font-family="Arial, Helvetica, sans-serif" font-size="26" font-weight="600" fill="#1f2933">Weak Audit Trail</text>
<text x="475" y="782.2" text-anchor="middle" font-family="Arial, Helvetica, sans-serif" font-size="26" font-weight="600" fill="#1f2933">No Recovery Process</text>

<!-- HUMAN PRESENCE BOX: centered using box center y=925 -->
<rect x="280" y="860" width="390" height="130" rx="10" fill="white" stroke="#4a5864" stroke-width="2"/>
<text x="475" y="898.7" text-anchor="middle" font-family="Arial, Helvetica, sans-serif" font-size="26" font-weight="600" fill="#1f2933">Human presence</text>
<text x="475" y="932.7" text-anchor="middle" font-family="Arial, Helvetica, sans-serif" font-size="26" font-weight="600" fill="#1f2933">does not guarantee</text>
<text x="475" y="966.7" text-anchor="middle" font-family="Arial, Helvetica, sans-serif" font-size="26" font-weight="600" fill="#1f2933">human control</text>

<!-- RIGHT COLUMN FLOW -->
<rect x="1295" y="150" width="260" height="90" rx="10" fill="#f8fafb" stroke="#4a5864" stroke-width="2"/>
<text x="1425" y="205" text-anchor="middle" font-family="Arial, Helvetica, sans-serif" font-size="28" font-weight="600" fill="#1f2933">AI Output</text>

<line x1="1425" y1="240" x2="1425" y2="285" stroke="#25313b" stroke-width="2"/>
<polygon points="1420,277 1430,277 1425,290" fill="#25313b"/>

<rect x="1270" y="290" width="310" height="90" rx="10" fill="#f8fafb" stroke="#4a5864" stroke-width="2"/>
<text x="1425" y="345" text-anchor="middle" font-family="Arial, Helvetica, sans-serif" font-size="26" font-weight="600" fill="#1f2933">Context + Evidence</text>

<line x1="1425" y1="380" x2="1425" y2="425" stroke="#25313b" stroke-width="2"/>
<polygon points="1420,417 1430,417 1425,430" fill="#25313b"/>

<rect x="1240" y="430" width="370" height="90" rx="10" fill="#f8fafb" stroke="#4a5864" stroke-width="2"/>
<text x="1425" y="485" text-anchor="middle" font-family="Arial, Helvetica, sans-serif" font-size="24" font-weight="600" fill="#1f2933">Risk / Authority Check</text>

<line x1="1425" y1="520" x2="1425" y2="565" stroke="#25313b" stroke-width="2"/>
<polygon points="1420,557 1430,557 1425,570" fill="#25313b"/>

<rect x="1270" y="570" width="310" height="90" rx="10" fill="#f8fafb" stroke="#4a5864" stroke-width="2"/>
<text x="1425" y="625" text-anchor="middle" font-family="Arial, Helvetica, sans-serif" font-size="28" font-weight="600" fill="#1f2933">Human Decision</text>

<line x1="1425" y1="660" x2="1425" y2="705" stroke="#25313b" stroke-width="2"/>
<polygon points="1420,697 1430,697 1425,710" fill="#25313b"/>

<rect x="1270" y="710" width="310" height="90" rx="10" fill="#f8fafb" stroke="#4a5864" stroke-width="2"/>
<text x="1425" y="765" text-anchor="middle" font-family="Arial, Helvetica, sans-serif" font-size="28" font-weight="600" fill="#1f2933">Audit Record</text>

<line x1="1425" y1="800" x2="1425" y2="845" stroke="#25313b" stroke-width="2"/>
<polygon points="1420,837 1430,837 1425,850" fill="#25313b"/>

<rect x="1255" y="850" width="340" height="90" rx="10" fill="#f8fafb" stroke="#4a5864" stroke-width="2"/>
<text x="1425" y="905" text-anchor="middle" font-family="Arial, Helvetica, sans-serif" font-size="26" font-weight="600" fill="#1f2933">Rollback + Learning</text>

<!-- UNDERSTAND BOX: centered using box center y=1087.5 -->
<rect x="1230" y="985" width="390" height="205" rx="10" fill="white" stroke="#4a5864" stroke-width="2"/>
<text x="1425" y="1027.2" text-anchor="middle" font-family="Arial, Helvetica, sans-serif" font-size="26" font-weight="600" fill="#1f2933">Understand</text>
<text x="1425" y="1061.2" text-anchor="middle" font-family="Arial, Helvetica, sans-serif" font-size="26" font-weight="600" fill="#1f2933">Challenge</text>
<text x="1425" y="1095.2" text-anchor="middle" font-family="Arial, Helvetica, sans-serif" font-size="26" font-weight="600" fill="#1f2933">Reject</text>
<text x="1425" y="1129.2" text-anchor="middle" font-family="Arial, Helvetica, sans-serif" font-size="26" font-weight="600" fill="#1f2933">Escalate</text>
<text x="1425" y="1163.2" text-anchor="middle" font-family="Arial, Helvetica, sans-serif" font-size="26" font-weight="600" fill="#1f2933">Own Consequences</text>

<!-- Principle box -->
<rect x="350" y="1210" width="1200" height="105" rx="12" fill="white" stroke="#2d4052" stroke-width="2.5"/>
<text x="390" y="1245" font-family="Arial, Helvetica, sans-serif" font-size="22" font-weight="700" fill="#2d4052">GOVERNANCE PRINCIPLE</text>
<line x1="390" y1="1258" x2="1510" y2="1258" stroke="#9aa6b1"/>
<text x="950" y="1290" text-anchor="middle" font-family="Arial, Helvetica, sans-serif" font-size="27" font-weight="600" fill="#1f2933">Meaningful oversight requires understanding, authority, accountability, and recovery.</text>

</svg>