<svg xmlns="http://www.w3.org/2000/svg" width="2100" height="684" viewBox="0 0 2100 684">
<defs>
<marker id="arrow" markerWidth="10" markerHeight="10" refX="8" refY="5" orient="auto">
<path d="M0 0 L10 5 L0 10 z" fill="#25313b"/>
</marker>
<marker id="arrow2" markerWidth="10" markerHeight="10" refX="8" refY="5" orient="auto">
<path d="M0 0 L10 5 L0 10 z" fill="#5d6973"/>
</marker>
</defs>
<rect width="2100" height="760" fill="white"/>

<rect x="314" y="81" width="1162" height="213" rx="16" fill="#f7f4e8" stroke="#c7b56d" stroke-width="1.4" stroke-dasharray="8 8"/>
<text x="895.0" y="107" text-anchor="middle" font-family="Arial" font-size="24" font-weight="600" fill="#665c2e">accountability conversion zone</text>
<rect x="55" y="125" width="245" height="125" rx="10" fill="#f4f7f9" stroke="#3f4b55" stroke-width="2"/>
<text x="177.5" y="194.5" text-anchor="middle" font-family="Arial, Helvetica, sans-serif" font-size="25" font-weight="600" fill="#1f2933">AI Recommendation</text>
<rect x="342" y="125" width="245" height="125" rx="10" fill="#f4f7f9" stroke="#3f4b55" stroke-width="2"/>
<text x="464.5" y="182.0" text-anchor="middle" font-family="Arial, Helvetica, sans-serif" font-size="25" font-weight="600" fill="#1f2933">Context + Evidence</text>
<text x="464.5" y="207.0" text-anchor="middle" font-family="Arial, Helvetica, sans-serif" font-size="25" font-weight="600" fill="#1f2933">Review</text>
<rect x="629" y="125" width="245" height="125" rx="10" fill="#fbf7e8" stroke="#3f4b55" stroke-width="2"/>
<text x="751.5" y="182.0" text-anchor="middle" font-family="Arial, Helvetica, sans-serif" font-size="25" font-weight="600" fill="#1f2933">Risk / Impact</text>
<text x="751.5" y="207.0" text-anchor="middle" font-family="Arial, Helvetica, sans-serif" font-size="25" font-weight="600" fill="#1f2933">Check</text>
<rect x="916" y="125" width="245" height="125" rx="10" fill="#fbf7e8" stroke="#3f4b55" stroke-width="2"/>
<text x="1038.5" y="194.5" text-anchor="middle" font-family="Arial, Helvetica, sans-serif" font-size="25" font-weight="600" fill="#1f2933">Authority Boundary</text>
<rect x="1203" y="125" width="245" height="125" rx="10" fill="#eef6ef" stroke="#3f4b55" stroke-width="2"/>
<text x="1325.5" y="182.0" text-anchor="middle" font-family="Arial, Helvetica, sans-serif" font-size="25" font-weight="600" fill="#1f2933">Human Decision</text>
<text x="1325.5" y="207.0" text-anchor="middle" font-family="Arial, Helvetica, sans-serif" font-size="25" font-weight="600" fill="#1f2933">Owner</text>
<rect x="1490" y="125" width="245" height="125" rx="10" fill="#f4f7f9" stroke="#3f4b55" stroke-width="2"/>
<text x="1612.5" y="194.5" text-anchor="middle" font-family="Arial, Helvetica, sans-serif" font-size="25" font-weight="600" fill="#1f2933">Decision Record</text>
<rect x="1777" y="125" width="245" height="125" rx="10" fill="#f4f7f9" stroke="#3f4b55" stroke-width="2"/>
<text x="1899.5" y="182.0" text-anchor="middle" font-family="Arial, Helvetica, sans-serif" font-size="26" font-weight="600" fill="#1f2933">Monitoring /</text>
<text x="1899.5" y="207.0" text-anchor="middle" font-family="Arial, Helvetica, sans-serif" font-size="26" font-weight="600" fill="#1f2933">Recovery</text>
<line x1="305" y1="187.5" x2="337" y2="187.5" stroke="#25313b" stroke-width="2.2" marker-end="url(#arrow)"/>
<line x1="592" y1="187.5" x2="624" y2="187.5" stroke="#25313b" stroke-width="2.2" marker-end="url(#arrow)"/>
<line x1="879" y1="187.5" x2="911" y2="187.5" stroke="#25313b" stroke-width="2.2" marker-end="url(#arrow)"/>
<line x1="1166" y1="187.5" x2="1198" y2="187.5" stroke="#25313b" stroke-width="2.2" marker-end="url(#arrow)"/>
<line x1="1453" y1="187.5" x2="1485" y2="187.5" stroke="#25313b" stroke-width="2.2" marker-end="url(#arrow)"/>
<line x1="1740" y1="187.5" x2="1772" y2="187.5" stroke="#25313b" stroke-width="2.2" marker-end="url(#arrow)"/>
<path d="M 1899.5 260 L 1899.5 350 L 464.5 350 L 464.5 260" fill="none" stroke="#5d6973" stroke-width="2" stroke-dasharray="7 7" marker-end="url(#arrow2)"/>
<text x="1050.0" y="386" text-anchor="middle" font-family="Arial" font-size="26" font-weight="600" fill="#3f4b55">monitoring can reopen review when evidence changes</text>
<rect x="630.0" y="510" width="840" height="98" rx="12" fill="white" stroke="#2d4052" stroke-width="2.2"/>
<text x="664.0" y="549" font-family="Arial" font-size="22" font-weight="700" fill="#2d4052">GOVERNANCE PRINCIPLE</text>
<line x1="664.0" y1="562" x2="1436.0" y2="562" stroke="#98a4ae"/>
<text x="1050.0" y="592" text-anchor="middle" font-family="Arial" font-size="28" font-weight="600" fill="#1f2933">AI recommends. Humans decide and own consequences.</text>
</svg>