<svg xmlns="http://www.w3.org/2000/svg" width="1400" height="1100" viewBox="0 0 1400 1100">
<rect width="100%" height="100%" fill="white"/>
<line x1="700" y1="155" x2="700.0" y2="360.0" stroke="#9aa7b4" stroke-width="2"/>
<line x1="320" y1="325" x2="572.8" y2="441.4" stroke="#9aa7b4" stroke-width="2"/>
<line x1="1080" y1="325" x2="827.2" y2="441.4" stroke="#9aa7b4" stroke-width="2"/>
<line x1="310" y1="655" x2="569.9" y2="551.7" stroke="#9aa7b4" stroke-width="2"/>
<line x1="1090" y1="655" x2="830.1" y2="551.7" stroke="#9aa7b4" stroke-width="2"/>
<line x1="700" y1="835" x2="700.0" y2="640.0" stroke="#9aa7b4" stroke-width="2"/>
<circle cx="700" cy="500" r="140" fill="#eef3f8" stroke="#3f5368" stroke-width="3"/>
<text x="700" y="485" text-anchor="middle" font-family="Arial" font-size="30" font-weight="700">Coordinated</text>
<text x="700" y="525" text-anchor="middle" font-family="Arial" font-size="30" font-weight="700">Work</text>
<rect x="560" y="110" width="280" height="90" rx="14" fill="white" stroke="#56677d" stroke-width="2"/>
<text x="700.0" y="165" text-anchor="middle" font-family="Arial" font-size="26" font-weight="700">People</text>
<rect x="180" y="280" width="280" height="90" rx="14" fill="white" stroke="#56677d" stroke-width="2"/>
<text x="320.0" y="335" text-anchor="middle" font-family="Arial" font-size="26" font-weight="700">Governance</text>
<rect x="940" y="280" width="280" height="90" rx="14" fill="white" stroke="#56677d" stroke-width="2"/>
<text x="1080.0" y="335" text-anchor="middle" font-family="Arial" font-size="26" font-weight="700">Workflows</text>
<rect x="170" y="610" width="280" height="90" rx="14" fill="white" stroke="#56677d" stroke-width="2"/>
<text x="310.0" y="665" text-anchor="middle" font-family="Arial" font-size="26" font-weight="700">Evidence</text>
<rect x="950" y="610" width="280" height="90" rx="14" fill="white" stroke="#56677d" stroke-width="2"/>
<text x="1090.0" y="665" text-anchor="middle" font-family="Arial" font-size="26" font-weight="700">Technology</text>
<rect x="560" y="790" width="280" height="90" rx="14" fill="white" stroke="#56677d" stroke-width="2"/>
<text x="700.0" y="845" text-anchor="middle" font-family="Arial" font-size="26" font-weight="700">Operations</text>
<line x1="700" y1="880" x2="700" y2="955" stroke="#7a8795" stroke-width="2"/>
<rect x="360" y="955" width="680" height="85" rx="16" fill="#f4f6f8" stroke="#56677d" stroke-width="2"/>
<text x="700" y="1008" text-anchor="middle" font-family="Arial" font-size="30" font-weight="700">Trustworthy Engineering</text>
</svg>