<svg xmlns="http://www.w3.org/2000/svg" width="1700" height="1200" viewBox="0 0 1700 1200">
<rect width="100%" height="100%" fill="white"/>
<rect x="80" y="90" width="360" height="72" rx="12" fill="white" stroke="#56677d" stroke-width="2"/>
<text x="260.0" y="135" text-anchor="middle" font-family="Arial, Helvetica, sans-serif" font-size="26" font-weight="600">Unclear Ownership</text>
<rect x="80" y="180" width="360" height="72" rx="12" fill="white" stroke="#56677d" stroke-width="2"/>
<text x="260.0" y="225" text-anchor="middle" font-family="Arial, Helvetica, sans-serif" font-size="26" font-weight="600">Hidden Dependencies</text>
<rect x="80" y="270" width="360" height="72" rx="12" fill="white" stroke="#56677d" stroke-width="2"/>
<text x="260.0" y="315" text-anchor="middle" font-family="Arial, Helvetica, sans-serif" font-size="26" font-weight="600">Missing Evidence</text>
<rect x="80" y="360" width="360" height="72" rx="12" fill="white" stroke="#56677d" stroke-width="2"/>
<text x="260.0" y="405" text-anchor="middle" font-family="Arial, Helvetica, sans-serif" font-size="26" font-weight="600">Stale Documentation</text>
<rect x="80" y="450" width="360" height="72" rx="12" fill="white" stroke="#56677d" stroke-width="2"/>
<text x="260.0" y="495" text-anchor="middle" font-family="Arial, Helvetica, sans-serif" font-size="26" font-weight="600">Unmanaged Assumptions</text>
<rect x="80" y="540" width="360" height="72" rx="12" fill="white" stroke="#56677d" stroke-width="2"/>
<text x="260.0" y="585" text-anchor="middle" font-family="Arial, Helvetica, sans-serif" font-size="26" font-weight="600">Disconnected Tools</text>
<rect x="80" y="630" width="360" height="72" rx="12" fill="white" stroke="#56677d" stroke-width="2"/>
<text x="260.0" y="675" text-anchor="middle" font-family="Arial, Helvetica, sans-serif" font-size="26" font-weight="600">Local Optimization</text>
<rect x="80" y="720" width="360" height="72" rx="12" fill="white" stroke="#56677d" stroke-width="2"/>
<text x="260.0" y="765" text-anchor="middle" font-family="Arial, Helvetica, sans-serif" font-size="26" font-weight="600">Unreviewed AI Output</text>
<rect x="80" y="810" width="360" height="72" rx="12" fill="white" stroke="#56677d" stroke-width="2"/>
<text x="260.0" y="855" text-anchor="middle" font-family="Arial, Helvetica, sans-serif" font-size="26" font-weight="600">Weak Escalation Paths</text>
<rect x="80" y="900" width="360" height="72" rx="12" fill="white" stroke="#56677d" stroke-width="2"/>
<text x="260.0" y="945" text-anchor="middle" font-family="Arial, Helvetica, sans-serif" font-size="26" font-weight="600">No Operational Visibility</text>
<rect x="735" y="250" width="390" height="90" rx="14" fill="#eef3f8" stroke="#3f5368" stroke-width="2.5"/>
<text x="930.0" y="305" text-anchor="middle" font-family="Arial, Helvetica, sans-serif" font-size="30" font-weight="700">Reduced Visibility</text>
<rect x="735" y="470" width="390" height="90" rx="14" fill="#eef3f8" stroke="#3f5368" stroke-width="2.5"/>
<text x="930.0" y="525" text-anchor="middle" font-family="Arial, Helvetica, sans-serif" font-size="30" font-weight="700">Reduced Coordination</text>
<rect x="735" y="690" width="390" height="90" rx="14" fill="#eef3f8" stroke="#3f5368" stroke-width="2.5"/>
<text x="930.0" y="745" text-anchor="middle" font-family="Arial, Helvetica, sans-serif" font-size="30" font-weight="700">Reduced Trustworthiness</text>
<line x1="440" y1="126.0" x2="735" y2="295" stroke="#9aa7b4" stroke-width="2"/>
<line x1="440" y1="216.0" x2="735" y2="295" stroke="#9aa7b4" stroke-width="2"/>
<line x1="440" y1="306.0" x2="735" y2="295" stroke="#9aa7b4" stroke-width="2"/>
<line x1="440" y1="396.0" x2="735" y2="295" stroke="#9aa7b4" stroke-width="2"/>
<line x1="440" y1="486.0" x2="735" y2="295" stroke="#9aa7b4" stroke-width="2"/>
<line x1="440" y1="576.0" x2="735" y2="295" stroke="#9aa7b4" stroke-width="2"/>
<line x1="440" y1="666.0" x2="735" y2="295" stroke="#9aa7b4" stroke-width="2"/>
<line x1="440" y1="756.0" x2="735" y2="295" stroke="#9aa7b4" stroke-width="2"/>
<line x1="440" y1="846.0" x2="735" y2="295" stroke="#9aa7b4" stroke-width="2"/>
<line x1="440" y1="936.0" x2="735" y2="295" stroke="#9aa7b4" stroke-width="2"/>
<line x1="930.0" y1="340" x2="930.0" y2="470" stroke="#7a8795" stroke-width="3"/>
<line x1="930.0" y1="560" x2="930.0" y2="690" stroke="#7a8795" stroke-width="3"/>
<line x1="930.0" y1="780" x2="930.0" y2="920" stroke="#7a8795" stroke-width="3"/>
<rect x="620" y="920" width="610" height="210" rx="18" fill="#f4f6f8" stroke="#56677d" stroke-width="3"/>
<text x="925.0" y="970" text-anchor="middle" font-family="Arial, Helvetica, sans-serif" font-size="38" font-weight="700">Operational Failure</text>
<text x="925.0" y="1015" text-anchor="middle" font-family="Arial, Helvetica, sans-serif" font-size="28">Delayed Decisions</text>
<text x="925.0" y="1050" text-anchor="middle" font-family="Arial, Helvetica, sans-serif" font-size="28">Incorrect Actions</text>
<text x="925.0" y="1085" text-anchor="middle" font-family="Arial, Helvetica, sans-serif" font-size="28">Poor Recovery</text>
<text x="925.0" y="1112" text-anchor="middle" font-family="Arial, Helvetica, sans-serif" font-size="28">Institutional Risk</text>
</svg>