<?xml version="1.0" encoding="UTF-8"?>
<svg width="1600" height="900" viewBox="0 0 1600 900" xmlns="http://www.w3.org/2000/svg">
<rect width="1600" height="900" fill="white"/><rect x="30" y="22" width="1540" height="840" rx="8" fill="white" stroke="#163A63" stroke-width="2.2"/><rect x="70" y="60" width="430" height="600" rx="7" fill="#F7FAFE" stroke="#1F4E79" stroke-width="2"/><text x="285.0" y="96" text-anchor="middle" font-family="DejaVu Sans, Arial, sans-serif" font-size="30" font-weight="800" fill="#163A63">
<tspan x="285.0" dy="0">Review Inputs</tspan>
</text><rect x="105" y="135" width="360" height="42" rx="5" fill="white" stroke="#1F4E79" stroke-width="1.5"/><text x="285.0" y="162" text-anchor="middle" font-family="DejaVu Sans, Arial, sans-serif" font-size="20" font-weight="800" fill="#111827">
<tspan x="285.0" dy="0">Release Authority Records</tspan>
</text><rect x="105" y="189" width="360" height="42" rx="5" fill="white" stroke="#1F4E79" stroke-width="1.5"/><text x="285.0" y="216" text-anchor="middle" font-family="DejaVu Sans, Arial, sans-serif" font-size="20" font-weight="800" fill="#111827">
<tspan x="285.0" dy="0">Incident &amp; Recovery Evidence</tspan>
</text><rect x="105" y="243" width="360" height="42" rx="5" fill="white" stroke="#1F4E79" stroke-width="1.5"/><text x="285.0" y="270" text-anchor="middle" font-family="DejaVu Sans, Arial, sans-serif" font-size="20" font-weight="800" fill="#111827">
<tspan x="285.0" dy="0">Reliability Records</tspan>
</text><rect x="105" y="297" width="360" height="42" rx="5" fill="white" stroke="#1F4E79" stroke-width="1.5"/><text x="285.0" y="324" text-anchor="middle" font-family="DejaVu Sans, Arial, sans-serif" font-size="20" font-weight="800" fill="#111827">
<tspan x="285.0" dy="0">AI Governance Artifacts</tspan>
</text><rect x="105" y="351" width="360" height="42" rx="5" fill="white" stroke="#1F4E79" stroke-width="1.5"/><text x="285.0" y="378" text-anchor="middle" font-family="DejaVu Sans, Arial, sans-serif" font-size="20" font-weight="800" fill="#111827">
<tspan x="285.0" dy="0">Security Governance Evidence</tspan>
</text><rect x="105" y="405" width="360" height="42" rx="5" fill="white" stroke="#1F4E79" stroke-width="1.5"/><text x="285.0" y="432" text-anchor="middle" font-family="DejaVu Sans, Arial, sans-serif" font-size="20" font-weight="800" fill="#111827">
<tspan x="285.0" dy="0">Known Limitations</tspan>
</text><rect x="105" y="459" width="360" height="42" rx="5" fill="white" stroke="#1F4E79" stroke-width="1.5"/><text x="285.0" y="486" text-anchor="middle" font-family="DejaVu Sans, Arial, sans-serif" font-size="20" font-weight="800" fill="#111827">
<tspan x="285.0" dy="0">Stakeholder Drafts</tspan>
</text><rect x="105" y="513" width="360" height="42" rx="5" fill="white" stroke="#1F4E79" stroke-width="1.5"/><text x="285.0" y="540" text-anchor="middle" font-family="DejaVu Sans, Arial, sans-serif" font-size="20" font-weight="800" fill="#111827">
<tspan x="285.0" dy="0">Transparency Records</tspan>
</text><rect x="105" y="567" width="360" height="42" rx="5" fill="white" stroke="#1F4E79" stroke-width="1.5"/><text x="285.0" y="594" text-anchor="middle" font-family="DejaVu Sans, Arial, sans-serif" font-size="20" font-weight="800" fill="#111827">
<tspan x="285.0" dy="0">Trust Evidence Map</tspan>
</text><rect x="560" y="130" width="480" height="515" rx="8" fill="#F7FBF7" stroke="#2F5F3A" stroke-width="2.2"/><text x="800.0" y="175" text-anchor="middle" font-family="DejaVu Sans, Arial, sans-serif" font-size="31" font-weight="800" fill="#2F5F3A">
<tspan x="800.0" dy="0">Trust and</tspan>
<tspan x="800.0" dy="36">Transparency Review</tspan>
</text><rect x="610" y="265" width="380" height="46" rx="5" fill="white" stroke="#2F5F3A" stroke-width="1.5"/><text x="800.0" y="295" text-anchor="middle" font-family="DejaVu Sans, Arial, sans-serif" font-size="22" font-weight="800" fill="#111827">
<tspan x="800.0" dy="0">Evidence-backed?</tspan>
</text><rect x="610" y="325" width="380" height="46" rx="5" fill="white" stroke="#2F5F3A" stroke-width="1.5"/><text x="800.0" y="355" text-anchor="middle" font-family="DejaVu Sans, Arial, sans-serif" font-size="22" font-weight="800" fill="#111827">
<tspan x="800.0" dy="0">Limitation-aware?</tspan>
</text><rect x="610" y="385" width="380" height="46" rx="5" fill="white" stroke="#2F5F3A" stroke-width="1.5"/><text x="800.0" y="415" text-anchor="middle" font-family="DejaVu Sans, Arial, sans-serif" font-size="22" font-weight="800" fill="#111827">
<tspan x="800.0" dy="0">Stakeholder-appropriate?</tspan>
</text><rect x="610" y="445" width="380" height="46" rx="5" fill="white" stroke="#2F5F3A" stroke-width="1.5"/><text x="800.0" y="475" text-anchor="middle" font-family="DejaVu Sans, Arial, sans-serif" font-size="22" font-weight="800" fill="#111827">
<tspan x="800.0" dy="0">AI-transparent?</tspan>
</text><rect x="610" y="505" width="380" height="46" rx="5" fill="white" stroke="#2F5F3A" stroke-width="1.5"/><text x="800.0" y="535" text-anchor="middle" font-family="DejaVu Sans, Arial, sans-serif" font-size="22" font-weight="800" fill="#111827">
<tspan x="800.0" dy="0">Governance-visible?</tspan>
</text><rect x="610" y="565" width="380" height="56" rx="5" fill="white" stroke="#2F5F3A" stroke-width="1.5"/><text x="800.0" y="590" text-anchor="middle" font-family="DejaVu Sans, Arial, sans-serif" font-size="22" font-weight="800" fill="#111827">
<tspan x="800.0" dy="0">Accountable?</tspan>
</text><rect x="1100" y="60" width="430" height="600" rx="7" fill="#FFFDF7" stroke="#9A6500" stroke-width="2"/><text x="1315.0" y="96" text-anchor="middle" font-family="DejaVu Sans, Arial, sans-serif" font-size="30" font-weight="800" fill="#7A4B00">
<tspan x="1315.0" dy="0">Review Outcomes</tspan>
</text><rect x="1135" y="146" width="360" height="46" rx="5" fill="white" stroke="#9A6500" stroke-width="1.5"/><text x="1315.0" y="176" text-anchor="middle" font-family="DejaVu Sans, Arial, sans-serif" font-size="20" font-weight="800" fill="#111827">
<tspan x="1315.0" dy="0">Approved Transparency Posture</tspan>
</text><rect x="1135" y="206" width="360" height="46" rx="5" fill="white" stroke="#9A6500" stroke-width="1.5"/><text x="1315.0" y="236" text-anchor="middle" font-family="DejaVu Sans, Arial, sans-serif" font-size="20" font-weight="800" fill="#111827">
<tspan x="1315.0" dy="0">Limitation Disclosure</tspan>
</text><rect x="1135" y="266" width="360" height="46" rx="5" fill="white" stroke="#9A6500" stroke-width="1.5"/><text x="1315.0" y="296" text-anchor="middle" font-family="DejaVu Sans, Arial, sans-serif" font-size="20" font-weight="800" fill="#111827">
<tspan x="1315.0" dy="0">Stakeholder Obligations</tspan>
</text><rect x="1135" y="326" width="360" height="46" rx="5" fill="white" stroke="#9A6500" stroke-width="1.5"/><text x="1315.0" y="356" text-anchor="middle" font-family="DejaVu Sans, Arial, sans-serif" font-size="20" font-weight="800" fill="#111827">
<tspan x="1315.0" dy="0">AI Transparency Requirements</tspan>
</text><rect x="1135" y="386" width="360" height="46" rx="5" fill="white" stroke="#9A6500" stroke-width="1.5"/><text x="1315.0" y="416" text-anchor="middle" font-family="DejaVu Sans, Arial, sans-serif" font-size="20" font-weight="800" fill="#111827">
<tspan x="1315.0" dy="0">Residual-Risk Ownership</tspan>
</text><rect x="1135" y="446" width="360" height="46" rx="5" fill="white" stroke="#9A6500" stroke-width="1.5"/><text x="1315.0" y="476" text-anchor="middle" font-family="DejaVu Sans, Arial, sans-serif" font-size="20" font-weight="800" fill="#111827">
<tspan x="1315.0" dy="0">Evidence Gap Actions</tspan>
</text><rect x="1135" y="506" width="360" height="46" rx="5" fill="white" stroke="#9A6500" stroke-width="1.5"/><text x="1315.0" y="536" text-anchor="middle" font-family="DejaVu Sans, Arial, sans-serif" font-size="20" font-weight="800" fill="#111827">
<tspan x="1315.0" dy="0">Follow-up Review</tspan>
</text><rect x="1135" y="566" width="360" height="46" rx="5" fill="white" stroke="#9A6500" stroke-width="1.5"/><text x="1315.0" y="596" text-anchor="middle" font-family="DejaVu Sans, Arial, sans-serif" font-size="20" font-weight="800" fill="#111827">
<tspan x="1315.0" dy="0">Part IV Stewardship Handoff</tspan>
</text>
<line x1="500" y1="390" x2="544" y2="390" stroke="#1F4E79" stroke-width="5" stroke-linecap="round"/>
<polygon points="544,379 544,401 560,390" fill="#1F4E79"/>

<line x1="1040" y1="390" x2="1084" y2="390" stroke="#1F4E79" stroke-width="5" stroke-linecap="round"/>
<polygon points="1084,379 1084,401 1100,390" fill="#1F4E79"/>
<rect x="290" y="700" width="1020" height="70" rx="6" fill="#FAFAFE" stroke="#4B3B73" stroke-width="2"/><text x="800" y="730" text-anchor="middle" font-family="DejaVu Sans, Arial, sans-serif" font-size="22" font-weight="800" fill="#4B3B73">
<tspan x="800" dy="0">Review record: /docs/governance/reviews/trust_transparency_review_record.md</tspan>
</text><text x="800" y="757" text-anchor="middle" font-family="DejaVu Sans, Arial, sans-serif" font-size="20" font-weight="700" fill="#111827">
<tspan x="800" dy="0">Outputs preserve owners, conditions, evidence gaps, and follow-up timing.</tspan>
</text><rect x="70" y="792" width="1460" height="50" rx="5" fill="#F7FAFE" stroke="#163A63" stroke-width="2"/><text x="800" y="824" text-anchor="middle" font-family="DejaVu Sans, Arial, sans-serif" font-size="23" font-weight="800" fill="#163A63">
<tspan x="800" dy="0">Trust claims are reviewed like any consequential engineering claim.</tspan>
</text>
</svg>