<svg xmlns="http://www.w3.org/2000/svg" width="1600" height="1000" viewBox="0 0 1600 1000"><rect width="100%" height="100%" fill="white"/><rect x="30" y="22" width="1540" height="945" rx="8" fill="white" stroke="#163A63" stroke-width="2.2"/><rect x="55" y="50" width="470" height="565" rx="7" fill="#F7FAFE" stroke="#1F4E79" stroke-width="2"/><text x="290.0" y="84" text-anchor="middle" font-family="DejaVu Sans, Arial" font-size="26" font-weight="800" fill="#1F4E79"><tspan x="290.0" dy="0">Internal Operational</tspan><tspan x="290.0" dy="31">Evidence</tspan></text><rect x="555" y="50" width="470" height="565" rx="7" fill="#F7FBF7" stroke="#2F5F3A" stroke-width="2"/><text x="790.0" y="84" text-anchor="middle" font-family="DejaVu Sans, Arial" font-size="26" font-weight="800" fill="#2F5F3A"><tspan x="790.0" dy="0">Transparency Control</tspan><tspan x="790.0" dy="31">Layer</tspan></text><rect x="1065" y="50" width="470" height="565" rx="7" fill="#FFFDF7" stroke="#9A6500" stroke-width="2"/><text x="1300.0" y="84" text-anchor="middle" font-family="DejaVu Sans, Arial" font-size="26" font-weight="800" fill="#7A4B00"><tspan x="1300.0" dy="0">Stakeholder</tspan><tspan x="1300.0" dy="31">Transparency</tspan></text><rect x="85" y="150" width="410" height="78" rx="5" fill="white" stroke="#1F4E79" stroke-width="1.5"/><text x="290.0" y="175" text-anchor="middle" font-family="DejaVu Sans, Arial" font-size="21" font-weight="800" fill="#163A63"><tspan x="290.0" dy="0">Runtime Evidence</tspan></text><text x="290.0" y="205" text-anchor="middle" font-family="DejaVu Sans, Arial" font-size="18" font-weight="400" fill="#111"><tspan x="290.0" dy="0">signals, thresholds,</tspan><tspan x="290.0" dy="20">operational state</tspan></text><rect x="85" y="242" width="410" height="78" rx="5" fill="white" stroke="#1F4E79" stroke-width="1.5"/><text x="290.0" y="267" text-anchor="middle" font-family="DejaVu Sans, Arial" font-size="21" font-weight="800" fill="#163A63"><tspan x="290.0" dy="0">Release Evidence</tspan></text><text x="290.0" y="297" text-anchor="middle" font-family="DejaVu Sans, Arial" font-size="18" font-weight="400" fill="#111"><tspan x="290.0" dy="0">conditions, authority,</tspan><tspan x="290.0" dy="20">risk acceptance</tspan></text><rect x="85" y="334" width="410" height="78" rx="5" fill="white" stroke="#1F4E79" stroke-width="1.5"/><text x="290.0" y="359" text-anchor="middle" font-family="DejaVu Sans, Arial" font-size="21" font-weight="800" fill="#163A63"><tspan x="290.0" dy="0">Recovery Evidence</tspan></text><text x="290.0" y="389" text-anchor="middle" font-family="DejaVu Sans, Arial" font-size="18" font-weight="400" fill="#111"><tspan x="290.0" dy="0">fallback, recovery,</tspan><tspan x="290.0" dy="20">verification</tspan></text><rect x="85" y="426" width="410" height="78" rx="5" fill="white" stroke="#1F4E79" stroke-width="1.5"/><text x="290.0" y="451" text-anchor="middle" font-family="DejaVu Sans, Arial" font-size="21" font-weight="800" fill="#163A63"><tspan x="290.0" dy="0">AI Governance Evidence</tspan></text><text x="290.0" y="481" text-anchor="middle" font-family="DejaVu Sans, Arial" font-size="18" font-weight="400" fill="#111"><tspan x="290.0" dy="0">scope, approval,</tspan><tspan x="290.0" dy="20">monitoring, revocation</tspan></text><rect x="85" y="518" width="410" height="78" rx="5" fill="white" stroke="#1F4E79" stroke-width="1.5"/><text x="290.0" y="543" text-anchor="middle" font-family="DejaVu Sans, Arial" font-size="21" font-weight="800" fill="#163A63"><tspan x="290.0" dy="0">Security Governance Evidence</tspan></text><text x="290.0" y="573" text-anchor="middle" font-family="DejaVu Sans, Arial" font-size="18" font-weight="400" fill="#111"><tspan x="290.0" dy="0">data protection,</tspan><tspan x="290.0" dy="20">disclosure boundaries</tspan></text><rect x="600" y="170" width="380" height="88" rx="5" fill="white" stroke="#2F5F3A" stroke-width="1.5"/><text x="790.0" y="201" text-anchor="middle" font-family="DejaVu Sans, Arial" font-size="23" font-weight="800" fill="#111"><tspan x="790.0" dy="0">Trust Claims</tspan></text><text x="790.0" y="235" text-anchor="middle" font-family="DejaVu Sans, Arial" font-size="19" font-weight="400" fill="#111"><tspan x="790.0" dy="0">what can be said honestly</tspan></text><rect x="600" y="283" width="380" height="88" rx="5" fill="white" stroke="#2F5F3A" stroke-width="1.5"/><text x="790.0" y="314" text-anchor="middle" font-family="DejaVu Sans, Arial" font-size="23" font-weight="800" fill="#111"><tspan x="790.0" dy="0">Known Limitations</tspan></text><text x="790.0" y="348" text-anchor="middle" font-family="DejaVu Sans, Arial" font-size="19" font-weight="400" fill="#111"><tspan x="790.0" dy="0">what must remain visible</tspan></text><rect x="600" y="396" width="380" height="88" rx="5" fill="white" stroke="#2F5F3A" stroke-width="1.5"/><text x="790.0" y="427" text-anchor="middle" font-family="DejaVu Sans, Arial" font-size="23" font-weight="800" fill="#111"><tspan x="790.0" dy="0">Approval Owners</tspan></text><text x="790.0" y="461" text-anchor="middle" font-family="DejaVu Sans, Arial" font-size="19" font-weight="400" fill="#111"><tspan x="790.0" dy="0">who approves the message</tspan></text><rect x="600" y="509" width="380" height="88" rx="5" fill="white" stroke="#2F5F3A" stroke-width="1.5"/><text x="790.0" y="540" text-anchor="middle" font-family="DejaVu Sans, Arial" font-size="23" font-weight="800" fill="#111"><tspan x="790.0" dy="0">Disclosure Rules</tspan></text><text x="790.0" y="574" text-anchor="middle" font-family="DejaVu Sans, Arial" font-size="19" font-weight="400" fill="#111"><tspan x="790.0" dy="0">what stays internal and why</tspan></text><rect x="1095" y="150" width="410" height="78" rx="5" fill="white" stroke="#9A6500" stroke-width="1.5"/><text x="1300.0" y="175" text-anchor="middle" font-family="DejaVu Sans, Arial" font-size="21" font-weight="800" fill="#7A4B00"><tspan x="1300.0" dy="0">Student Services</tspan></text><text x="1300.0" y="205" text-anchor="middle" font-family="DejaVu Sans, Arial" font-size="18" font-weight="400" fill="#111"><tspan x="1300.0" dy="0">handoff reliability,</tspan><tspan x="1300.0" dy="20">fallback, contacts</tspan></text><rect x="1095" y="242" width="410" height="78" rx="5" fill="white" stroke="#9A6500" stroke-width="1.5"/><text x="1300.0" y="267" text-anchor="middle" font-family="DejaVu Sans, Arial" font-size="21" font-weight="800" fill="#7A4B00"><tspan x="1300.0" dy="0">Community Outreach</tspan></text><text x="1300.0" y="297" text-anchor="middle" font-family="DejaVu Sans, Arial" font-size="18" font-weight="400" fill="#111"><tspan x="1300.0" dy="0">partner language,</tspan><tspan x="1300.0" dy="20">limits, commitments</tspan></text><rect x="1095" y="334" width="410" height="78" rx="5" fill="white" stroke="#9A6500" stroke-width="1.5"/><text x="1300.0" y="359" text-anchor="middle" font-family="DejaVu Sans, Arial" font-size="21" font-weight="800" fill="#7A4B00"><tspan x="1300.0" dy="0">IT Operations</tspan></text><text x="1300.0" y="389" text-anchor="middle" font-family="DejaVu Sans, Arial" font-size="18" font-weight="400" fill="#111"><tspan x="1300.0" dy="0">signals, thresholds,</tspan><tspan x="1300.0" dy="20">runbook actions</tspan></text><rect x="1095" y="426" width="410" height="78" rx="5" fill="white" stroke="#9A6500" stroke-width="1.5"/><text x="1300.0" y="451" text-anchor="middle" font-family="DejaVu Sans, Arial" font-size="21" font-weight="800" fill="#7A4B00"><tspan x="1300.0" dy="0">Governance Reviewers</tspan></text><text x="1300.0" y="481" text-anchor="middle" font-family="DejaVu Sans, Arial" font-size="18" font-weight="400" fill="#111"><tspan x="1300.0" dy="0">evidence, risks,</tspan><tspan x="1300.0" dy="20">AI boundaries</tspan></text><rect x="1095" y="518" width="410" height="78" rx="5" fill="white" stroke="#9A6500" stroke-width="1.5"/><text x="1300.0" y="543" text-anchor="middle" font-family="DejaVu Sans, Arial" font-size="21" font-weight="800" fill="#7A4B00"><tspan x="1300.0" dy="0">Leadership</tspan></text><text x="1300.0" y="573" text-anchor="middle" font-family="DejaVu Sans, Arial" font-size="18" font-weight="400" fill="#111"><tspan x="1300.0" dy="0">confidence posture,</tspan><tspan x="1300.0" dy="20">limits, decisions</tspan></text><line x1="525" y1="332" x2="555" y2="332" stroke="#1F4E79" stroke-width="4"/><polygon points="541,322 555,332 541,342" fill="#1F4E79"/><line x1="1025" y1="332" x2="1065" y2="332" stroke="#1F4E79" stroke-width="4"/><polygon points="1051,322 1065,332 1051,342" fill="#1F4E79"/><line x1="290.0" y1="615" x2="290.0" y2="636" stroke="#1F4E79" stroke-width="4"/><polygon points="280.0,636 300.0,636 290.0,650" fill="#1F4E79"/><line x1="790.0" y1="615" x2="790.0" y2="636" stroke="#1F4E79" stroke-width="4"/><polygon points="780.0,636 800.0,636 790.0,650" fill="#1F4E79"/><line x1="1300.0" y1="615" x2="1300.0" y2="636" stroke="#1F4E79" stroke-width="4"/><polygon points="1290.0,636 1310.0,636 1300.0,650" fill="#1F4E79"/><rect x="170" y="650" width="1260" height="168" rx="7" fill="#FAFAFE" stroke="#4B3B73" stroke-width="2"/><text x="800" y="685" text-anchor="middle" font-family="DejaVu Sans, Arial" font-size="28" font-weight="800" fill="#4B3B73"><tspan x="800" dy="0">COMMUNICATION AND TRANSPARENCY RECORD</tspan></text><rect x="215" y="724" width="360" height="82" rx="5" fill="white" stroke="#4B3B73" stroke-width="1.5"/><text x="395" y="752" text-anchor="middle" font-family="DejaVu Sans, Arial" font-size="21" font-weight="800" fill="#111"><tspan x="395" dy="0">Stakeholder Transparency Matrix</tspan></text><text x="395" y="783" text-anchor="middle" font-family="DejaVu Sans, Arial" font-size="18" font-weight="400" fill="#111"><tspan x="395" dy="0">stakeholders, evidence,</tspan><tspan x="395" dy="20">limits, approvals</tspan></text><rect x="620" y="724" width="360" height="82" rx="5" fill="white" stroke="#4B3B73" stroke-width="1.5"/><text x="800" y="752" text-anchor="middle" font-family="DejaVu Sans, Arial" font-size="21" font-weight="800" fill="#111"><tspan x="800" dy="0">Transparency Record</tspan></text><text x="800" y="783" text-anchor="middle" font-family="DejaVu Sans, Arial" font-size="18" font-weight="400" fill="#111"><tspan x="800" dy="0">what was disclosed,</tspan><tspan x="800" dy="20">to whom, when</tspan></text><rect x="1025" y="724" width="360" height="82" rx="5" fill="white" stroke="#4B3B73" stroke-width="1.5"/><text x="1205" y="752" text-anchor="middle" font-family="DejaVu Sans, Arial" font-size="21" font-weight="800" fill="#111"><tspan x="1205" dy="0">Communication Record</tspan></text><text x="1205" y="783" text-anchor="middle" font-family="DejaVu Sans, Arial" font-size="18" font-weight="400" fill="#111"><tspan x="1205" dy="0">approved message,</tspan><tspan x="1205" dy="20">preserved evidence</tspan></text><rect x="70" y="855" width="1460" height="76" rx="5" fill="#F7FAFE" stroke="#163A63" stroke-width="2"/><text x="800" y="885" text-anchor="middle" font-family="DejaVu Sans, Arial" font-size="22" font-weight="800" fill="#163A63"><tspan x="800" dy="0">Governing principle: transparency makes the right truth visible to the right audience</tspan></text><text x="800" y="913" text-anchor="middle" font-family="DejaVu Sans, Arial" font-size="22" font-weight="800" fill="#163A63"><tspan x="800" dy="0">with evidence, limitations, approval, and accountability.</tspan></text></svg>