<svg xmlns="http://www.w3.org/2000/svg" width="1600" height="430" viewBox="0 0 1600 430">
<defs>
<marker id="arrowhead" markerWidth="10" markerHeight="8" refX="9" refY="4" orient="auto" markerUnits="strokeWidth"><path d="M 0 0 L 10 4 L 0 8 z" fill="#2f3b45"/></marker>
</defs>
<rect x="0" y="0" width="1600" height="430" fill="#ffffff"/>
<rect x="40" y="90" width="210" height="245" rx="14" ry="14" fill="#f4f8fb" stroke="#2f3b45" stroke-width="2.4"/>
<text x="145.0" y="148" text-anchor="middle" font-family="Aptos, Arial, Helvetica, sans-serif" font-size="27" font-weight="700" fill="#17212b">
<tspan x="145.0" dy="0">Technical</tspan>
<tspan x="145.0" dy="34">Contribution</tspan>
</text>
<line x1="66" y1="208" x2="224" y2="208" stroke="#c6d1da" stroke-width="2"/>
<text x="145.0" y="258" text-anchor="middle" font-family="Aptos, Arial, Helvetica, sans-serif" font-size="28" font-weight="700" fill="#17212b">
<tspan x="145.0" dy="0">Coder</tspan>
<tspan x="145.0" dy="42">Contributor</tspan>
</text>
<rect x="305" y="90" width="260" height="245" rx="14" ry="14" fill="#f6f8f5" stroke="#2f3b45" stroke-width="2.4"/>
<text x="435.0" y="148" text-anchor="middle" font-family="Aptos, Arial, Helvetica, sans-serif" font-size="27" font-weight="700" fill="#17212b">
<tspan x="435.0" dy="0">Review and</tspan>
<tspan x="435.0" dy="34">Design Judgment</tspan>
</text>
<line x1="331" y1="208" x2="539" y2="208" stroke="#c6d1da" stroke-width="2"/>
<text x="435.0" y="258" text-anchor="middle" font-family="Aptos, Arial, Helvetica, sans-serif" font-size="29" font-weight="700" fill="#17212b">
<tspan x="435.0" dy="0">Reviewer</tspan>
<tspan x="435.0" dy="42">Architect</tspan>
</text>
<rect x="620" y="90" width="350" height="245" rx="14" ry="14" fill="#f8f7f2" stroke="#2f3b45" stroke-width="2.4"/>
<text x="795.0" y="148" text-anchor="middle" font-family="Aptos, Arial, Helvetica, sans-serif" font-size="27" font-weight="700" fill="#17212b">
<tspan x="795.0" dy="0">Operational</tspan>
<tspan x="795.0" dy="34">Responsibility</tspan>
</text>
<line x1="646" y1="208" x2="944" y2="208" stroke="#c6d1da" stroke-width="2"/>
<text x="795.0" y="258" text-anchor="middle" font-family="Aptos, Arial, Helvetica, sans-serif" font-size="29" font-weight="700" fill="#17212b">
<tspan x="795.0" dy="0">Release Engineer</tspan>
<tspan x="795.0" dy="42">Operational Engineer</tspan>
</text>
<rect x="1025" y="90" width="220" height="245" rx="14" ry="14" fill="#f5f7f9" stroke="#2f3b45" stroke-width="2.4"/>
<text x="1135.0" y="148" text-anchor="middle" font-family="Aptos, Arial, Helvetica, sans-serif" font-size="27" font-weight="700" fill="#17212b">
<tspan x="1135.0" dy="0">Stewardship</tspan>
</text>
<line x1="1051" y1="208" x2="1219" y2="208" stroke="#c6d1da" stroke-width="2"/>
<text x="1135.0" y="258" text-anchor="middle" font-family="Aptos, Arial, Helvetica, sans-serif" font-size="28" font-weight="700" fill="#17212b">
<tspan x="1135.0" dy="0">Engineering</tspan>
<tspan x="1135.0" dy="42">Steward</tspan>
</text>
<rect x="1300" y="70" width="270" height="285" rx="16" ry="16" fill="#fff7df" stroke="#6b5a2e" stroke-width="3.1"/>
<text x="1435.0" y="152" text-anchor="middle" font-family="Aptos, Arial, Helvetica, sans-serif" font-size="33" font-weight="800" fill="#17212b">
<tspan x="1435.0" dy="0">Future</tspan>
<tspan x="1435.0" dy="42">Trustworthy</tspan>
<tspan x="1435.0" dy="42">Engineer</tspan>
</text>
<line x1="1332" y1="275" x2="1538" y2="275" stroke="#d6c681" stroke-width="2.3"/>
<text x="1435.0" y="320" text-anchor="middle" font-family="Aptos, Arial, Helvetica, sans-serif" font-size="29" font-weight="800" fill="#2f2a16">
<tspan x="1435.0" dy="0">Defensible trust</tspan>
</text>
<line x1="250" y1="212.5" x2="305" y2="212.5" stroke="#2f3b45" stroke-width="3.0" marker-end="url(#arrowhead)" stroke-linecap="round"/>
<line x1="565" y1="212.5" x2="620" y2="212.5" stroke="#2f3b45" stroke-width="3.0" marker-end="url(#arrowhead)" stroke-linecap="round"/>
<line x1="970" y1="212.5" x2="1025" y2="212.5" stroke="#2f3b45" stroke-width="3.0" marker-end="url(#arrowhead)" stroke-linecap="round"/>
<line x1="1245" y1="212.5" x2="1300" y2="212.5" stroke="#2f3b45" stroke-width="3.0" marker-end="url(#arrowhead)" stroke-linecap="round"/>
</svg>