<svg xmlns="http://www.w3.org/2000/svg" width="1600" height="1000" viewBox="0 0 1600 1000">
<defs><marker id="arrow" markerWidth="12" markerHeight="12" refX="10" refY="6" orient="auto" markerUnits="strokeWidth"><path d="M 0 0 L 12 6 L 0 12 z" fill="#24364a"/></marker></defs>
<rect x="20" y="20" width="1560" height="960" rx="16" fill="#ffffff" stroke="#24364a" stroke-width="2.5"/>
<rect x="80" y="55" width="1440" height="70" rx="10" fill="#f6f7f8" stroke="#535f6b" stroke-width="2"/>
<text x="800" y="88" font-family="Arial, Helvetica, sans-serif" font-size="30" font-weight="700" text-anchor="middle" fill="#111111">Understandability is engineered access to meaning</text>
<text x="800" y="118" font-family="Arial, Helvetica, sans-serif" font-size="21" font-weight="400" text-anchor="middle" fill="#111111">Each role needs the evidence, authority, uncertainty, and action options required for its decisions.</text>
<text x="235" y="180" font-family="Arial, Helvetica, sans-serif" font-size="25" font-weight="700" text-anchor="middle" fill="#111111">Evidence and Context Inputs</text>
<text x="1345" y="180" font-family="Arial, Helvetica, sans-serif" font-size="25" font-weight="700" text-anchor="middle" fill="#111111">Accountable Roles</text>
<rect x="80" y="215" width="310" height="76" rx="10" fill="#eef5fb" stroke="#2e5578" stroke-width="2"/>
<text x="235.0" y="261.0" font-family="Arial, Helvetica, sans-serif" font-size="22" font-weight="700" text-anchor="middle" fill="#111111">Repository Evidence</text>
<rect x="80" y="311" width="310" height="76" rx="10" fill="#eef5fb" stroke="#2e5578" stroke-width="2"/>
<text x="235.0" y="357.0" font-family="Arial, Helvetica, sans-serif" font-size="22" font-weight="700" text-anchor="middle" fill="#111111">Context Sources</text>
<rect x="80" y="407" width="310" height="76" rx="10" fill="#eef5fb" stroke="#2e5578" stroke-width="2"/>
<text x="235.0" y="453.0" font-family="Arial, Helvetica, sans-serif" font-size="22" font-weight="700" text-anchor="middle" fill="#111111">Runtime Signals</text>
<rect x="80" y="503" width="310" height="76" rx="10" fill="#eef5fb" stroke="#2e5578" stroke-width="2"/>
<text x="235.0" y="537.0" font-family="Arial, Helvetica, sans-serif" font-size="22" font-weight="700" text-anchor="middle" fill="#111111">Runbooks and Review</text>
<text x="235.0" y="562.0" font-family="Arial, Helvetica, sans-serif" font-size="22" font-weight="700" text-anchor="middle" fill="#111111">Records</text>
<rect x="80" y="599" width="310" height="76" rx="10" fill="#eef5fb" stroke="#2e5578" stroke-width="2"/>
<text x="235.0" y="645.0" font-family="Arial, Helvetica, sans-serif" font-size="22" font-weight="700" text-anchor="middle" fill="#111111">AI Summary Traces</text>
<rect x="1210" y="215" width="310" height="76" rx="10" fill="#f2f8ef" stroke="#557a4d" stroke-width="2"/>
<text x="1365.0" y="261.0" font-family="Arial, Helvetica, sans-serif" font-size="22" font-weight="700" text-anchor="middle" fill="#111111">Operations Coordinator</text>
<rect x="1210" y="311" width="310" height="76" rx="10" fill="#f2f8ef" stroke="#557a4d" stroke-width="2"/>
<text x="1365.0" y="357.0" font-family="Arial, Helvetica, sans-serif" font-size="22" font-weight="700" text-anchor="middle" fill="#111111">Security Reviewer</text>
<rect x="1210" y="407" width="310" height="76" rx="10" fill="#f2f8ef" stroke="#557a4d" stroke-width="2"/>
<text x="1365.0" y="453.0" font-family="Arial, Helvetica, sans-serif" font-size="22" font-weight="700" text-anchor="middle" fill="#111111">Release Authority</text>
<rect x="1210" y="503" width="310" height="76" rx="10" fill="#f2f8ef" stroke="#557a4d" stroke-width="2"/>
<text x="1365.0" y="549.0" font-family="Arial, Helvetica, sans-serif" font-size="22" font-weight="700" text-anchor="middle" fill="#111111">Engineering Maintainer</text>
<rect x="1210" y="599" width="310" height="76" rx="10" fill="#f2f8ef" stroke="#557a4d" stroke-width="2"/>
<text x="1365.0" y="645.0" font-family="Arial, Helvetica, sans-serif" font-size="22" font-weight="700" text-anchor="middle" fill="#111111">Review Board</text>
<rect x="470" y="185" width="660" height="565" rx="14" fill="#ffffff" stroke="#1f3a56" stroke-width="2.8"/>
<text x="800.0" y="221" font-family="Arial, Helvetica, sans-serif" font-size="30" font-weight="700" text-anchor="middle" fill="#111111">Understandability Architecture</text>
<text x="800.0" y="252" font-family="Arial, Helvetica, sans-serif" font-size="20" font-weight="400" text-anchor="middle" fill="#111111">Interfaces between evidence and responsibility</text>
<rect x="525" y="292" width="550" height="92" rx="10" fill="#fff7e7" stroke="#8b6b2f" stroke-width="2"/>
<text x="800.0" y="324" font-family="Arial, Helvetica, sans-serif" font-size="24" font-weight="700" text-anchor="middle" fill="#111111">Role-Based Decision Surfaces</text>
<text x="800.0" y="354" font-family="Arial, Helvetica, sans-serif" font-size="18" font-weight="400" text-anchor="middle" fill="#111111">operations, security, release, maintenance,</text>
<text x="800.0" y="376" font-family="Arial, Helvetica, sans-serif" font-size="18" font-weight="400" text-anchor="middle" fill="#111111">review board</text>
<rect x="525" y="408" width="550" height="92" rx="10" fill="#f4f1ea" stroke="#6f5b3b" stroke-width="2"/>
<text x="800.0" y="440" font-family="Arial, Helvetica, sans-serif" font-size="24" font-weight="700" text-anchor="middle" fill="#111111">Evidence Paths</text>
<text x="800.0" y="470" font-family="Arial, Helvetica, sans-serif" font-size="18" font-weight="400" text-anchor="middle" fill="#111111">claim to source evidence, authority, and owner</text>
<rect x="525" y="524" width="550" height="92" rx="10" fill="#f6f7f8" stroke="#535f6b" stroke-width="2"/>
<text x="800.0" y="556" font-family="Arial, Helvetica, sans-serif" font-size="24" font-weight="700" text-anchor="middle" fill="#111111">Uncertainty and Exceptions</text>
<text x="800.0" y="586" font-family="Arial, Helvetica, sans-serif" font-size="18" font-weight="400" text-anchor="middle" fill="#111111">freshness, limits, conflicts, partial retirement</text>
<rect x="525" y="640" width="550" height="92" rx="10" fill="#eef7f2" stroke="#47705a" stroke-width="2"/>
<text x="800.0" y="672" font-family="Arial, Helvetica, sans-serif" font-size="24" font-weight="700" text-anchor="middle" fill="#111111">Authority and Action Options</text>
<text x="800.0" y="702" font-family="Arial, Helvetica, sans-serif" font-size="18" font-weight="400" text-anchor="middle" fill="#111111">approve, reject, escalate, intervene,</text>
<text x="800.0" y="724" font-family="Arial, Helvetica, sans-serif" font-size="18" font-weight="400" text-anchor="middle" fill="#111111">investigate</text>
<path d="M 390 253.0 L 430 253.0 L 430 338 L 515 338" stroke="#24364a" stroke-width="2.0" fill="none" marker-end="url(#arrow)"/>
<path d="M 1130 338 L 1170 338 L 1170 253.0 L 1200 253.0" stroke="#24364a" stroke-width="2.0" fill="none" marker-end="url(#arrow)"/>
<path d="M 390 349.0 L 430 349.0 L 430 454 L 515 454" stroke="#24364a" stroke-width="2.0" fill="none" marker-end="url(#arrow)"/>
<path d="M 1130 454 L 1170 454 L 1170 349.0 L 1200 349.0" stroke="#24364a" stroke-width="2.0" fill="none" marker-end="url(#arrow)"/>
<path d="M 390 445.0 L 430 445.0 L 430 570 L 515 570" stroke="#24364a" stroke-width="2.0" fill="none" marker-end="url(#arrow)"/>
<path d="M 1130 570 L 1170 570 L 1170 445.0 L 1200 445.0" stroke="#24364a" stroke-width="2.0" fill="none" marker-end="url(#arrow)"/>
<path d="M 390 541.0 L 430 541.0 L 430 686 L 515 686" stroke="#24364a" stroke-width="2.0" fill="none" marker-end="url(#arrow)"/>
<path d="M 1130 686 L 1170 686 L 1170 541.0 L 1200 541.0" stroke="#24364a" stroke-width="2.0" fill="none" marker-end="url(#arrow)"/>
<path d="M 390 637.0 L 430 637.0 L 430 686 L 515 686" stroke="#24364a" stroke-width="2.0" fill="none" marker-end="url(#arrow)"/>
<path d="M 1130 686 L 1170 686 L 1170 637.0 L 1200 637.0" stroke="#24364a" stroke-width="2.0" fill="none" marker-end="url(#arrow)"/>
<line x1="800.0" y1="750" x2="800.0" y2="808" stroke="#24364a" stroke-width="2.5" fill="none" marker-end="url(#arrow)"/>
<rect x="180" y="820" width="1240" height="90" rx="12" fill="#f8faf9" stroke="#47705a" stroke-width="2.3"/>
<text x="800" y="856" font-family="Arial, Helvetica, sans-serif" font-size="27" font-weight="700" text-anchor="middle" fill="#111111">Governed Outcome</text>
<text x="800" y="888" font-family="Arial, Helvetica, sans-serif" font-size="22" font-weight="400" text-anchor="middle" fill="#111111">Responsible humans can form an accurate enough mental model to decide, challenge, escalate, or intervene.</text>
<rect x="285" y="925" width="1030" height="36" rx="8" fill="#ffffff" stroke="#535f6b" stroke-width="1.6"/>
<text x="800" y="949" font-family="Arial, Helvetica, sans-serif" font-size="18" font-weight="600" text-anchor="middle" fill="#111111">Understandability is not simplicity; necessary complexity must be visible, navigable, bounded, and role-appropriate.</text>
</svg>