
<svg xmlns="http://www.w3.org/2000/svg" width="1800" height="1100" viewBox="0 0 1800 1100">
<rect width="100%" height="100%" fill="white"/>

<text x="220" y="115" text-anchor="middle" font-family="Arial" font-size="30" font-weight="700">Traditional Lifecycle Tempo</text>
<text x="1000" y="115" text-anchor="middle" font-family="Arial" font-size="30" font-weight="700">AI-Assisted Lifecycle Tempo</text>

<!-- Traditional lifecycle -->
<rect x="90" y="170" width="260" height="70" rx="12" fill="white" stroke="#56677d" stroke-width="2"/>
<text x="220" y="214" text-anchor="middle" font-family="Arial" font-size="24" font-weight="700">Idea</text>

<rect x="90" y="300" width="260" height="70" rx="12" fill="white" stroke="#56677d" stroke-width="2"/>
<text x="220" y="344" text-anchor="middle" font-family="Arial" font-size="24" font-weight="700">Draft</text>

<rect x="90" y="430" width="260" height="70" rx="12" fill="white" stroke="#56677d" stroke-width="2"/>
<text x="220" y="474" text-anchor="middle" font-family="Arial" font-size="24" font-weight="700">Code / Tests / Docs</text>

<rect x="90" y="590" width="260" height="70" rx="12" fill="#eef3f8" stroke="#3f5368" stroke-width="2.5"/>
<text x="220" y="634" text-anchor="middle" font-family="Arial" font-size="24" font-weight="700">Review</text>

<rect x="90" y="720" width="260" height="70" rx="12" fill="#eef3f8" stroke="#3f5368" stroke-width="2.5"/>
<text x="220" y="764" text-anchor="middle" font-family="Arial" font-size="24" font-weight="700">Evidence</text>

<rect x="90" y="850" width="260" height="70" rx="12" fill="#eef3f8" stroke="#3f5368" stroke-width="2.5"/>
<text x="220" y="894" text-anchor="middle" font-family="Arial" font-size="24" font-weight="700">Release Judgment</text>

<!-- restored connectors -->
<line x1="220" y1="240" x2="220" y2="300" stroke="#7a8795" stroke-width="3"/>
<line x1="220" y1="370" x2="220" y2="430" stroke="#7a8795" stroke-width="3"/>
<line x1="220" y1="500" x2="220" y2="590" stroke="#7a8795" stroke-width="3"/>
<line x1="220" y1="660" x2="220" y2="720" stroke="#7a8795" stroke-width="3"/>
<line x1="220" y1="790" x2="220" y2="850" stroke="#7a8795" stroke-width="3"/>

<!-- AI lifecycle -->
<rect x="770" y="170" width="460" height="70" rx="12" fill="white" stroke="#56677d" stroke-width="2"/>
<text x="1000" y="214" text-anchor="middle" font-family="Arial" font-size="24" font-weight="700">Idea</text>

<rect x="770" y="270" width="460" height="70" rx="12" fill="white" stroke="#56677d" stroke-width="2"/>
<text x="1000" y="314" text-anchor="middle" font-family="Arial" font-size="24" font-weight="700">AI-Assisted Draft</text>

<rect x="770" y="370" width="460" height="70" rx="12" fill="white" stroke="#56677d" stroke-width="2"/>
<text x="1000" y="414" text-anchor="middle" font-family="Arial" font-size="24" font-weight="700">AI-Assisted Code / Tests / Docs</text>

<line x1="1000" y1="240" x2="1000" y2="270" stroke="#7a8795" stroke-width="3"/>
<line x1="1000" y1="340" x2="1000" y2="370" stroke="#7a8795" stroke-width="3"/>

<rect x="1290" y="170" width="310" height="270" rx="16" fill="#fbf8ef" stroke="#8a6f36" stroke-width="2"/>
<text x="1445" y="240" text-anchor="middle" font-family="Arial" font-size="26" font-weight="700">Compressed</text>
<text x="1445" y="275" text-anchor="middle" font-family="Arial" font-size="26" font-weight="700">Production</text>
<text x="1445" y="335" text-anchor="middle" font-family="Arial" font-size="21">More artifacts</text>
<text x="1445" y="365" text-anchor="middle" font-family="Arial" font-size="21">arrive sooner</text>

<rect x="770" y="590" width="460" height="70" rx="12" fill="#eef3f8" stroke="#3f5368" stroke-width="2.5"/>
<text x="1000" y="634" text-anchor="middle" font-family="Arial" font-size="24" font-weight="700">Review</text>

<rect x="770" y="720" width="460" height="70" rx="12" fill="#eef3f8" stroke="#3f5368" stroke-width="2.5"/>
<text x="1000" y="764" text-anchor="middle" font-family="Arial" font-size="24" font-weight="700">Evidence</text>

<rect x="770" y="850" width="460" height="70" rx="12" fill="#eef3f8" stroke="#3f5368" stroke-width="2.5"/>
<text x="1000" y="894" text-anchor="middle" font-family="Arial" font-size="24" font-weight="700">Release Judgment</text>

<!-- restored AI connectors -->
<line x1="1000" y1="440" x2="1000" y2="590" stroke="#7a8795" stroke-width="3"/>
<line x1="1000" y1="660" x2="1000" y2="720" stroke="#7a8795" stroke-width="3"/>
<line x1="1000" y1="790" x2="1000" y2="850" stroke="#7a8795" stroke-width="3"/>

<rect x="1290" y="590" width="360" height="200" rx="16" fill="white" stroke="#56677d" stroke-width="2"/>
<text x="1470" y="650" text-anchor="middle" font-family="Arial" font-size="25" font-weight="700">Control Functions</text>
<text x="1470" y="685" text-anchor="middle" font-family="Arial" font-size="25" font-weight="700">Do Not Disappear</text>
<text x="1470" y="735" text-anchor="middle" font-family="Arial" font-size="21">Review, governance,</text>
<text x="1470" y="765" text-anchor="middle" font-family="Arial" font-size="21">evidence, and learning</text>

<!-- bottom principle, no connector -->
<rect x="420" y="955" width="1160" height="110" rx="14" fill="#f4f6f8" stroke="#56677d" stroke-width="2.5"/>
<text x="1000" y="1000" text-anchor="middle" font-family="Arial" font-size="24" font-weight="700">Operational Learning Still Depends on</text>
<text x="1000" y="1035" text-anchor="middle" font-family="Arial" font-size="24" font-weight="700">Review, Evidence, Governance, and Human Judgment</text>
</svg>
