
<svg xmlns="http://www.w3.org/2000/svg" width="1900" height="920" viewBox="0 0 1900 920">
<rect width="100%" height="100%" fill="white"/>

<!-- Inputs -->
<rect x="60" y="120" width="260" height="80" rx="12" fill="white" stroke="#56677d" stroke-width="2.5"/>
<text x="190" y="170" text-anchor="middle" font-family="Arial" font-size="32" font-weight="700">Claim</text>

<rect x="410" y="120" width="260" height="80" rx="12" fill="white" stroke="#56677d" stroke-width="2.5"/>
<text x="540" y="170" text-anchor="middle" font-family="Arial" font-size="28" font-weight="700">AI Involvement</text>

<rect x="760" y="120" width="260" height="80" rx="12" fill="white" stroke="#56677d" stroke-width="2.5"/>
<text x="890" y="170" text-anchor="middle" font-family="Arial" font-size="32" font-weight="700">Evidence</text>

<rect x="1110" y="120" width="260" height="80" rx="12" fill="white" stroke="#56677d" stroke-width="2.5"/>
<text x="1240" y="170" text-anchor="middle" font-family="Arial" font-size="32" font-weight="700">Risk</text>

<rect x="1460" y="120" width="320" height="80" rx="12" fill="white" stroke="#56677d" stroke-width="2.5"/>
<text x="1620" y="170" text-anchor="middle" font-family="Arial" font-size="26" font-weight="700">Governance Impact</text>

<!-- Convergence -->
<line x1="190" y1="200" x2="190" y2="300" stroke="#7a8795" stroke-width="3"/>
<line x1="540" y1="200" x2="540" y2="300" stroke="#7a8795" stroke-width="3"/>
<line x1="890" y1="200" x2="890" y2="300" stroke="#7a8795" stroke-width="3"/>
<line x1="1240" y1="200" x2="1240" y2="300" stroke="#7a8795" stroke-width="3"/>
<line x1="1620" y1="200" x2="1620" y2="300" stroke="#7a8795" stroke-width="3"/>

<line x1="190" y1="300" x2="1620" y2="300" stroke="#7a8795" stroke-width="3"/>
<line x1="950" y1="300" x2="950" y2="330" stroke="#7a8795" stroke-width="3"/>

<!-- Gate -->
<rect x="650" y="330" width="600" height="140" rx="16" fill="#eef3f8" stroke="#3f5368" stroke-width="3"/>
<text x="950" y="395" text-anchor="middle" font-family="Arial" font-size="36" font-weight="700">AI Lifecycle</text>
<text x="950" y="440" text-anchor="middle" font-family="Arial" font-size="36" font-weight="700">Pressure Review</text>

<!-- Output distribution -->
<line x1="950" y1="470" x2="950" y2="560" stroke="#7a8795" stroke-width="3"/>
<line x1="195" y1="560" x2="1730" y2="560" stroke="#7a8795" stroke-width="3"/>

<line x1="195" y1="560" x2="195" y2="620" stroke="#7a8795" stroke-width="3"/>
<line x1="535" y1="560" x2="535" y2="620" stroke="#7a8795" stroke-width="3"/>
<line x1="900" y1="560" x2="900" y2="620" stroke="#7a8795" stroke-width="3"/>
<line x1="1330" y1="560" x2="1330" y2="620" stroke="#7a8795" stroke-width="3"/>
<line x1="1730" y1="560" x2="1730" y2="620" stroke="#7a8795" stroke-width="3"/>

<!-- Outputs -->
<rect x="70" y="620" width="250" height="80" rx="12" fill="white" stroke="#56677d" stroke-width="2.5"/>
<text x="195" y="670" text-anchor="middle" font-family="Arial" font-size="28" font-weight="700">Accept</text>

<rect x="410" y="620" width="250" height="80" rx="12" fill="white" stroke="#56677d" stroke-width="2.5"/>
<text x="535" y="670" text-anchor="middle" font-family="Arial" font-size="28" font-weight="700">Revise</text>

<rect x="750" y="620" width="300" height="80" rx="12" fill="white" stroke="#56677d" stroke-width="2.5"/>
<text x="900" y="670" text-anchor="middle" font-family="Arial" font-size="26" font-weight="700">Require Evidence</text>

<rect x="1140" y="620" width="380" height="80" rx="12" fill="white" stroke="#56677d" stroke-width="2.5"/>
<text x="1330" y="670" text-anchor="middle" font-family="Arial" font-size="22" font-weight="700">Escalate Governance Review</text>

<rect x="1610" y="620" width="240" height="80" rx="12" fill="white" stroke="#56677d" stroke-width="2.5"/>
<text x="1730" y="670" text-anchor="middle" font-family="Arial" font-size="26" font-weight="700">Defer Release</text>

<!-- Principle -->
<rect x="520" y="765" width="860" height="110" rx="14" fill="#f4f6f8" stroke="#56677d" stroke-width="3"/>
<text x="950" y="820" text-anchor="middle" font-family="Arial" font-size="32" font-weight="700">AI Acceleration Must Remain</text>
<text x="950" y="862" text-anchor="middle" font-family="Arial" font-size="32" font-weight="700">Under Engineering Control</text>
</svg>
