
<svg xmlns="http://www.w3.org/2000/svg" width="1800" height="1100" viewBox="0 0 1800 1100">
<rect width="100%" height="100%" fill="white"/>

<!-- Context inputs -->
<rect x="120" y="120" width="300" height="80" rx="12" fill="white" stroke="#56677d" stroke-width="2.5"/>
<text x="270" y="170" text-anchor="middle" font-family="Arial" font-size="26" font-weight="700">Requirements</text>

<rect x="120" y="240" width="300" height="80" rx="12" fill="white" stroke="#56677d" stroke-width="2.5"/>
<text x="270" y="290" text-anchor="middle" font-family="Arial" font-size="26" font-weight="700">Architecture</text>

<rect x="120" y="360" width="300" height="80" rx="12" fill="white" stroke="#56677d" stroke-width="2.5"/>
<text x="270" y="410" text-anchor="middle" font-family="Arial" font-size="24" font-weight="700">Repository Evidence</text>

<rect x="120" y="480" width="300" height="80" rx="12" fill="white" stroke="#56677d" stroke-width="2.5"/>
<text x="270" y="530" text-anchor="middle" font-family="Arial" font-size="24" font-weight="700">Policy &amp; Governance</text>

<rect x="120" y="600" width="300" height="80" rx="12" fill="white" stroke="#56677d" stroke-width="2.5"/>
<text x="270" y="650" text-anchor="middle" font-family="Arial" font-size="24" font-weight="700">Operational Constraints</text>

<!-- AI assistance -->
<rect x="700" y="320" width="400" height="160" rx="16" fill="#eef3f8" stroke="#3f5368" stroke-width="3"/>
<text x="900" y="385" text-anchor="middle" font-family="Arial" font-size="32" font-weight="700">Bounded</text>
<text x="900" y="430" text-anchor="middle" font-family="Arial" font-size="32" font-weight="700">AI Assistance</text>

<!-- Connectors -->
<line x1="420" y1="160" x2="700" y2="370" stroke="#7a8795" stroke-width="3"/>
<line x1="420" y1="280" x2="700" y2="390" stroke="#7a8795" stroke-width="3"/>
<line x1="420" y1="400" x2="700" y2="410" stroke="#7a8795" stroke-width="3"/>
<line x1="420" y1="520" x2="700" y2="430" stroke="#7a8795" stroke-width="3"/>
<line x1="420" y1="640" x2="700" y2="450" stroke="#7a8795" stroke-width="3"/>

<!-- Proposed artifact -->
<rect x="1280" y="360" width="320" height="80" rx="12" fill="white" stroke="#56677d" stroke-width="2.5"/>
<text x="1440" y="410" text-anchor="middle" font-family="Arial" font-size="26" font-weight="700">Proposed Artifact</text>

<line x1="1100" y1="400" x2="1280" y2="400" stroke="#7a8795" stroke-width="3"/>

<!-- Verification -->
<rect x="1280" y="560" width="320" height="90" rx="12" fill="#eef3f8" stroke="#3f5368" stroke-width="3"/>
<text x="1440" y="615" text-anchor="middle" font-family="Arial" font-size="28" font-weight="700">Human Verification</text>

<line x1="1440" y1="440" x2="1440" y2="560" stroke="#7a8795" stroke-width="3"/>

<!-- Evidence update -->
<rect x="1280" y="770" width="380" height="90" rx="12" fill="white" stroke="#56677d" stroke-width="2.5"/>
<text x="1470" y="825" text-anchor="middle" font-family="Arial" font-size="24" font-weight="700">Repository Evidence Updated</text>

<line x1="1440" y1="650" x2="1440" y2="770" stroke="#7a8795" stroke-width="3"/>

<!-- Principle box -->
<rect x="620" y="960" width="560" height="90" rx="14" fill="#f4f6f8" stroke="#56677d" stroke-width="3"/>
<text x="900" y="1018" text-anchor="middle" font-family="Arial" font-size="34" font-weight="700">Context Is Control</text>

</svg>
