<?xml version="1.0" encoding="UTF-8"?>
<svg width="1200" height="1120" viewBox="0 0 1200 1120" xmlns="http://www.w3.org/2000/svg">
<defs>
<marker id="arrow" markerWidth="12" markerHeight="12" refX="10" refY="6" orient="auto">
<path d="M2,2 L10,6 L2,10 Z" fill="#374151"/>
</marker>
<style>
.title{font-family:Arial,sans-serif;font-size:34px;font-weight:700;fill:#1F2933;text-anchor:middle}
.label{font-family:Arial,sans-serif;font-size:28px;font-weight:700;fill:#1F2933;text-anchor:middle;dominant-baseline:middle}
.small{font-family:Arial,sans-serif;font-size:25px;font-weight:700;fill:#1F2933;text-anchor:middle;dominant-baseline:middle}
.generated{fill:#EEF1F4;stroke:#5C6873;stroke-width:2.4}
.layer{fill:#F4F8FC;stroke:#47657E;stroke-width:2.2}
.accepted{fill:#EFEAF5;stroke:#67577B;stroke-width:2.4}
.arrow{stroke:#374151;stroke-width:3.2;fill:none;marker-end:url(#arrow)}
</style>
</defs>

<text x="600" y="55" class="title">Generated Implementation Must Respect...</text>

<rect x="320" y="85" width="560" height="78" rx="18" class="generated"/>
<text x="600" y="124" class="label">Generated Implementation</text>

<path d="M600 163 L600 205" class="arrow"/>

<rect x="220" y="210" width="760" height="78" rx="16" class="layer"/>
<text x="600" y="249" class="small">Requirements &amp; Acceptance Criteria</text>

<rect x="220" y="305" width="760" height="78" rx="16" class="layer"/>
<text x="600" y="344" class="small">Architecture Structure</text>

<rect x="220" y="400" width="760" height="78" rx="16" class="layer"/>
<text x="600" y="439" class="small">ADRs &amp; Rejected Alternatives</text>

<rect x="220" y="495" width="760" height="78" rx="16" class="layer"/>
<text x="600" y="534" class="small">Data Ownership &amp; Source of Truth</text>

<rect x="220" y="590" width="760" height="78" rx="16" class="layer"/>
<text x="600" y="629" class="small">AI / Authority / Context Boundaries</text>

<rect x="220" y="685" width="760" height="78" rx="16" class="layer"/>
<text x="600" y="724" class="small">Security, Privacy, Fallback &amp; Recovery</text>

<rect x="220" y="780" width="760" height="78" rx="16" class="layer"/>
<text x="600" y="819" class="small">Tests, Repository Evidence &amp; Reviews</text>

<rect x="220" y="875" width="760" height="78" rx="16" class="layer"/>
<text x="600" y="914" class="small">Known Limitations &amp; Release Constraints</text>

<path d="M600 953 L600 995" class="arrow"/>

<rect x="260" y="1000" width="680" height="82" rx="18" class="accepted"/>
<text x="600" y="1041" class="label">Accept Only After Engineer Verification</text>
</svg>
