<?xml version="1.0" encoding="UTF-8"?>
<svg width="1600" height="900" viewBox="0 0 1600 900" xmlns="http://www.w3.org/2000/svg">
<rect width="1600" height="900" fill="white"/><rect x="30" y="22" width="1540" height="840" rx="8" fill="white" stroke="#163A63" stroke-width="2.2"/><rect x="540.0" y="52" width="520" height="86" rx="7" fill="#F7FAFE" stroke="#1F4E79" stroke-width="2"/>
<text x="800" y="84" text-anchor="middle" font-family="DejaVu Sans, Arial, sans-serif" font-size="25" font-weight="800" fill="#1F4E79">
<tspan x="800" dy="0">Proposed Agentic Workflow</tspan>
</text>
<text x="800" y="115" text-anchor="middle" font-family="DejaVu Sans, Arial, sans-serif" font-size="19" font-weight="500" fill="#111827">
<tspan x="800" dy="0">requested authority expansion</tspan>
</text><line x1="800" y1="138" x2="800.0" y2="151.0" stroke="#1F4E79" stroke-width="4" stroke-linecap="round"/><polygon points="791.0,151.0 809.0,151.0 800,166" fill="#1F4E79"/><rect x="140.0" y="166" width="1320" height="142" rx="7" fill="#F7FAFE" stroke="#1F4E79" stroke-width="2"/><text x="800" y="198" text-anchor="middle" font-family="DejaVu Sans, Arial, sans-serif" font-size="27" font-weight="800" fill="#1F4E79">
<tspan x="800" dy="0">Evidence Package</tspan>
</text><rect x="155.0" y="220.0" width="290" height="32" rx="5" fill="white" stroke="#1F4E79" stroke-width="1.4"/><text x="300" y="243" text-anchor="middle" font-family="DejaVu Sans, Arial, sans-serif" font-size="17" font-weight="800" fill="#111827">
<tspan x="300" dy="0">Workflow Policy</tspan>
</text><rect x="490.0" y="220.0" width="290" height="32" rx="5" fill="white" stroke="#1F4E79" stroke-width="1.4"/><text x="635" y="243" text-anchor="middle" font-family="DejaVu Sans, Arial, sans-serif" font-size="17" font-weight="800" fill="#111827">
<tspan x="635" dy="0">Tool Authority Matrix</tspan>
</text><rect x="820.0" y="220.0" width="290" height="32" rx="5" fill="white" stroke="#1F4E79" stroke-width="1.4"/><text x="965" y="243" text-anchor="middle" font-family="DejaVu Sans, Arial, sans-serif" font-size="17" font-weight="800" fill="#111827">
<tspan x="965" dy="0">Context Sources</tspan>
</text><rect x="1155.0" y="220.0" width="290" height="32" rx="5" fill="white" stroke="#1F4E79" stroke-width="1.4"/><text x="1300" y="243" text-anchor="middle" font-family="DejaVu Sans, Arial, sans-serif" font-size="17" font-weight="800" fill="#111827">
<tspan x="1300" dy="0">Approval Flow</tspan>
</text><rect x="155.0" y="260.0" width="290" height="32" rx="5" fill="white" stroke="#1F4E79" stroke-width="1.4"/><text x="300" y="283" text-anchor="middle" font-family="DejaVu Sans, Arial, sans-serif" font-size="17" font-weight="800" fill="#111827">
<tspan x="300" dy="0">Monitoring Plan</tspan>
</text><rect x="490.0" y="260.0" width="290" height="32" rx="5" fill="white" stroke="#1F4E79" stroke-width="1.4"/><text x="635" y="283" text-anchor="middle" font-family="DejaVu Sans, Arial, sans-serif" font-size="17" font-weight="800" fill="#111827">
<tspan x="635" dy="0">Fallback Runbook</tspan>
</text><rect x="820.0" y="260.0" width="290" height="32" rx="5" fill="white" stroke="#1F4E79" stroke-width="1.4"/><text x="965" y="283" text-anchor="middle" font-family="DejaVu Sans, Arial, sans-serif" font-size="17" font-weight="800" fill="#111827">
<tspan x="965" dy="0">Revocation Plan</tspan>
</text><rect x="1155.0" y="260.0" width="290" height="32" rx="5" fill="white" stroke="#1F4E79" stroke-width="1.4"/><text x="1300" y="283" text-anchor="middle" font-family="DejaVu Sans, Arial, sans-serif" font-size="17" font-weight="800" fill="#111827">
<tspan x="1300" dy="0">Sample Action Logs</tspan>
</text><line x1="800" y1="308" x2="800.0" y2="325.0" stroke="#1F4E79" stroke-width="4" stroke-linecap="round"/><polygon points="791.0,325.0 809.0,325.0 800,340" fill="#1F4E79"/><rect x="450.0" y="340" width="700" height="130" rx="8" fill="#FFFDF7" stroke="#9A6500" stroke-width="2.2"/><text x="800" y="380" text-anchor="middle" font-family="DejaVu Sans, Arial, sans-serif" font-size="31" font-weight="800" fill="#7A4B00">
<tspan x="800" dy="0">Agentic Workflow Review</tspan>
</text><text x="800" y="423" text-anchor="middle" font-family="DejaVu Sans, Arial, sans-serif" font-size="22" font-weight="600" fill="#111827">
<tspan x="800" dy="0">challenge capability, authority, oversight,</tspan>
<tspan x="800" dy="25">recovery, and accountability</tspan>
</text><line x1="800" y1="470" x2="800.0" y2="485.0" stroke="#1F4E79" stroke-width="4" stroke-linecap="round"/><polygon points="791.0,485.0 809.0,485.0 800,500" fill="#1F4E79"/><rect x="70" y="500" width="1460" height="114" rx="7" fill="#F7FBF7" stroke="#2F5F3A" stroke-width="2"/><text x="800" y="531" text-anchor="middle" font-family="DejaVu Sans, Arial, sans-serif" font-size="27" font-weight="800" fill="#2F5F3A">
<tspan x="800" dy="0">Review Challenge</tspan>
</text><rect x="88" y="560" width="198" height="36" rx="5" fill="white" stroke="#2F5F3A" stroke-width="1.3"/><text x="187.0" y="584" text-anchor="middle" font-family="DejaVu Sans, Arial, sans-serif" font-size="15" font-weight="800" fill="#111827">
<tspan x="187.0" dy="0">Authority bounded?</tspan>
</text><rect x="295" y="560" width="198" height="36" rx="5" fill="white" stroke="#2F5F3A" stroke-width="1.3"/><text x="394.0" y="584" text-anchor="middle" font-family="DejaVu Sans, Arial, sans-serif" font-size="15" font-weight="800" fill="#111827">
<tspan x="394.0" dy="0">Least privilege?</tspan>
</text><rect x="502" y="560" width="198" height="36" rx="5" fill="white" stroke="#2F5F3A" stroke-width="1.3"/><text x="601.0" y="584" text-anchor="middle" font-family="DejaVu Sans, Arial, sans-serif" font-size="15" font-weight="800" fill="#111827">
<tspan x="601.0" dy="0">Approval meaningful?</tspan>
</text><rect x="709" y="560" width="198" height="36" rx="5" fill="white" stroke="#2F5F3A" stroke-width="1.3"/><text x="808.0" y="584" text-anchor="middle" font-family="DejaVu Sans, Arial, sans-serif" font-size="15" font-weight="800" fill="#111827">
<tspan x="808.0" dy="0">Monitoring sufficient?</tspan>
</text><rect x="916" y="560" width="198" height="36" rx="5" fill="white" stroke="#2F5F3A" stroke-width="1.3"/><text x="1015.0" y="584" text-anchor="middle" font-family="DejaVu Sans, Arial, sans-serif" font-size="15" font-weight="800" fill="#111827">
<tspan x="1015.0" dy="0">Rollback possible?</tspan>
</text><rect x="1123" y="560" width="198" height="36" rx="5" fill="white" stroke="#2F5F3A" stroke-width="1.3"/><text x="1222.0" y="584" text-anchor="middle" font-family="DejaVu Sans, Arial, sans-serif" font-size="15" font-weight="800" fill="#111827">
<tspan x="1222.0" dy="0">Revocation defined?</tspan>
</text><rect x="1330" y="560" width="198" height="36" rx="5" fill="white" stroke="#2F5F3A" stroke-width="1.3"/><text x="1429.0" y="584" text-anchor="middle" font-family="DejaVu Sans, Arial, sans-serif" font-size="15" font-weight="800" fill="#111827">
<tspan x="1429.0" dy="0">Ownership assigned?</tspan>
</text><line x1="800" y1="614" x2="800.0" y2="625.0" stroke="#1F4E79" stroke-width="4" stroke-linecap="round"/><polygon points="791.0,625.0 809.0,625.0 800,640" fill="#1F4E79"/><rect x="120" y="640" width="260" height="74" rx="7" fill="#F7FBF7" stroke="#2F5F3A" stroke-width="2"/><text x="250.0" y="686" text-anchor="middle" font-family="DejaVu Sans, Arial, sans-serif" font-size="25" font-weight="800" fill="#2F5F3A">
<tspan x="250.0" dy="0">Approve</tspan>
</text><rect x="405" y="640" width="260" height="74" rx="7" fill="#FFFDF7" stroke="#9A6500" stroke-width="2"/><text x="535.0" y="686" text-anchor="middle" font-family="DejaVu Sans, Arial, sans-serif" font-size="25" font-weight="800" fill="#9A6500">
<tspan x="535.0" dy="0">Constrain</tspan>
</text><rect x="690" y="640" width="260" height="74" rx="7" fill="#F7FAFE" stroke="#1F4E79" stroke-width="2"/><text x="820.0" y="686" text-anchor="middle" font-family="DejaVu Sans, Arial, sans-serif" font-size="25" font-weight="800" fill="#1F4E79">
<tspan x="820.0" dy="0">Defer</tspan>
</text><rect x="975" y="640" width="260" height="74" rx="7" fill="#FAFAFE" stroke="#4B3B73" stroke-width="2"/><text x="1105.0" y="686" text-anchor="middle" font-family="DejaVu Sans, Arial, sans-serif" font-size="25" font-weight="800" fill="#4B3B73">
<tspan x="1105.0" dy="0">Rollback</tspan>
</text><rect x="1260" y="640" width="260" height="74" rx="7" fill="#FFF8F8" stroke="#8A3A3A" stroke-width="2"/><text x="1390.0" y="686" text-anchor="middle" font-family="DejaVu Sans, Arial, sans-serif" font-size="25" font-weight="800" fill="#8A3A3A">
<tspan x="1390.0" dy="0">Revoke</tspan>
</text><rect x="80" y="735" width="1440" height="44" rx="5" fill="#FAFAFE" stroke="#4B3B73" stroke-width="2"/><text x="800" y="763" text-anchor="middle" font-family="DejaVu Sans, Arial, sans-serif" font-size="19" font-weight="800" fill="#4B3B73">
<tspan x="800" dy="0">Review record preserves disposition, boundaries, owners, evidence gaps, and follow-up timing.</tspan>
</text><rect x="70" y="804" width="1460" height="48" rx="5" fill="#F7FAFE" stroke="#163A63" stroke-width="2"/><text x="800" y="835" text-anchor="middle" font-family="DejaVu Sans, Arial, sans-serif" font-size="23" font-weight="800" fill="#163A63">
<tspan x="800" dy="0">Capability does not justify authority. Authority must survive review.</tspan>
</text>
</svg>