<?xml version="1.0" encoding="UTF-8"?>
<svg width="1600" height="900" viewBox="0 0 1600 900" xmlns="http://www.w3.org/2000/svg">
<rect width="1600" height="900" fill="white"/><rect x="30" y="22" width="1540" height="830" rx="8" fill="white" stroke="#163A63" stroke-width="2.2"/><rect x="110" y="70" width="1110" height="82" rx="7" fill="#FFF8F8" stroke="#8A3A3A" stroke-width="2"/><rect x="128" y="88" width="120" height="46" rx="5" fill="white" stroke="#8A3A3A" stroke-width="1.5"/><text x="188" y="117" text-anchor="middle" font-family="DejaVu Sans, Arial, sans-serif" font-size="20" font-weight="800" fill="#8A3A3A">
<tspan x="188" dy="0">Level 6</tspan>
</text><text x="440" y="102" text-anchor="middle" font-family="DejaVu Sans, Arial, sans-serif" font-size="27" font-weight="800" fill="#111827">
<tspan x="440" dy="0">Escalate Across Workflows</tspan>
</text><text x="440" y="132" text-anchor="middle" font-family="DejaVu Sans, Arial, sans-serif" font-size="20" font-weight="500" fill="#111827">
<tspan x="440" dy="0">Cross-workflow consequence</tspan>
</text><rect x="925" y="88" width="260" height="46" rx="5" fill="white" stroke="#8A3A3A" stroke-width="1.5"/><text x="1055" y="117" text-anchor="middle" font-family="DejaVu Sans, Arial, sans-serif" font-size="20" font-weight="800" fill="#8A3A3A">
<tspan x="1055" dy="0">Strongest Review</tspan>
</text><rect x="110" y="162" width="1110" height="82" rx="7" fill="#FAFAFE" stroke="#4B3B73" stroke-width="2"/><rect x="128" y="180" width="120" height="46" rx="5" fill="white" stroke="#4B3B73" stroke-width="1.5"/><text x="188" y="209" text-anchor="middle" font-family="DejaVu Sans, Arial, sans-serif" font-size="20" font-weight="800" fill="#4B3B73">
<tspan x="188" dy="0">Level 5</tspan>
</text><text x="440" y="194" text-anchor="middle" font-family="DejaVu Sans, Arial, sans-serif" font-size="27" font-weight="800" fill="#111827">
<tspan x="440" dy="0">Execute Within Rules</tspan>
</text><text x="440" y="224" text-anchor="middle" font-family="DejaVu Sans, Arial, sans-serif" font-size="20" font-weight="500" fill="#111827">
<tspan x="440" dy="0">Narrow automated actions</tspan>
</text><rect x="925" y="180" width="260" height="46" rx="5" fill="white" stroke="#4B3B73" stroke-width="1.5"/><text x="1055" y="209" text-anchor="middle" font-family="DejaVu Sans, Arial, sans-serif" font-size="20" font-weight="800" fill="#4B3B73">
<tspan x="1055" dy="0">Monitoring + Rollback</tspan>
</text><rect x="110" y="254" width="1110" height="82" rx="7" fill="#FFFDF7" stroke="#9A6500" stroke-width="2"/><rect x="128" y="272" width="120" height="46" rx="5" fill="white" stroke="#9A6500" stroke-width="1.5"/><text x="188" y="301" text-anchor="middle" font-family="DejaVu Sans, Arial, sans-serif" font-size="20" font-weight="800" fill="#9A6500">
<tspan x="188" dy="0">Level 4</tspan>
</text><text x="440" y="286" text-anchor="middle" font-family="DejaVu Sans, Arial, sans-serif" font-size="27" font-weight="800" fill="#111827">
<tspan x="440" dy="0">Execute with Approval</tspan>
</text><text x="440" y="316" text-anchor="middle" font-family="DejaVu Sans, Arial, sans-serif" font-size="20" font-weight="500" fill="#111827">
<tspan x="440" dy="0">Approved tool or state change</tspan>
</text><rect x="925" y="272" width="260" height="46" rx="5" fill="white" stroke="#9A6500" stroke-width="1.5"/><text x="1055" y="301" text-anchor="middle" font-family="DejaVu Sans, Arial, sans-serif" font-size="20" font-weight="800" fill="#9A6500">
<tspan x="1055" dy="0">Logged Approval</tspan>
</text><rect x="110" y="346" width="1110" height="82" rx="7" fill="#FFFDF7" stroke="#9A6500" stroke-width="2"/><rect x="128" y="364" width="120" height="46" rx="5" fill="white" stroke="#9A6500" stroke-width="1.5"/><text x="188" y="393" text-anchor="middle" font-family="DejaVu Sans, Arial, sans-serif" font-size="20" font-weight="800" fill="#9A6500">
<tspan x="188" dy="0">Level 3</tspan>
</text><text x="440" y="378" text-anchor="middle" font-family="DejaVu Sans, Arial, sans-serif" font-size="27" font-weight="800" fill="#111827">
<tspan x="440" dy="0">Prepare</tspan>
</text><text x="440" y="408" text-anchor="middle" font-family="DejaVu Sans, Arial, sans-serif" font-size="20" font-weight="500" fill="#111827">
<tspan x="440" dy="0">Stage action for approval</tspan>
</text><rect x="925" y="364" width="260" height="46" rx="5" fill="white" stroke="#9A6500" stroke-width="1.5"/><text x="1055" y="393" text-anchor="middle" font-family="DejaVu Sans, Arial, sans-serif" font-size="20" font-weight="800" fill="#9A6500">
<tspan x="1055" dy="0">Approval Required</tspan>
</text><rect x="110" y="438" width="1110" height="82" rx="7" fill="#F7FAFE" stroke="#1F4E79" stroke-width="2"/><rect x="128" y="456" width="120" height="46" rx="5" fill="white" stroke="#1F4E79" stroke-width="1.5"/><text x="188" y="485" text-anchor="middle" font-family="DejaVu Sans, Arial, sans-serif" font-size="20" font-weight="800" fill="#1F4E79">
<tspan x="188" dy="0">Level 2</tspan>
</text><text x="440" y="470" text-anchor="middle" font-family="DejaVu Sans, Arial, sans-serif" font-size="27" font-weight="800" fill="#111827">
<tspan x="440" dy="0">Recommend</tspan>
</text><text x="440" y="500" text-anchor="middle" font-family="DejaVu Sans, Arial, sans-serif" font-size="20" font-weight="500" fill="#111827">
<tspan x="440" dy="0">Propose a next step</tspan>
</text><rect x="925" y="456" width="260" height="46" rx="5" fill="white" stroke="#1F4E79" stroke-width="1.5"/><text x="1055" y="485" text-anchor="middle" font-family="DejaVu Sans, Arial, sans-serif" font-size="20" font-weight="800" fill="#1F4E79">
<tspan x="1055" dy="0">Explain Why</tspan>
</text><rect x="110" y="530" width="1110" height="82" rx="7" fill="#F7FAFE" stroke="#1F4E79" stroke-width="2"/><rect x="128" y="548" width="120" height="46" rx="5" fill="white" stroke="#1F4E79" stroke-width="1.5"/><text x="188" y="577" text-anchor="middle" font-family="DejaVu Sans, Arial, sans-serif" font-size="20" font-weight="800" fill="#1F4E79">
<tspan x="188" dy="0">Level 1</tspan>
</text><text x="440" y="562" text-anchor="middle" font-family="DejaVu Sans, Arial, sans-serif" font-size="27" font-weight="800" fill="#111827">
<tspan x="440" dy="0">Inform</tspan>
</text><text x="440" y="592" text-anchor="middle" font-family="DejaVu Sans, Arial, sans-serif" font-size="20" font-weight="500" fill="#111827">
<tspan x="440" dy="0">Retrieve and organize information</tspan>
</text><rect x="925" y="548" width="260" height="46" rx="5" fill="white" stroke="#1F4E79" stroke-width="1.5"/><text x="1055" y="577" text-anchor="middle" font-family="DejaVu Sans, Arial, sans-serif" font-size="20" font-weight="800" fill="#1F4E79">
<tspan x="1055" dy="0">Evidence Required</tspan>
</text><rect x="1270" y="70" width="230" height="542" rx="7" fill="#F7FAFE" stroke="#163A63" stroke-width="2"/><text x="1385.0" y="104" text-anchor="middle" font-family="DejaVu Sans, Arial, sans-serif" font-size="25" font-weight="800" fill="#163A63">
<tspan x="1385.0" dy="0">Increasing</tspan>
<tspan x="1385.0" dy="29">Governance</tspan>
</text>
<line x1="1385.0" y1="555" x2="1385.0" y2="181" stroke="#163A63" stroke-width="5" stroke-linecap="round"/>
<polygon points="1375.0,181 1395.0,181 1385.0,165" fill="#163A63"/>
<rect x="1305" y="495" width="160" height="40" rx="5" fill="white" stroke="#163A63" stroke-width="1.4"/><text x="1385.0" y="521" text-anchor="middle" font-family="DejaVu Sans, Arial, sans-serif" font-size="19" font-weight="800" fill="#111827">
<tspan x="1385.0" dy="0">Evidence</tspan>
</text><rect x="1305" y="421" width="160" height="40" rx="5" fill="white" stroke="#163A63" stroke-width="1.4"/><text x="1385.0" y="447" text-anchor="middle" font-family="DejaVu Sans, Arial, sans-serif" font-size="19" font-weight="800" fill="#111827">
<tspan x="1385.0" dy="0">Approval</tspan>
</text><rect x="1305" y="347" width="160" height="40" rx="5" fill="white" stroke="#163A63" stroke-width="1.4"/><text x="1385.0" y="373" text-anchor="middle" font-family="DejaVu Sans, Arial, sans-serif" font-size="19" font-weight="800" fill="#111827">
<tspan x="1385.0" dy="0">Monitoring</tspan>
</text><rect x="1305" y="273" width="160" height="40" rx="5" fill="white" stroke="#163A63" stroke-width="1.4"/><text x="1385.0" y="299" text-anchor="middle" font-family="DejaVu Sans, Arial, sans-serif" font-size="19" font-weight="800" fill="#111827">
<tspan x="1385.0" dy="0">Rollback</tspan>
</text><rect x="1305" y="199" width="160" height="40" rx="5" fill="white" stroke="#163A63" stroke-width="1.4"/><text x="1385.0" y="225" text-anchor="middle" font-family="DejaVu Sans, Arial, sans-serif" font-size="19" font-weight="800" fill="#111827">
<tspan x="1385.0" dy="0">Review</tspan>
</text><rect x="230" y="635" width="1140" height="48" rx="5" fill="#FAFAFE" stroke="#4B3B73" stroke-width="2"/><text x="800" y="666" text-anchor="middle" font-family="DejaVu Sans, Arial, sans-serif" font-size="21" font-weight="800" fill="#4B3B73">
<tspan x="800" dy="0">Tool authority matrix: capability, level, allowed tools, approval, monitoring, rollback, owner</tspan>
</text><rect x="70" y="720" width="1460" height="80" rx="5" fill="#F7FAFE" stroke="#163A63" stroke-width="2"/><text x="800" y="754" text-anchor="middle" font-family="DejaVu Sans, Arial, sans-serif" font-size="25" font-weight="800" fill="#163A63">
<tspan x="800" dy="0">Select the lowest authority level that responsibly improves the workflow.</tspan>
</text><text x="800" y="784" text-anchor="middle" font-family="DejaVu Sans, Arial, sans-serif" font-size="22" font-weight="700" fill="#111827">
<tspan x="800" dy="0">Capability increases consequence; consequence increases control.</tspan>
</text>
</svg>