<?xml version="1.0" encoding="UTF-8"?>
<svg width="1600" height="900" viewBox="0 0 1600 900" xmlns="http://www.w3.org/2000/svg">
<rect width="1600" height="900" fill="white"/><rect x="30" y="22" width="1540" height="840" rx="8" fill="white" stroke="#163A63" stroke-width="2.2"/><rect x="570.0" y="52" width="460" height="100" rx="7" fill="#F7FAFE" stroke="#1F4E79" stroke-width="2"/>
<text x="800" y="84" text-anchor="middle" font-family="DejaVu Sans, Arial, sans-serif" font-size="24" font-weight="800" fill="#1F4E79">
<tspan x="800" dy="0">Proposed Action</tspan>
</text>
<text x="800" y="118" text-anchor="middle" font-family="DejaVu Sans, Arial, sans-serif" font-size="19" font-weight="500" fill="#111827">
<tspan x="800" dy="0">agent prepares a workflow action</tspan>
</text><line x1="800" y1="152" x2="800.0" y2="165.0" stroke="#1F4E79" stroke-width="4" stroke-linecap="round"/><polygon points="791.0,165.0 809.0,165.0 800,180" fill="#1F4E79"/><rect x="570.0" y="180" width="460" height="100" rx="7" fill="#F7FAFE" stroke="#1F4E79" stroke-width="2"/>
<text x="800" y="212" text-anchor="middle" font-family="DejaVu Sans, Arial, sans-serif" font-size="24" font-weight="800" fill="#1F4E79">
<tspan x="800" dy="0">Evidence Display</tspan>
</text>
<text x="800" y="246" text-anchor="middle" font-family="DejaVu Sans, Arial, sans-serif" font-size="19" font-weight="500" fill="#111827">
<tspan x="800" dy="0">context, source, uncertainty, impact</tspan>
</text><line x1="800" y1="280" x2="800.0" y2="295.0" stroke="#1F4E79" stroke-width="4" stroke-linecap="round"/><polygon points="791.0,295.0 809.0,295.0 800,310" fill="#1F4E79"/><rect x="520.0" y="310" width="560" height="128" rx="8" fill="#FFFDF7" stroke="#9A6500" stroke-width="2.2"/><text x="800" y="349" text-anchor="middle" font-family="DejaVu Sans, Arial, sans-serif" font-size="31" font-weight="800" fill="#7A4B00">
<tspan x="800" dy="0">Human Review</tspan>
</text><text x="800" y="392" text-anchor="middle" font-family="DejaVu Sans, Arial, sans-serif" font-size="22" font-weight="600" fill="#111827">
<tspan x="800" dy="0">approval must be evidence-backed,</tspan>
<tspan x="800" dy="25">attributable, and rejectable</tspan>
</text><line x1="675" y1="438" x2="514.1" y2="495.0" stroke="#1F4E79" stroke-width="4" stroke-linecap="round"/><polygon points="511.1,486.5 517.1,503.5 500,500" fill="#1F4E79"/><line x1="925" y1="438" x2="1085.9" y2="495.0" stroke="#1F4E79" stroke-width="4" stroke-linecap="round"/><polygon points="1082.9,503.5 1088.9,486.5 1100,500" fill="#1F4E79"/><rect x="310.0" y="500" width="380" height="100" rx="7" fill="#FFF8F8" stroke="#8A3A3A" stroke-width="2"/>
<text x="500" y="532" text-anchor="middle" font-family="DejaVu Sans, Arial, sans-serif" font-size="24" font-weight="800" fill="#8A3A3A">
<tspan x="500" dy="0">Rejected</tspan>
</text>
<text x="500" y="566" text-anchor="middle" font-family="DejaVu Sans, Arial, sans-serif" font-size="19" font-weight="500" fill="#111827">
<tspan x="500" dy="0">human handling or revision</tspan>
</text><rect x="910.0" y="500" width="380" height="100" rx="7" fill="#F7FBF7" stroke="#2F5F3A" stroke-width="2"/>
<text x="1100" y="532" text-anchor="middle" font-family="DejaVu Sans, Arial, sans-serif" font-size="24" font-weight="800" fill="#2F5F3A">
<tspan x="1100" dy="0">Approved</tspan>
</text>
<text x="1100" y="566" text-anchor="middle" font-family="DejaVu Sans, Arial, sans-serif" font-size="19" font-weight="500" fill="#111827">
<tspan x="1100" dy="0">execute the approved action</tspan>
</text><line x1="1100" y1="600" x2="1105.9" y2="620.6" stroke="#1F4E79" stroke-width="4" stroke-linecap="round"/><polygon points="1097.2,623.0 1114.5,618.1 1110,635" fill="#1F4E79"/><rect x="352.5" y="635" width="275" height="78" rx="7" fill="#FFFDF7" stroke="#9A6500" stroke-width="2"/>
<text x="490" y="667" text-anchor="middle" font-family="DejaVu Sans, Arial, sans-serif" font-size="22" font-weight="800" fill="#9A6500">
<tspan x="490" dy="0">Exception Detected?</tspan>
</text>
<text x="490" y="701" text-anchor="middle" font-family="DejaVu Sans, Arial, sans-serif" font-size="18" font-weight="500" fill="#111827">
<tspan x="490" dy="0">trigger corrective control</tspan>
</text><rect x="662.5" y="635" width="275" height="78" rx="7" fill="#F7FAFE" stroke="#1F4E79" stroke-width="2"/>
<text x="800" y="667" text-anchor="middle" font-family="DejaVu Sans, Arial, sans-serif" font-size="22" font-weight="800" fill="#1F4E79">
<tspan x="800" dy="0">Monitoring</tspan>
</text>
<text x="800" y="701" text-anchor="middle" font-family="DejaVu Sans, Arial, sans-serif" font-size="18" font-weight="500" fill="#111827">
<tspan x="800" dy="0">signals and exceptions</tspan>
</text><rect x="972.5" y="635" width="275" height="78" rx="7" fill="#FAFAFE" stroke="#4B3B73" stroke-width="2"/>
<text x="1110" y="667" text-anchor="middle" font-family="DejaVu Sans, Arial, sans-serif" font-size="22" font-weight="800" fill="#4B3B73">
<tspan x="1110" dy="0">Audit Logging</tspan>
</text>
<text x="1110" y="701" text-anchor="middle" font-family="DejaVu Sans, Arial, sans-serif" font-size="18" font-weight="500" fill="#111827">
<tspan x="1110" dy="0">decision and action record</tspan>
</text><line x1="972.5" y1="674.0" x2="952.5" y2="674.0" stroke="#1F4E79" stroke-width="4" stroke-linecap="round"/><polygon points="952.5,665.0 952.5,683.0 937.5,674.0" fill="#1F4E79"/><line x1="662.5" y1="674.0" x2="642.5" y2="674.0" stroke="#1F4E79" stroke-width="4" stroke-linecap="round"/><polygon points="642.5,665.0 642.5,683.0 627.5,674.0" fill="#1F4E79"/><line x1="490" y1="713" x2="490.0" y2="723.0" stroke="#1F4E79" stroke-width="4" stroke-linecap="round"/><polygon points="481.0,723.0 499.0,723.0 490,738" fill="#1F4E79"/><rect x="275.0" y="738" width="430" height="70" rx="6" fill="#FFF8F8" stroke="#8A3A3A" stroke-width="2"/><text x="490" y="767" text-anchor="middle" font-family="DejaVu Sans, Arial, sans-serif" font-size="21" font-weight="800" fill="#8A3A3A">
<tspan x="490" dy="0">Rollback / Compensation</tspan>
</text><text x="490" y="793" text-anchor="middle" font-family="DejaVu Sans, Arial, sans-serif" font-size="21" font-weight="800" fill="#8A3A3A">
<tspan x="490" dy="0">Revocation</tspan>
</text><line x1="705.0" y1="773.0" x2="735.0" y2="773.0" stroke="#1F4E79" stroke-width="4" stroke-linecap="round"/><polygon points="735.0,782.0 735.0,764.0 750.0,773.0" fill="#1F4E79"/><rect x="750.0" y="738" width="360" height="70" rx="6" fill="#FAFAFE" stroke="#4B3B73" stroke-width="2"/><text x="930" y="781" text-anchor="middle" font-family="DejaVu Sans, Arial, sans-serif" font-size="24" font-weight="800" fill="#4B3B73">
<tspan x="930" dy="0">Review Required</tspan>
</text><rect x="70" y="822" width="1460" height="30" rx="5" fill="#F7FAFE" stroke="#163A63" stroke-width="2"/><text x="800" y="843" text-anchor="middle" font-family="DejaVu Sans, Arial, sans-serif" font-size="22" font-weight="800" fill="#163A63">
<tspan x="800" dy="0">Approval must remain meaningful, attributable, reviewable, and recoverable.</tspan>
</text>
</svg>