
<svg xmlns="http://www.w3.org/2000/svg" width="2600" height="1380" viewBox="0 80 2600 1380">
<rect width="100%" height="100%" fill="white"/>
<style>
.label{font-family:Arial,Helvetica,sans-serif;font-size:37px;font-weight:700;fill:#0B1F3A}
.center{font-family:Arial,Helvetica,sans-serif;font-size:40px;font-weight:700;fill:#0B1F3A}
.note{font-family:Arial,Helvetica,sans-serif;font-size:37px;font-weight:700;fill:#7F1D1D}
.assert{font-family:Arial,Helvetica,sans-serif;font-size:37px;font-weight:700;fill:#0B1F3A}
</style>

<rect x="180" y="240" width="420" height="90" rx="16" fill="white" stroke="#64748B" stroke-width="3"/>
<text x="390" y="295" text-anchor="middle" class="label">Weak Evidence</text>

<rect x="180" y="390" width="420" height="90" rx="16" fill="white" stroke="#64748B" stroke-width="3"/>
<text x="390" y="445" text-anchor="middle" class="label">Shallow Review</text>

<rect x="180" y="540" width="420" height="90" rx="16" fill="white" stroke="#64748B" stroke-width="3"/>
<text x="390" y="595" text-anchor="middle" class="label">Informal Governance</text>

<rect x="180" y="690" width="420" height="90" rx="16" fill="white" stroke="#64748B" stroke-width="3"/>
<text x="390" y="745" text-anchor="middle" class="label">Fragmented Visibility</text>

<rect x="940" y="430" width="720" height="180" rx="24" fill="#EAF2FF" stroke="#1E3A8A" stroke-width="5"/>
<text x="1300" y="535" text-anchor="middle" class="center">AI Acceleration</text>

<!-- left arrows -->
<line x1="600" y1="285" x2="920" y2="488" stroke="#94A3B8" stroke-width="4"/>
<polygon points="920,488 900,478 902,500" fill="#94A3B8"/>

<line x1="600" y1="435" x2="920" y2="518" stroke="#94A3B8" stroke-width="4"/>
<polygon points="920,518 900,508 902,530" fill="#94A3B8"/>

<line x1="600" y1="585" x2="920" y2="542" stroke="#94A3B8" stroke-width="4"/>
<polygon points="920,542 900,532 902,554" fill="#94A3B8"/>

<line x1="600" y1="735" x2="920" y2="562" stroke="#94A3B8" stroke-width="4"/>
<polygon points="920,562 900,552 902,574" fill="#94A3B8"/>

<rect x="1980" y="240" width="420" height="90" rx="16" fill="#FEF2F2" stroke="#B91C1C" stroke-width="3"/>
<text x="2190" y="295" text-anchor="middle" class="label">Evidence Failure</text>

<rect x="1980" y="390" width="420" height="90" rx="16" fill="#FEF2F2" stroke="#B91C1C" stroke-width="3"/>
<text x="2190" y="445" text-anchor="middle" class="label">Review Erosion</text>

<rect x="1980" y="540" width="420" height="90" rx="16" fill="#FEF2F2" stroke="#B91C1C" stroke-width="3"/>
<text x="2190" y="595" text-anchor="middle" class="label">Hidden Authority</text>

<rect x="1980" y="690" width="420" height="90" rx="16" fill="#FEF2F2" stroke="#B91C1C" stroke-width="3"/>
<text x="2190" y="745" text-anchor="middle" class="label">Operational Fragility</text>

<!-- right arrows -->
<line x1="1680" y1="500" x2="1960" y2="290" stroke="#94A3B8" stroke-width="4"/>
<polygon points="1960,290 1940,282 1946,304" fill="#94A3B8"/>

<line x1="1680" y1="520" x2="1960" y2="440" stroke="#94A3B8" stroke-width="4"/>
<polygon points="1960,440 1940,432 1946,454" fill="#94A3B8"/>

<line x1="1680" y1="540" x2="1960" y2="590" stroke="#94A3B8" stroke-width="4"/>
<polygon points="1960,590 1940,582 1946,604" fill="#94A3B8"/>

<line x1="1680" y1="560" x2="1960" y2="740" stroke="#94A3B8" stroke-width="4"/>
<polygon points="1960,740 1940,732 1946,754" fill="#94A3B8"/>

<rect x="650" y="980" width="1300" height="100" rx="18" fill="white" stroke="#0B1F3A" stroke-width="3"/>
<text x="1300" y="1043" text-anchor="middle" class="assert">Acceleration magnifies existing weakness.</text>

<rect x="520" y="1180" width="1560" height="95" rx="18" fill="#FEF2F2" stroke="#B91C1C" stroke-width="4"/>
<text x="1300" y="1238" text-anchor="middle" class="note">Faster systems require stronger stewardship.</text>
</svg>
