<svg xmlns="http://www.w3.org/2000/svg" width="1800" height="1050" viewBox="0 0 1800 1050">
<defs>
<marker id="arrow" markerWidth="12" markerHeight="12" refX="10" refY="6" orient="auto" markerUnits="userSpaceOnUse"><path d="M2,2 L10,6 L2,10 Z" fill="#52616b"/></marker>
<filter id="shadow" x="-10%" y="-10%" width="120%" height="120%"><feDropShadow dx="0" dy="2" stdDeviation="2" flood-color="#000000" flood-opacity="0.10"/></filter>
</defs>
<rect width="1800" height="1050" fill="#fbfcfd"/>
<text x="85" y="70" font-family="Arial, Helvetica, sans-serif" font-size="27" font-weight="700" fill="#52616b" text-anchor="start">
<tspan x="85" dy="0">Inherited readiness</tspan>
</text>
<text x="445" y="70" font-family="Arial, Helvetica, sans-serif" font-size="27" font-weight="700" fill="#52616b" text-anchor="start">
<tspan x="445" dy="0">Operational response under pressure</tspan>
</text>
<rect x="55" y="105" width="330" height="330" rx="24" fill="#eef2f5" stroke="#677887" stroke-width="2.2"/>
<text x="220" y="148" font-family="Arial, Helvetica, sans-serif" font-size="28" font-weight="700" fill="#1f2933" text-anchor="middle">
<tspan x="220" dy="0">Prepared before</tspan>
<tspan x="220" dy="35.0">the incident</tspan>
</text>
<rect x="85" y="157" width="270" height="42" rx="12" fill="#ffffff" stroke="#677887" stroke-width="1.6"/>
<text x="220" y="184" font-family="Arial, Helvetica, sans-serif" font-size="22" font-weight="600" fill="#1f2933" text-anchor="middle">
<tspan x="220" dy="0">Failure modes</tspan>
</text>
<rect x="85" y="207" width="270" height="42" rx="12" fill="#ffffff" stroke="#677887" stroke-width="1.6"/>
<text x="220" y="234" font-family="Arial, Helvetica, sans-serif" font-size="22" font-weight="600" fill="#1f2933" text-anchor="middle">
<tspan x="220" dy="0">Reliability signals</tspan>
</text>
<rect x="85" y="257" width="270" height="42" rx="12" fill="#ffffff" stroke="#677887" stroke-width="1.6"/>
<text x="220" y="284" font-family="Arial, Helvetica, sans-serif" font-size="22" font-weight="600" fill="#1f2933" text-anchor="middle">
<tspan x="220" dy="0">Runbooks</tspan>
</text>
<rect x="85" y="307" width="270" height="42" rx="12" fill="#ffffff" stroke="#677887" stroke-width="1.6"/>
<text x="220" y="334" font-family="Arial, Helvetica, sans-serif" font-size="22" font-weight="600" fill="#1f2933" text-anchor="middle">
<tspan x="220" dy="0">Owners &amp; escalation</tspan>
</text>
<rect x="85" y="357" width="270" height="42" rx="12" fill="#ffffff" stroke="#677887" stroke-width="1.6"/>
<text x="220" y="384" font-family="Arial, Helvetica, sans-serif" font-size="22" font-weight="600" fill="#1f2933" text-anchor="middle">
<tspan x="220" dy="0">Recovery assumptions</tspan>
</text>
<rect x="55" y="470" width="330" height="290" rx="24" fill="#fff4dc" stroke="#b8872e" stroke-width="2.2"/>
<text x="220" y="518" font-family="Arial, Helvetica, sans-serif" font-size="28" font-weight="700" fill="#1f2933" text-anchor="middle">
<tspan x="220" dy="0">Signal fragments</tspan>
</text>
<rect x="90" y="544" width="260" height="42" rx="12" fill="#ffffff" stroke="#b8872e" stroke-width="1.5"/>
<text x="220" y="571" font-family="Arial, Helvetica, sans-serif" font-size="22" font-weight="600" fill="#1f2933" text-anchor="middle">
<tspan x="220" dy="0">Latency rise</tspan>
</text>
<rect x="90" y="594" width="260" height="42" rx="12" fill="#ffffff" stroke="#b8872e" stroke-width="1.5"/>
<text x="220" y="621" font-family="Arial, Helvetica, sans-serif" font-size="22" font-weight="600" fill="#1f2933" text-anchor="middle">
<tspan x="220" dy="0">Queue growth</tspan>
</text>
<rect x="90" y="644" width="260" height="42" rx="12" fill="#ffffff" stroke="#b8872e" stroke-width="1.5"/>
<text x="220" y="671" font-family="Arial, Helvetica, sans-serif" font-size="22" font-weight="600" fill="#1f2933" text-anchor="middle">
<tspan x="220" dy="0">Notification delay</tspan>
</text>
<rect x="90" y="694" width="260" height="42" rx="12" fill="#ffffff" stroke="#b8872e" stroke-width="1.5"/>
<text x="220" y="721" font-family="Arial, Helvetica, sans-serif" font-size="22" font-weight="600" fill="#1f2933" text-anchor="middle">
<tspan x="220" dy="0">AI context concern</tspan>
</text>
<rect x="445" y="390" width="195" height="128" rx="18" fill="#e8f1f8" stroke="#557a99" stroke-width="2.2"/>
<text x="542.5" y="445.36" font-family="Arial, Helvetica, sans-serif" font-size="24" font-weight="700" fill="#1f2933" text-anchor="middle">
<tspan x="542.5" dy="0">Detect</tspan>
<tspan x="542.5" dy="30.0">condition</tspan>
</text>
<rect x="672" y="390" width="195" height="128" rx="18" fill="#e8f1f8" stroke="#557a99" stroke-width="2.2"/>
<text x="769.5" y="445.36" font-family="Arial, Helvetica, sans-serif" font-size="24" font-weight="700" fill="#1f2933" text-anchor="middle">
<tspan x="769.5" dy="0">Triage</tspan>
<tspan x="769.5" dy="30.0">and classify</tspan>
</text>
<line x1="648" y1="454.0" x2="662" y2="454.0" stroke="#52616b" stroke-width="3.2" stroke-linecap="round" marker-end="url(#arrow)"/>
<rect x="899" y="390" width="195" height="128" rx="18" fill="#eef2f5" stroke="#677887" stroke-width="2.2"/>
<text x="996.5" y="445.36" font-family="Arial, Helvetica, sans-serif" font-size="24" font-weight="700" fill="#1f2933" text-anchor="middle">
<tspan x="996.5" dy="0">Assign roles</tspan>
<tspan x="996.5" dy="30.0">and authority</tspan>
</text>
<line x1="875" y1="454.0" x2="889" y2="454.0" stroke="#52616b" stroke-width="3.2" stroke-linecap="round" marker-end="url(#arrow)"/>
<rect x="1126" y="390" width="195" height="128" rx="18" fill="#f9e7e5" stroke="#a35c57" stroke-width="2.2"/>
<text x="1223.5" y="445.36" font-family="Arial, Helvetica, sans-serif" font-size="24" font-weight="700" fill="#1f2933" text-anchor="middle">
<tspan x="1223.5" dy="0">Contain</tspan>
<tspan x="1223.5" dy="30.0">and mitigate</tspan>
</text>
<line x1="1102" y1="454.0" x2="1116" y2="454.0" stroke="#52616b" stroke-width="3.2" stroke-linecap="round" marker-end="url(#arrow)"/>
<rect x="1353" y="390" width="195" height="128" rx="18" fill="#edf6f1" stroke="#5c8a70" stroke-width="2.2"/>
<text x="1450.5" y="445.36" font-family="Arial, Helvetica, sans-serif" font-size="24" font-weight="700" fill="#1f2933" text-anchor="middle">
<tspan x="1450.5" dy="0">Recover</tspan>
<tspan x="1450.5" dy="30.0">and prove</tspan>
</text>
<line x1="1329" y1="454.0" x2="1343" y2="454.0" stroke="#52616b" stroke-width="3.2" stroke-linecap="round" marker-end="url(#arrow)"/>
<rect x="1580" y="390" width="195" height="128" rx="18" fill="#f0edf7" stroke="#6f5b97" stroke-width="2.2"/>
<text x="1677.5" y="445.36" font-family="Arial, Helvetica, sans-serif" font-size="24" font-weight="700" fill="#1f2933" text-anchor="middle">
<tspan x="1677.5" dy="0">Hand off</tspan>
<tspan x="1677.5" dy="30.0">learning</tspan>
</text>
<line x1="1556" y1="454.0" x2="1570" y2="454.0" stroke="#52616b" stroke-width="3.2" stroke-linecap="round" marker-end="url(#arrow)"/>
<line x1="385" y1="270" x2="435" y2="430" stroke="#52616b" stroke-width="3" stroke-linecap="round" marker-end="url(#arrow)"/>
<line x1="385" y1="615" x2="435" y2="455" stroke="#52616b" stroke-width="3" stroke-linecap="round" marker-end="url(#arrow)"/>
<rect x="670" y="190" width="715" height="115" rx="22" fill="#f7f5fb" stroke="#6f5b97" stroke-width="2"/>
<text x="1027" y="232" font-family="Arial, Helvetica, sans-serif" font-size="28" font-weight="700" fill="#1f2933" text-anchor="middle">
<tspan x="1027" dy="0">Evidence-backed communication</tspan>
</text>
<text x="1027" y="272" font-family="Arial, Helvetica, sans-serif" font-size="22" font-weight="600" fill="#52616b" text-anchor="middle">
<tspan x="1027" dy="0">status updates  •  escalation  •  audience boundaries</tspan>
</text>
<path d="M 769.5 305 C 769.5 335, 769.5 350, 769.5 380" fill="none" stroke="#6f5b97" stroke-width="2.8" stroke-linecap="round" stroke-linejoin="round" marker-end="url(#arrow)" stroke-dasharray="7 7"/>
<path d="M 1223.5 305 C 1223.5 335, 1223.5 350, 1223.5 380" fill="none" stroke="#6f5b97" stroke-width="2.8" stroke-linecap="round" stroke-linejoin="round" marker-end="url(#arrow)" stroke-dasharray="7 7"/>
<path d="M 1450.5 305 C 1450.5 335, 1450.5 350, 1450.5 380" fill="none" stroke="#6f5b97" stroke-width="2.8" stroke-linecap="round" stroke-linejoin="round" marker-end="url(#arrow)" stroke-dasharray="7 7"/>
<rect x="445" y="595" width="1330" height="150" rx="24" fill="#eef5f4" stroke="#5c8a70" stroke-width="2.2"/>
<text x="1110" y="635" font-family="Arial, Helvetica, sans-serif" font-size="29" font-weight="700" fill="#1f2933" text-anchor="middle">
<tspan x="1110" dy="0">Preserve evidence while acting</tspan>
</text>
<text x="1110" y="677" font-family="Arial, Helvetica, sans-serif" font-size="23" font-weight="600" fill="#52616b" text-anchor="middle">
<tspan x="1110" dy="0">timeline  •  decisions  •  impact  •  communications  •  containment  •  recovery proof</tspan>
</text>
<text x="1110" y="715" font-family="Arial, Helvetica, sans-serif" font-size="23" font-weight="700" fill="#1f2933" text-anchor="middle">
<tspan x="1110" dy="0">Repository record becomes the durable incident memory</tspan>
</text>
<line x1="542.5" y1="526" x2="542.5" y2="585" stroke="#52616b" stroke-width="2.6" stroke-linecap="round" marker-end="url(#arrow)" stroke-dasharray="6 8"/>
<line x1="769.5" y1="526" x2="769.5" y2="585" stroke="#52616b" stroke-width="2.6" stroke-linecap="round" marker-end="url(#arrow)" stroke-dasharray="6 8"/>
<line x1="996.5" y1="526" x2="996.5" y2="585" stroke="#52616b" stroke-width="2.6" stroke-linecap="round" marker-end="url(#arrow)" stroke-dasharray="6 8"/>
<line x1="1223.5" y1="526" x2="1223.5" y2="585" stroke="#52616b" stroke-width="2.6" stroke-linecap="round" marker-end="url(#arrow)" stroke-dasharray="6 8"/>
<line x1="1450.5" y1="526" x2="1450.5" y2="585" stroke="#52616b" stroke-width="2.6" stroke-linecap="round" marker-end="url(#arrow)" stroke-dasharray="6 8"/>
<line x1="1677.5" y1="526" x2="1677.5" y2="585" stroke="#52616b" stroke-width="2.6" stroke-linecap="round" marker-end="url(#arrow)" stroke-dasharray="6 8"/>
<rect x="95" y="915" width="220" height="78" rx="18" fill="#ffffff" stroke="#557a99" stroke-width="2.2"/>
<text x="205.0" y="945.72" font-family="Arial, Helvetica, sans-serif" font-size="23" font-weight="700" fill="#1f2933" text-anchor="middle">
<tspan x="205.0" dy="0">Runtime</tspan>
<tspan x="205.0" dy="28.75">evidence</tspan>
</text>
<rect x="373" y="915" width="220" height="78" rx="18" fill="#ffffff" stroke="#677887" stroke-width="2.2"/>
<text x="483.0" y="945.72" font-family="Arial, Helvetica, sans-serif" font-size="23" font-weight="700" fill="#1f2933" text-anchor="middle">
<tspan x="483.0" dy="0">Runbook</tspan>
<tspan x="483.0" dy="28.75">actions</tspan>
</text>
<rect x="651" y="915" width="220" height="78" rx="18" fill="#ffffff" stroke="#6f5b97" stroke-width="2.2"/>
<text x="761.0" y="945.72" font-family="Arial, Helvetica, sans-serif" font-size="23" font-weight="700" fill="#1f2933" text-anchor="middle">
<tspan x="761.0" dy="0">Security</tspan>
<tspan x="761.0" dy="28.75">boundary</tspan>
</text>
<rect x="929" y="915" width="220" height="78" rx="18" fill="#ffffff" stroke="#6f5b97" stroke-width="2.2"/>
<text x="1039.0" y="945.72" font-family="Arial, Helvetica, sans-serif" font-size="23" font-weight="700" fill="#1f2933" text-anchor="middle">
<tspan x="1039.0" dy="0">AI outputs</tspan>
<tspan x="1039.0" dy="28.75">verified</tspan>
</text>
<rect x="1207" y="915" width="220" height="78" rx="18" fill="#ffffff" stroke="#b8872e" stroke-width="2.2"/>
<text x="1317.0" y="945.72" font-family="Arial, Helvetica, sans-serif" font-size="23" font-weight="700" fill="#1f2933" text-anchor="middle">
<tspan x="1317.0" dy="0">Owners and</tspan>
<tspan x="1317.0" dy="28.75">escalation</tspan>
</text>
<rect x="1485" y="915" width="220" height="78" rx="18" fill="#ffffff" stroke="#5c8a70" stroke-width="2.2"/>
<text x="1595.0" y="945.72" font-family="Arial, Helvetica, sans-serif" font-size="23" font-weight="700" fill="#1f2933" text-anchor="middle">
<tspan x="1595.0" dy="0">Review</tspan>
<tspan x="1595.0" dy="28.75">record</tspan>
</text>
<line x1="205.0" y1="905" x2="205.0" y2="755" stroke="#52616b" stroke-width="2.4" stroke-linecap="round" marker-end="url(#arrow)" stroke-dasharray="5 9"/>
<line x1="483.0" y1="905" x2="483.0" y2="755" stroke="#52616b" stroke-width="2.4" stroke-linecap="round" marker-end="url(#arrow)" stroke-dasharray="5 9"/>
<line x1="761.0" y1="905" x2="761.0" y2="755" stroke="#52616b" stroke-width="2.4" stroke-linecap="round" marker-end="url(#arrow)" stroke-dasharray="5 9"/>
<line x1="1039.0" y1="905" x2="1039.0" y2="755" stroke="#52616b" stroke-width="2.4" stroke-linecap="round" marker-end="url(#arrow)" stroke-dasharray="5 9"/>
<line x1="1317.0" y1="905" x2="1317.0" y2="755" stroke="#52616b" stroke-width="2.4" stroke-linecap="round" marker-end="url(#arrow)" stroke-dasharray="5 9"/>
<line x1="1595.0" y1="905" x2="1595.0" y2="755" stroke="#52616b" stroke-width="2.4" stroke-linecap="round" marker-end="url(#arrow)" stroke-dasharray="5 9"/>
<path d="M 70 858 L 1730 858" stroke="#6f5b97" stroke-width="3" stroke-linecap="round" stroke-dasharray="10 10"/>
<text x="900" y="838" font-family="Arial, Helvetica, sans-serif" font-size="24" font-weight="700" fill="#6f5b97" text-anchor="middle">
<tspan x="900" dy="0">Human authority remains accountable throughout response</tspan>
</text>
</svg>