<?xml version="1.0" encoding="UTF-8"?>
<svg xmlns="http://www.w3.org/2000/svg" width="1200" height="800" viewBox="0 0 1200 679">
<style>
.label{font-family:Arial,sans-serif;fill:#1f2933}
.top{fill:#eef3f7;stroke:#334e68;stroke-width:3}
.mid{fill:#ffffff;stroke:#52616b;stroke-width:2.2}
.arch{fill:#f4f7f9;stroke:#3f4a54;stroke-width:2.5}
.outcome{fill:#e8f1ec;stroke:#355e4b;stroke-width:2.8}
</style>
<defs>
<marker id="arrow" markerWidth="14" markerHeight="14" refX="11" refY="7" orient="auto">
<path d="M0 0 L14 7 L0 14 z" fill="#3f4a54"/>
</marker>
</defs>

<rect x="350" y="35" width="500" height="78" rx="14" ry="14" class="top"/>
<text x="600" y="84" text-anchor="middle" font-size="34" font-weight="700" class="label">System Responsibilities</text>

<line x1="600" y1="113" x2="600" y2="175" stroke="#3f4a54" stroke-width="3.2" marker-end="url(#arrow)"/>

<rect x="40" y="195" width="250" height="78" rx="12" ry="12" class="mid"/>
<text x="165" y="245" text-anchor="middle" font-size="30" font-weight="700" class="label">Intake</text>

<rect x="330" y="195" width="250" height="78" rx="12" ry="12" class="mid"/>
<text x="455" y="245" text-anchor="middle" font-size="30" font-weight="700" class="label">Routing</text>

<rect x="620" y="195" width="250" height="78" rx="12" ry="12" class="mid"/>
<text x="745" y="245" text-anchor="middle" font-size="30" font-weight="700" class="label">Visibility</text>

<rect x="910" y="195" width="250" height="78" rx="12" ry="12" class="mid"/>
<text x="1035" y="245" text-anchor="middle" font-size="28" font-weight="700" class="label">Audit History</text>

<line x1="600" y1="273" x2="600" y2="340" stroke="#3f4a54" stroke-width="3.2" marker-end="url(#arrow)"/>

<rect x="80" y="365" width="300" height="84" rx="14" ry="14" class="arch"/>
<text x="230" y="418" text-anchor="middle" font-size="32" font-weight="700" class="label">Boundaries</text>

<rect x="450" y="365" width="300" height="84" rx="14" ry="14" class="arch"/>
<text x="600" y="418" text-anchor="middle" font-size="32" font-weight="700" class="label">Interfaces</text>

<rect x="820" y="365" width="300" height="84" rx="14" ry="14" class="arch"/>
<text x="970" y="418" text-anchor="middle" font-size="32" font-weight="700" class="label">Dependencies</text>

<line x1="600" y1="449" x2="600" y2="540" stroke="#3f4a54" stroke-width="3.2" marker-end="url(#arrow)"/>

<rect x="350" y="575" width="500" height="84" rx="14" ry="14" class="outcome"/>
<text x="600" y="628" text-anchor="middle" font-size="36" font-weight="700" class="label">Architecture</text>

</svg>