<?xml version="1.0" encoding="UTF-8"?>
<svg xmlns="http://www.w3.org/2000/svg" width="1200" height="675" viewBox="0 0 1200 675">
<style>
.label{font-family:Arial,sans-serif;fill:#1f2933}
.top{fill:#eef3f7;stroke:#334e68;stroke-width:3}
.mid{fill:#ffffff;stroke:#52616b;stroke-width:2.2}
.gov{fill:#f4f7f9;stroke:#3f4a54;stroke-width:2.5}
.repo{fill:#e8f1ec;stroke:#355e4b;stroke-width:2.8}
</style>

<rect x="340" y="40" width="520" height="78" rx="14" ry="14" class="top"/>
<text x="600" y="90" text-anchor="middle" font-size="34" font-weight="700" class="label">COICP Structural Baseline</text>

<rect x="40" y="195" width="260" height="78" rx="12" ry="12" class="mid"/>
<text x="170" y="245" text-anchor="middle" font-size="28" font-weight="700" class="label">Responsibilities</text>

<rect x="320" y="195" width="260" height="78" rx="12" ry="12" class="mid"/>
<text x="450" y="245" text-anchor="middle" font-size="28" font-weight="700" class="label">Interfaces</text>

<rect x="600" y="195" width="260" height="78" rx="12" ry="12" class="mid"/>
<text x="730" y="245" text-anchor="middle" font-size="28" font-weight="700" class="label">Dependencies</text>

<rect x="880" y="195" width="280" height="78" rx="12" ry="12" class="mid"/>
<text x="1020" y="245" text-anchor="middle" font-size="26" font-weight="700" class="label">Data Ownership</text>

<rect x="120" y="385" width="420" height="88" rx="14" ry="14" class="gov"/>
<text x="330" y="440" text-anchor="middle" font-size="31" font-weight="700" class="label">Governance Boundaries</text>

<rect x="660" y="385" width="420" height="88" rx="14" ry="14" class="gov"/>
<text x="870" y="440" text-anchor="middle" font-size="31" font-weight="700" class="label">ADR Candidates</text>

<rect x="330" y="530" width="540" height="88" rx="14" ry="14" class="repo"/>
<text x="600" y="586" text-anchor="middle" font-size="36" font-weight="700" class="label">Repository Evidence</text>

</svg>
