<?xml version="1.0" encoding="UTF-8"?>
<svg xmlns="http://www.w3.org/2000/svg" width="1200" height="800" viewBox="0 0 1200 800">
<style>
.label{font-family:Arial,sans-serif;fill:#1f2933}
.top{fill:#eef3f7;stroke:#334e68;stroke-width:3}
.mid{fill:#ffffff;stroke:#52616b;stroke-width:2.2}
.pressure{fill:#f4f7f9;stroke:#3f4a54;stroke-width:2.5}
.arch{fill:#eef3f7;stroke:#334e68;stroke-width:2.5}
.outcome{fill:#e8f1ec;stroke:#355e4b;stroke-width:2.8}
</style>
<defs>
<marker id="arrow" markerWidth="14" markerHeight="14" refX="11" refY="7" orient="auto">
<path d="M0 0 L14 7 L0 14 z" fill="#3f4a54"/>
</marker>
</defs>

<rect x="380" y="30" width="440" height="78" rx="14" ry="14" class="top"/>
<text x="600" y="80" text-anchor="middle" font-size="34" font-weight="700" class="label">Execution Baseline</text>

<line x1="600" y1="108" x2="600" y2="165" stroke="#3f4a54" stroke-width="3.2" marker-end="url(#arrow)"/>

<rect x="50" y="190" width="250" height="78" rx="12" ry="12" class="mid"/>
<text x="175" y="240" text-anchor="middle" font-size="30" font-weight="700" class="label">Scope</text>

<rect x="325" y="190" width="250" height="78" rx="12" ry="12" class="mid"/>
<text x="450" y="240" text-anchor="middle" font-size="30" font-weight="700" class="label">Risks</text>

<rect x="600" y="190" width="250" height="78" rx="12" ry="12" class="mid"/>
<text x="725" y="240" text-anchor="middle" font-size="30" font-weight="700" class="label">Dependencies</text>

<rect x="875" y="190" width="275" height="78" rx="12" ry="12" class="mid"/>
<text x="1012" y="240" text-anchor="middle" font-size="30" font-weight="700" class="label">Tradeoffs</text>

<line x1="600" y1="268" x2="600" y2="335" stroke="#3f4a54" stroke-width="3.2" marker-end="url(#arrow)"/>

<rect x="315" y="360" width="570" height="88" rx="14" ry="14" class="pressure"/>
<text x="600" y="416" text-anchor="middle" font-size="36" font-weight="700" class="label">Architecture Pressure</text>

<line x1="600" y1="448" x2="600" y2="510" stroke="#3f4a54" stroke-width="3.2" marker-end="url(#arrow)"/>

<rect x="50" y="535" width="250" height="78" rx="12" ry="12" class="arch"/>
<text x="175" y="585" text-anchor="middle" font-size="28" font-weight="700" class="label">Responsibility</text>

<rect x="325" y="535" width="250" height="78" rx="12" ry="12" class="arch"/>
<text x="450" y="585" text-anchor="middle" font-size="28" font-weight="700" class="label">Boundaries</text>

<rect x="600" y="535" width="250" height="78" rx="12" ry="12" class="arch"/>
<text x="725" y="585" text-anchor="middle" font-size="28" font-weight="700" class="label">Authority</text>

<rect x="875" y="535" width="275" height="78" rx="12" ry="12" class="arch"/>
<text x="1012" y="585" text-anchor="middle" font-size="28" font-weight="700" class="label">Evidence</text>

<line x1="600" y1="613" x2="600" y2="675" stroke="#3f4a54" stroke-width="3.2" marker-end="url(#arrow)"/>

<rect x="350" y="700" width="500" height="84" rx="14" ry="14" class="outcome"/>
<text x="600" y="753" text-anchor="middle" font-size="34" font-weight="700" class="label">Architecture Fundamentals</text>

</svg>